<svg width="33" height="41" xmlns="http://www.w3.org/2000/svg"><defs><radialGradient cx="50%" cy="50%" fx="50%" fy="50%" r="50%" gradientTransform="matrix(0 1 -.91533 0 .958 0)" id="a"><stop offset="0%"/><stop stop-opacity="0" offset="100%"/></radialGradient><radialGradient cx="123.544%" cy="-17.172%" fx="123.544%" fy="-17.172%" r="322.008%" gradientTransform="scale(-1 -.41176) rotate(-77.357 .368 1.666)" id="d"><stop stop-color="#FFF" offset="0%"/><stop stop-color="#333443" offset="100%"/></radialGradient><linearGradient x1="26.134%" y1="0%" x2="65.562%" y2="66.586%" id="c"><stop stop-color="#75768B" offset="0%"/><stop stop-color="#1C1D2D" offset="100%"/></linearGradient><linearGradient x1="26.86%" y1="-21.946%" x2="67.265%" y2="93.269%" id="b"><stop stop-color="#A1A5B9" offset="0%"/><stop stop-color="#333443" offset="100%"/></linearGradient></defs><g transform="translate(-1.947)" fill="none" fill-rule="evenodd"><ellipse fill="url(#a)" opacity=".3" cx="18" cy="37.204" rx="18" ry="3.5"/><path d="M18 36.913a34.043 34.043 0 003.704-1.87c1.593-.934 3.019-1.949 4.236-3.013 1.458-1.277 2.61-2.622 3.424-3.994 1.859-3.131 3.08-8.341 3.488-15.035.151-2.476.178-4.886.122-7.11L18 1.052 3.026 5.891a82.678 82.678 0 00.122 7.11c.409 6.693 1.63 11.904 3.488 15.035.814 1.372 1.966 2.717 3.423 3.993 1.218 1.065 2.644 2.08 4.237 3.014h0A34.04 34.04 0 0018 36.913z" stroke="url(#b)" stroke-width="2" fill="url(#c)"/><path d="M17.57 25.231a6.78 6.78 0 01-6.338-6.338H9.926a.426.426 0 110-.851h1.306a6.78 6.78 0 016.338-6.338v-1.326a.43.43 0 01.86 0v1.326a6.78 6.78 0 016.338 6.338h1.306a.426.426 0 110 .851h-1.306a6.78 6.78 0 01-6.338 6.338v1.288a.43.43 0 11-.86 0V25.23zm0-.854v-3.814a.43.43 0 01.86 0v3.814a5.925 5.925 0 005.477-5.484h-3.855a.426.426 0 110-.851h3.855a5.925 5.925 0 00-5.477-5.484v3.776a.43.43 0 01-.86 0v-3.776a5.925 5.925 0 00-5.477 5.484h3.855a.426.426 0 110 .851h-3.855a5.925 5.925 0 005.477 5.484z" fill="#717485"/><path d="M32 2L18.042 6.614a77.918 77.918 0 00.09 7.073c.365 6.118 1.462 10.908 3.172 13.854.762 1.313 1.83 2.589 3.172 3.79 1.107.99 2.399 1.93 3.84 2.795 1.47.88 2.831 1.508 3.684 1.874V2z" fill-opacity=".4" fill="url(#d)" style="mix-blend-mode:multiply" transform="matrix(-1 0 0 1 50 0)"/></g></svg>