<svg width="29" height="17" xmlns="http://www.w3.org/2000/svg" xmlns:xlink="http://www.w3.org/1999/xlink"><defs><filter x="-23.8%" y="-23.3%" width="147.6%" height="146.7%" filterUnits="objectBoundingBox" id="c"><feGaussianBlur stdDeviation="1.606" in="SourceGraphic"/></filter><filter x="-209.6%" y="-290.6%" width="519.3%" height="971.9%" filterUnits="objectBoundingBox" id="e"><feOffset dy="3" in="SourceAlpha" result="shadowOffsetOuter1"/><feGaussianBlur stdDeviation="2.5" in="shadowOffsetOuter1" result="shadowBlurOuter1"/><feColorMatrix values="0 0 0 0 0 0 0 0 0 0 0 0 0 0 0 0 0 0 0.35 0" in="shadowBlurOuter1"/></filter><filter x="-209.6%" y="-290.6%" width="519.3%" height="971.9%" filterUnits="objectBoundingBox" id="g"><feOffset dy="3" in="SourceAlpha" result="shadowOffsetOuter1"/><feGaussianBlur stdDeviation="2.5" in="shadowOffsetOuter1" result="shadowBlurOuter1"/><feColorMatrix values="0 0 0 0 0 0 0 0 0 0 0 0 0 0 0 0 0 0 0.35 0" in="shadowBlurOuter1"/></filter><path d="M3.88 2.865c.008-.09.02-.171.034-.245-.362.23-.5.656-.5.656-.175-1.24.308-1.944.308-1.944l.03-.054c.02-.035.045-.09.094-.152a1.971 1.971 0 01.506-.477c.13-.084.28-.171.456-.244a4.1 4.1 0 01.574-.197 5.5 5.5 0 01.654-.133c.228-.032.46-.054.694-.067a8.699 8.699 0 01.872.006l.093.008.084.013c.11.018.221.03.327.053a4.712 4.712 0 01.735.193l.128.05c.084.03.16.068.234.102.073.034.14.071.203.106.06.038.119.071.168.108.103.07.18.14.24.197a1.1 1.1 0 01.158.194c.075.03.144.062.21.094a2.064 2.064 0 01.342.156c.066.037.14.08.212.134a1.59 1.59 0 01.223.18c.037.034.073.07.107.109a.95.95 0 01.098.12l.046.064.039.068.038.069c.011.023.02.048.03.072l.028.073c.01.024.013.051.02.077.011.053.024.106.024.152l.003.071.001.018v.027l-.003.036-.012.141a7.724 7.724 0 01-.112.761 4.659 4.659 0 01-.119.473l-.05.588c.32.437.321 1.242.275 1.703-.054.528-.247 1.465-.762 1.777-.315 1.29-.997 2.42-2.21 2.965a2.485 2.485 0 01-2.03 0c-1.214-.545-1.896-1.675-2.21-2.965-.515-.312-.709-1.249-.762-1.777-.047-.46-.045-1.267.275-1.703a4.414 4.414 0 01.207-1.655zm6.594 7.458c.849.675 2.15.848 3.154 1.213.392.116 2.725 4.378.831 4.378H.732c-1.894 0 .439-4.262.83-4.378 1.005-.365 2.306-.538 3.155-1.213.464.638 1.013 1.186 1.753 1.471.57.22 1.682.22 2.251 0 .74-.285 1.289-.833 1.753-1.471z" id="b"/><path id="f" d="M19.949 7.484h4.293v2.065h-4.293z"/><path id="h" d="M.758 7.484h4.293v2.065H.758z"/><linearGradient x1="1.444%" y1="0%" x2="100%" y2="100%" id="a"><stop stop-color="#17EAD9" offset="0%"/><stop stop-color="#6078EA" offset="100%"/></linearGradient></defs><g transform="translate(2)" fill="none" fill-rule="evenodd"><g transform="translate(19.192 6.71)" stroke="url(#a)" stroke-width=".5"><rect x=".25" y=".25" width="5.308" height="3.41" rx=".431"/><path d="M1.921 3.91c-.016.239-.019.727-.03.851-.017.165-.055.211-.15.242-.079.026-.186.055-.23.069-.045.014-.059.023-.059.034a.02.02 0 000 .003c.002.014.256.052.38.052h2.144c.124 0 .378-.038.38-.052v-.003c0-.011-.014-.02-.058-.034-.045-.014-.152-.043-.23-.069-.096-.03-.134-.077-.15-.242-.012-.124-.015-.612-.031-.85M.686.719h4.437v2.159H.686z"/></g><g transform="translate(0 6.71)" stroke="url(#a)" stroke-width=".5"><rect x=".25" y=".25" width="5.308" height="3.41" rx=".431"/><path d="M1.921 3.91c-.016.239-.019.727-.03.851-.017.165-.055.211-.15.242-.079.026-.186.055-.23.069-.045.014-.059.023-.059.034a.02.02 0 000 .003c.002.014.256.052.38.052h2.144c.124 0 .378-.038.38-.052v-.003c0-.011-.014-.02-.058-.034-.045-.014-.152-.043-.23-.069-.096-.03-.134-.077-.15-.242-.012-.124-.015-.612-.031-.85M.686.719h4.437v2.159H.686z"/></g><path d="M7.144 9.728h10.645" stroke="url(#a)" stroke-width=".5"/><g transform="translate(5.05)"><mask id="d" fill="#fff"><use xlink:href="#b"/></mask><use fill="url(#a)" xlink:href="#b"/><ellipse fill="#242636" opacity=".5" filter="url(#c)" mask="url(#d)" cx="20.677" cy="6.452" rx="10.128" ry="10.323"/></g><circle fill="url(#a)" fill-rule="nonzero" cx="17.803" cy="9.677" r="1"/><circle fill="url(#a)" fill-rule="nonzero" cx="7.197" cy="9.677" r="1"/><use fill="#000" filter="url(#e)" xlink:href="#f"/><use fill="url(#a)" xlink:href="#f"/><use fill="#000" filter="url(#g)" xlink:href="#h"/><use fill="url(#a)" xlink:href="#h"/></g></svg>