<svg width="37" height="13" xmlns="http://www.w3.org/2000/svg" xmlns:xlink="http://www.w3.org/1999/xlink"><defs><radialGradient cx="19.082%" cy="42.136%" fx="19.082%" fy="42.136%" r="162.61%" gradientTransform="matrix(.55403 .543 -.35826 .83973 .236 -.036)" id="a"><stop stop-color="#EA4C5D" offset="0%"/><stop stop-color="#662C6A" offset="100%"/></radialGradient><radialGradient cx="19.082%" cy="42.136%" fx="19.082%" fy="42.136%" r="230.906%" gradientTransform="scale(.42226 1) rotate(22.482 .321 1.078)" id="b"><stop stop-color="#EA4C5D" offset="0%"/><stop stop-color="#662C6A" offset="100%"/></radialGradient><radialGradient cx="19.082%" cy="42.136%" fx="19.082%" fy="42.136%" r="192.172%" gradientTransform="scale(.52782 1) rotate(27.353 .276 .772)" id="c"><stop stop-color="#EA4C5D" offset="0%"/><stop stop-color="#662C6A" offset="100%"/></radialGradient><radialGradient cx="19.082%" cy="42.136%" fx="19.082%" fy="42.136%" r="663.776%" gradientTransform="matrix(.13572 .13302 -.01822 .99111 .173 -.022)" id="d"><stop stop-color="#EA4C5D" offset="0%"/><stop stop-color="#662C6A" offset="100%"/></radialGradient><radialGradient cx="19.082%" cy="42.136%" fx="19.082%" fy="42.136%" r="126.242%" gradientTransform="matrix(.71364 .69943 -.70051 .71254 .35 -.012)" id="e"><stop stop-color="#EA4C5D" offset="0%"/><stop stop-color="#662C6A" offset="100%"/></radialGradient><radialGradient cx="50%" cy="-49.156%" fx="50%" fy="-49.156%" r="125.63%" gradientTransform="matrix(0 -1 .47131 0 .732 .008)" id="h"><stop stop-color="#EA4C5D" offset="0%"/><stop stop-color="#662C6A" offset="100%"/></radialGradient><radialGradient cx="19.082%" cy="42.136%" fx="19.082%" fy="42.136%" r="126.147%" id="k"><stop stop-color="#EA4C5D" offset="0%"/><stop stop-color="#662C6A" offset="100%"/></radialGradient><filter x="-208.6%" y="-295%" width="517.1%" height="985%" filterUnits="objectBoundingBox" id="f"><feOffset dy="3" in="SourceAlpha" result="shadowOffsetOuter1"/><feGaussianBlur stdDeviation="2.5" in="shadowOffsetOuter1" result="shadowBlurOuter1"/><feColorMatrix values="0 0 0 0 0 0 0 0 0 0 0 0 0 0 0 0 0 0 0.35 0" in="shadowBlurOuter1"/></filter><filter x="-208.6%" y="-295%" width="517.1%" height="985%" filterUnits="objectBoundingBox" id="i"><feOffset dy="3" in="SourceAlpha" result="shadowOffsetOuter1"/><feGaussianBlur stdDeviation="2.5" in="shadowOffsetOuter1" result="shadowBlurOuter1"/><feColorMatrix values="0 0 0 0 0 0 0 0 0 0 0 0 0 0 0 0 0 0 0.35 0" in="shadowBlurOuter1"/></filter><path id="g" d="M.762 1.661h4.315v2.034H.762z"/><path id="j" d="M27.923 1.661h4.315v2.034h-4.315z"/></defs><g transform="translate(2)" fill="none" fill-rule="evenodd"><g transform="translate(0 4)"><g transform="translate(27.162 .898)" stroke-width=".5"><rect stroke="url(#a)" x=".25" y=".25" width="5.338" height="3.352" rx=".431"/><path d="M1.931 3.852c-.016.235-.019.717-.03.838-.017.163-.055.209-.15.239-.08.025-.188.054-.233.067-.044.014-.058.023-.058.034a.02.02 0 000 .003c.002.014.257.052.381.052h2.156c.125 0 .38-.038.382-.052V5.03c0-.01-.014-.02-.059-.034-.045-.013-.152-.042-.232-.067-.095-.03-.134-.076-.15-.239-.012-.121-.015-.603-.031-.838" stroke="url(#b)"/><path stroke="url(#c)" d="M.688.712h4.463v2.119H.688z"/></g><g transform="translate(0 .898)" stroke-width=".5"><rect stroke="url(#a)" x=".25" y=".25" width="5.338" height="3.352" rx=".431"/><path d="M1.931 3.852c-.016.235-.019.717-.03.838-.017.163-.055.209-.15.239-.08.025-.188.054-.233.067-.044.014-.058.023-.058.034a.02.02 0 000 .003c.002.014.257.052.381.052h2.156c.125 0 .38-.038.382-.052V5.03c0-.01-.014-.02-.059-.034-.045-.013-.152-.042-.232-.067-.095-.03-.134-.076-.15-.239-.012-.121-.015-.603-.031-.838" stroke="url(#b)"/><path stroke="url(#c)" d="M.688.712h4.463v2.119H.688z"/></g><path d="M21.83 3.95h3.714m-17.929 0h3.713" stroke="url(#d)" stroke-width=".5"/><circle fill="url(#e)" fill-rule="nonzero" cx="25.765" cy="3.822" r="1"/><circle fill="url(#e)" fill-rule="nonzero" cx="7.235" cy="3.822" r="1"/><use fill="#000" filter="url(#f)" xlink:href="#g"/><use fill="#202B44" xlink:href="#g"/><use fill="url(#h)" xlink:href="#g"/><use fill="#000" filter="url(#i)" xlink:href="#j"/><use fill="#202B44" xlink:href="#j"/><use fill="url(#h)" xlink:href="#j"/></g><rect fill="url(#k)" fill-rule="nonzero" x="11" width="11" height="11" rx="2"/><rect stroke="#842159" stroke-width=".5" x="14.25" y="3.25" width="4.5" height="4.5" rx="1"/></g></svg>