<svg width="700" height="600" xmlns="http://www.w3.org/2000/svg"><defs><filter x="-7.5%" y="-68.9%" width="115.1%" height="237.7%" filterUnits="objectBoundingBox" id="a"><feGaussianBlur stdDeviation="10.561" in="SourceGraphic"/></filter><filter x="-9.2%" y="-121.5%" width="118.5%" height="342.9%" filterUnits="objectBoundingBox" id="b"><feGaussianBlur stdDeviation="8.097" in="SourceGraphic"/></filter><filter x="-6.9%" y="-76.6%" width="113.8%" height="253.2%" filterUnits="objectBoundingBox" id="c"><feGaussianBlur stdDeviation="12" in="SourceGraphic"/></filter><filter x="-6.9%" y="-76.6%" width="113.8%" height="253.2%" filterUnits="objectBoundingBox" id="d"><feGaussianBlur stdDeviation="12" in="SourceGraphic"/></filter><filter x="-72%" y="-12.4%" width="244%" height="124.8%" filterUnits="objectBoundingBox" id="e"><feGaussianBlur stdDeviation="12" in="SourceGraphic"/></filter><filter x="-72%" y="-12.4%" width="244%" height="124.8%" filterUnits="objectBoundingBox" id="f"><feGaussianBlur stdDeviation="12" in="SourceGraphic"/></filter></defs><g transform="translate(60 64)" fill="none" fill-rule="evenodd"><g transform="translate(80 426)" fill="#000" fill-rule="nonzero"><ellipse opacity=".2" filter="url(#a)" cx="210.5" cy="23" rx="210.5" ry="23"/><ellipse opacity=".3" filter="url(#b)" cx="210.5" cy="23" rx="131.5" ry="10"/></g><path d="M232.072 390c-.955 11.849-1.153 36.402-1.863 42.533-.95 8.2-3.23 10.49-8.926 12.015-4.721 1.263-11.116 2.714-13.781 3.402-2.666.689-3.502 1.154-3.502 1.684.13.863 15.308 2.766 22.707 2.766h128.286c7.397 0 22.575-1.903 22.69-2.61.017-.686-.82-1.151-3.485-1.84-2.666-.688-9.06-2.14-13.782-3.402-5.697-1.526-7.975-3.815-8.925-12.015-.71-6.131-.908-30.684-1.865-42.533" fill="#141620"/><rect fill="#69BBD4" fill-rule="nonzero" opacity=".156" filter="url(#c)" x="29" y="343" width="522" height="47" rx="23.5"/><rect fill="#69BBD4" fill-rule="nonzero" opacity=".156" filter="url(#d)" x="29" width="522" height="47" rx="23.5"/><rect fill="#69BBD4" fill-rule="nonzero" opacity=".156" filter="url(#e)" y="29" width="50" height="290" rx="23.5"/><rect fill="#69BBD4" fill-rule="nonzero" opacity=".156" filter="url(#f)" x="530" y="29" width="50" height="290" rx="23.5"/><path d="M566.928 0H13.072C5.863 0 0 5.736 0 12.786v364.427C0 384.263 5.863 390 13.072 390h553.855c7.21 0 13.073-5.737 13.073-12.787V12.786C580 5.736 574.137 0 566.928 0zM29 319h522V29H29v290z" fill="#141620"/><path fill="#000" fill-rule="nonzero" d="M29 29h522v290H29z"/></g></svg>