<svg width="700" height="600" xmlns="http://www.w3.org/2000/svg"><defs><filter x="-10.4%" y="-68.9%" width="120.8%" height="237.7%" filterUnits="objectBoundingBox" id="a"><feGaussianBlur stdDeviation="10.561" in="SourceGraphic"/></filter><filter x="-11.5%" y="-121.5%" width="123%" height="342.9%" filterUnits="objectBoundingBox" id="b"><feGaussianBlur stdDeviation="8.097" in="SourceGraphic"/></filter><filter x="-72%" y="-11.4%" width="244%" height="122.8%" filterUnits="objectBoundingBox" id="c"><feGaussianBlur stdDeviation="12" in="SourceGraphic"/></filter><filter x="-72%" y="-11.4%" width="244%" height="122.8%" filterUnits="objectBoundingBox" id="d"><feGaussianBlur stdDeviation="12" in="SourceGraphic"/></filter><filter x="-20.5%" y="-116.1%" width="140.9%" height="332.3%" filterUnits="objectBoundingBox" id="e"><feGaussianBlur stdDeviation="12" in="SourceGraphic"/></filter></defs><g transform="translate(198 64)" fill="none" fill-rule="evenodd"><g transform="translate(0 426)" fill="#000" fill-rule="nonzero"><ellipse opacity=".204" filter="url(#a)" cx="152" cy="23" rx="152" ry="23"/><ellipse opacity=".6" filter="url(#b)" cx="151.5" cy="23" rx="105.5" ry="10"/></g><rect fill="#69BBD4" fill-rule="nonzero" opacity=".156" filter="url(#c)" x="43" y="69" width="50" height="316" rx="23.5"/><rect fill="#69BBD4" fill-rule="nonzero" opacity=".156" filter="url(#d)" x="209" y="69" width="50" height="316" rx="23.5"/><rect fill="#69BBD4" fill-rule="nonzero" opacity=".156" filter="url(#e)" x="63" width="176" height="31" rx="15.5"/><path d="M225.956 0H76.332C58.042 0 43 14.24 43 32.54v387.521C43 438.359 58.043 454 76.332 454h149.656C244.28 454 259 438.359 259 420.061V32.541C259 14.24 244.247 0 225.956 0zM63 385h176V69H63v316z" fill="#141620"/><path d="M151 437c-6.075 0-11-4.927-11-11 0-6.075 4.925-11 11-11 6.072 0 11 4.925 11 11 0 6.073-4.928 11-11 11M133.637 32h34.723c2.01 0 3.64 1.134 3.64 3 0 1.869-1.63 3-3.64 3h-34.723C131.63 38 130 36.869 130 35c0-1.866 1.63-3 3.637-3" fill-opacity=".15" fill="#FFF"/><path fill="#1C1E2D" fill-rule="nonzero" d="M63 69h176v316H63z"/></g></svg>