<svg width="700" height="600" xmlns="http://www.w3.org/2000/svg"><defs><filter x="-7.1%" y="-68.9%" width="114.2%" height="237.7%" filterUnits="objectBoundingBox" id="a"><feGaussianBlur stdDeviation="10.561" in="SourceGraphic"/></filter><filter x="-6.5%" y="-121.5%" width="113%" height="342.9%" filterUnits="objectBoundingBox" id="b"><feGaussianBlur stdDeviation="8.097" in="SourceGraphic"/></filter><filter x="-72%" y="-9.8%" width="244%" height="119.6%" filterUnits="objectBoundingBox" id="c"><feGaussianBlur stdDeviation="12" in="SourceGraphic"/></filter><filter x="-72%" y="-9.8%" width="244%" height="119.6%" filterUnits="objectBoundingBox" id="d"><feGaussianBlur stdDeviation="12" in="SourceGraphic"/></filter><filter x="-12.7%" y="-90%" width="125.4%" height="280%" filterUnits="objectBoundingBox" id="e"><feGaussianBlur stdDeviation="12" in="SourceGraphic"/></filter></defs><g transform="translate(127 64)" fill="none" fill-rule="evenodd"><g transform="translate(0 426)" fill="#000" fill-rule="nonzero"><ellipse opacity=".204" filter="url(#a)" cx="223.5" cy="23" rx="223.5" ry="23"/><ellipse opacity=".6" filter="url(#b)" cx="222.5" cy="23" rx="186.5" ry="10"/></g><rect fill="#69BBD4" fill-rule="nonzero" opacity=".156" filter="url(#c)" x="348" y="43" width="50" height="368" rx="23.5"/><rect fill="#69BBD4" fill-rule="nonzero" opacity=".156" filter="url(#d)" x="46" y="43" width="50" height="368" rx="23.5"/><rect fill="#69BBD4" fill-rule="nonzero" opacity=".156" filter="url(#e)" x="80" width="284" height="40" rx="20"/><path d="M60.394 0h323.21C391.545 0 398 6.464 398 14.414V439.58c0 7.95-6.456 14.42-14.395 14.42H60.394C52.456 454 46 447.53 46 439.58V14.414C46 6.464 52.456 0 60.394 0zM80 411h284V43H80v368z" fill="#141620"/><path d="M222.001 18a4 4 0 11-.001 7.999A4 4 0 01222 18m0 423a8 8 0 01-8-8c0-4.416 3.582-8 8-8s8 3.584 8 8a8 8 0 01-8 8" fill-opacity=".15" fill="#FFF"/><path fill="#1C1E2D" fill-rule="nonzero" d="M80 43h284v368H80z"/></g></svg>