<svg xmlns="http://www.w3.org/2000/svg" fill="none" viewBox="0 0 1310 60"><g clip-path="url(#clip0)"><path fill="#0E0E0E" d="M0 0h1310v60H0z"/><path fill="url(#paint0_linear)" fill-rule="evenodd" d="M0 95V20.764s318.769-14.722 535.512-8.345c200.488 5.789 370.789 4.934 470.728 0C1106.17 7.484 1247.38-1 1366-1v96H0z" clip-rule="evenodd" opacity=".7"/><path fill="url(#paint1_linear)" fill-rule="evenodd" d="M1366 94V58.167s-188.26-15.076-496.818-11.053c-251.325 5.164-356.989 2.332-465.862-2.551-77.341-3.469-131.321-7.093-194.57-10.194C154.188 31.694 85.412 30 0 30v64h1366z" clip-rule="evenodd"/><path fill="#404147" d="M0 59h1310v1H0z"/></g><defs><linearGradient id="paint0_linear" x1="1161.68" x2="1161.68" y1="34.13" y2="14.336" gradientUnits="userSpaceOnUse"><stop stop-color="#404147"/><stop offset="1" stop-color="#333"/></linearGradient><linearGradient id="paint1_linear" x1="-49.564" x2="-49.564" y1="83.013" y2="44.923" gradientUnits="userSpaceOnUse"><stop/><stop offset="1" stop-color="#404147"/></linearGradient><clipPath id="clip0"><path fill="#fff" d="M0 0h1310v60H0z"/></clipPath></defs></svg>