<?xml version="1.0" standalone="no"?>
<!DOCTYPE svg PUBLIC "-//W3C//DTD SVG 1.1//EN" "http://www.w3.org/Graphics/SVG/1.1/DTD/svg11.dtd" >
<svg xmlns="http://www.w3.org/2000/svg">
<metadata>Generated by IcoMoon</metadata>
<defs>
<font id="ubnt" horiz-adv-x="1024">
<font-face units-per-em="1024" ascent="960" descent="-64" />
<missing-glyph horiz-adv-x="1024" />
<glyph unicode="&#x20;" horiz-adv-x="512" d="" />
<glyph unicode="&#xe600;" glyph-name="dolly" d="M760.894 173.196c-3.396 17.342-20.202 28.654-37.552 25.256l-290.33-56.838-139.91 715.718c-1.628 8.33-6.5 15.672-13.542 20.412s-15.68 6.482-24.010 4.854l-108.45-21.232c-17.344-3.396-28.65-20.208-25.256-37.552 3.396-17.344 20.21-28.658 37.552-25.254l77.036 15.082 133.91-685.020c-20.5-12.696-32.064-37.156-27.156-62.22 6.334-32.35 37.692-53.44 70.040-47.106 29.874 5.848 50.128 33.040 48.068 62.644l274.344 53.708c17.344 3.392 28.652 20.204 25.256 37.548zM470.61 195.108l-51.104 261.042 431.802 84.536 51.106-261.044-431.804-84.534zM475.834 418.268l32.662-166.832 337.59 66.088-32.66 166.834-337.592-66.090zM410.668 501.294l-51.104 261.046 431.802 84.534 51.106-261.044-431.804-84.536zM415.892 724.456l32.662-166.832 337.59 66.090-32.66 166.832-337.592-66.090z" />
<glyph unicode="&#xe601;" glyph-name="UniFi-Appliance" horiz-adv-x="914" d="M220.4 469.8c-15.8 0-30.6-7.4-40-20.2h-0.4l3.4 16.6h-26.8l-29.6-140.4h28l20.2 94.2c4 18.2 16.8 27.2 28.2 27.2 14.2 0 17.8-7 14.2-25.2l-20.6-96.4h28.2l22.6 106c5.6 28.8-5.8 38.2-27.4 38.2zM232.4 537.4v0c16.2 21.8 42.8 41 95.6 40.8l5.4 24.6c-62 2-100.4-21.8-120.8-51.2-16.2-22.6-22.2-47.2-24.6-64.6h25c2.4 14.8 7.8 34 19.4 50.4zM349.4 435.4l11 52h65.4l5.8 24.8h-95.4l-39.8-186.4h29.8l18 84.8h65.8l5 24.8zM276 466.2l-29.8-140.4h28.4l29.6 140.4zM278.6 487.4h29.6l5.4 25c-15.4-1.4-24.2-8-30.4-16.8-1.8-3.2-3.2-5.2-4.6-8.2zM413.6 325.8h28l30 140.4h-28.2zM114.8 512v0l-28.6-133.4c-5-23.6-16.8-34-34.4-34-18.2 0-25 10.4-20.2 34l28.6 133.6h-30l-28-131.4c-9-43 9-58.8 45-58.8 35.4 0 60.2 15.8 69.4 58.6l28 131.4h-29.8zM220.4 469.8v0 0zM324 559.6c-38-1-63-16.8-76.4-36-8.8-12.4-13.4-25.2-15.8-36.4h25.6c2 7 5.4 15.2 10.2 21.8 9 12.4 23.2 23.2 50.8 25.6l5.6 25zM531.8 492.6c0 12-8.6 19.6-19.2 19.6-10.4 0-19.2-7.8-19.2-19.6 0-11.2 8-19.6 19.2-19.6 10.2 0 19.2 7.8 19.2 19.6zM512.6 476.6c-9.4 0-15.2 7.4-15.2 16.2 0 9.4 6.8 16.2 15.2 16.2s14.8-6.8 14.8-16.2c0.4-9.4-6.4-16.2-14.8-16.2zM453 512.2l-5.8-25h26.6c-0.2 20.6-20.8 25-20.8 25zM521.4 497.2c0 4.4-2.6 6-7.8 6h-8v-21.6h3.8v9h3.4l5.8-9h4l-6 9.4c2.4 0.4 4.8 2 4.8 6.2zM509 493.8v6.4h4.4c2 0 4.8-0.4 4.8-3 0-3-2.4-3.4-5-3.4h-4.2zM900.2 435.4h-363.8c-5.8 0-10.6-25-10.6-55.6 0-30.8 4.8-55.6 10.6-55.6h363.8c5.8 0 13.8 24.8 13.8 55.6 0 30.6-8 55.6-13.8 55.6zM576.2 349.6l-3.8 14.8h-17.6l-3.8-14.8h-10l17 60.4h12.4l16-60.4h-10.2zM608.4 374.6h-8.4v-25h-9.6v60.4h19.2c11.6 0 16.6-7.2 16.6-17.6-0.2-10.8-6.4-17.8-17.8-17.8zM648.6 374.6h-8.4v-25h-9.6v60.4h19.2c11.6 0 16.6-7.2 16.6-17.6-0.2-10.8-6.4-17.8-17.8-17.8zM704.6 349.6h-33v60.4h9.6v-52.2h23.4v-8.2zM717.4 349.6h-8.4v60.4h9.6l-1.2-60.4zM757.6 349.6l-3.8 14.8h-17.6l-3.8-14.8h-10l17.2 60.4h12.4l16-60.4h-10.4zM810.4 349.6h-11.8l-17.6 46.2h-0.2v-46.2h-9.2v60.4h11.8l17.6-45h0.2v45h9.2v-60.4zM855.4 370c0-11-4.4-21.6-18.6-21.6-15.2 0-20 9.8-20 31.4s4.8 31.4 20 31.4c17.2 0 18.2-12.6 18.2-19v-1.2h-9.6v1c0 5.6-1.6 12-8.6 11.8-7.2 0-10.4-4.4-10.4-23.8s3.2-24.4 10.4-24.4c8 0 9 9 9 14.6v1h9.6v-1.2zM895.4 349.6h-33.4v60.4h32.6v-8.2h-23v-16.8h21.6v-8.2h-21.6v-19.2h23.6v-8zM646.4 402.8h-6.2v-20.8h6.8c5.2 0 9.6 2.8 9.6 10.4 0 6.4-2.6 10.4-10.2 10.4zM606.2 402.8h-6.2v-20.8h6.8c5.2 0 9.6 2.8 9.6 10.4 0 6.4-2.6 10.4-10.2 10.4zM745.2 401.8l-7.2-29.8h14.2l-6.8 29.8zM563.6 401.8l-7.2-29.8h14.4l-7 29.8z" />
<glyph unicode="&#xe602;" glyph-name="play-2" d="M512.2-62.4c-136.8 0-265.4 53.2-362.2 150s-150 225.4-150 362.2 53.2 265.4 150 362.2 225.4 150 362.2 150 265.4-53.2 362.2-150 150-225.4 150-362.2-53.2-265.4-150-362.2-225.4-150-362.2-150zM512.2 927c-127.4 0-247.2-49.6-337.4-139.8s-139.8-210-139.8-337.4 49.6-247.2 139.8-337.4 210-139.8 337.4-139.8 247.2 49.6 337.4 139.8 139.8 210 139.8 337.4-49.6 247.2-139.8 337.4-210 139.8-337.4 139.8zM337.2 170.8v572.6l495.8-286.2-495.8-286.4zM372.4 682.4v-450.6l390.2 225.4-390.2 225.2z" />
<glyph unicode="&#xe603;" glyph-name="day" d="M206.6 439.2c0-8 0.2-15.8 0.8-23.6 0.4-5.2 1-10.4 1.6-15.4 0.6-5.2 1.4-10.2 2.4-15.2 0.8-5 2-10 3-15 1.2-5 2.4-9.8 3.8-14.6s2.8-9.6 4.4-14.4c2.2-6.6 4.6-13 7.2-19.2l-181.8-105.2 39.6-68.6 181.8 105.2c4-5.4 8.4-10.6 12.8-15.6s9-10 13.8-14.8c8.6-8.6 17.8-16.8 27.4-24.4 2-1.6 3.8-3 5.8-4.4 4-3 8-5.8 12-8.6s8.2-5.4 12.4-8c4.2-2.6 8.4-5 12.8-7.4 1.6-0.8 3.2-1.8 4.8-2.6l-71.8-197.8 74.4-27.2 71.8 197.8 4.8-1c5-1 10-2 15-2.6 5-0.8 10.2-1.4 15.2-2 10.2-1 20.6-1.6 31.2-1.6 22.8 0 45 2.6 66.4 7.2l71.8-197.8 74.4 27.2-71.8 197.8c6 3.2 11.8 6.4 17.6 10 4.2 2.6 8.4 5.2 12.4 8 6 4.2 12 8.4 17.8 13 9.6 7.6 18.8 15.8 27.4 24.4 9.4 9.6 18.4 19.6 26.6 30.4l181.8-105.2 39.6 68.6-181.8 105.2c4.6 11 8.4 22.2 11.8 33.6 1.4 4.8 2.6 9.8 3.8 14.6 1.2 5 2.2 10 3 15s1.6 10 2.4 15.2c0.6 5.2 1.2 10.2 1.6 15.4 0.6 7.8 0.8 15.6 0.8 23.6 0 4.6-0.2 9.2-0.4 13.6l207 36.6-13.8 78-206.8-36.6c-6.4 20.8-15.2 40.6-25.6 59-1.6 2.6-3 5.2-4.6 7.8-1.2 2.2-2.6 4.2-4 6.2-6.6 10.4-13.8 20.2-21.6 29.8-1.6 1.8-3.2 3.8-4.8 5.6-2 2.2-4 4.4-6 6.8l135.2 161.6-60.6 51-135-161.2c-2 1.2-4 2.6-6 3.8-18.8 11.6-39.2 21-60.4 28.2-4.8 1.6-9.6 3-14.4 4.4-14.2 4-29 7.2-44 9v210.6h-79.2v-210.4c-2.4-0.4-4.6-0.6-7-1-5-0.8-10-1.6-15-2.6s-9.8-2.2-14.8-3.4c-2.4-0.6-4.8-1.2-7.2-2-3.6-1-7.2-2.2-10.8-3.2-10.8-3.4-21.2-7.6-31.2-12.2-6.8-3-13.4-6.4-19.8-10-4.4-2.4-8.6-4.8-12.8-7.4-2-1.2-4-2.4-6-3.8l-135 161.2-60.8-51 135-161.2c-6.8-7.4-13.2-15.2-19.2-23.2s-11.8-16.4-17-25c-3.2-5.2-6.2-10.6-9-16-8.6-16.2-15.6-33.2-21.2-51l-206.8 36.4-13.8-78 206.8-36.6c-0.2-4.6-0.2-9.2-0.2-13.8v0zM299.4 517.2c9.2 24.8 22.4 47.8 39.2 67.6 17 20.4 37.6 37.6 60.6 51 22.4 13 47 22.2 73.4 26.8 12.8 2.2 26 3.6 39.6 3.6s26.8-1.2 39.6-3.6c26.2-4.6 51-13.8 73.4-26.8 23-13.4 43.6-30.6 60.6-51 16.6-20 30-42.8 39.2-67.6 8.8-24.2 13.8-50.6 13.8-77.8v-0.2c0-27-4.8-53-13.6-77-9.2-25.2-22.8-48.4-39.6-68.6-16.8-20-37-37-59.8-50.2-22.6-13.2-47.6-22.6-74.4-27.2-12.6-2.2-25.8-3.4-39-3.4s-26.4 1.2-39 3.4c-26.6 4.6-51.8 14-74.4 27.2-22.8 13.2-43 30.2-59.8 50.2-17 20.2-30.6 43.4-39.6 68.6-8.8 24-13.6 50-13.6 77v0.2c-0.4 27.2 4.4 53.4 13.4 77.8z" />
<glyph unicode="&#xe604;" glyph-name="droplet" d="M512 841.8c33.8-45.2 78.8-107.6 123.4-175.4 51.2-78 91.8-148 120.8-208 43.4-90 49.8-136.6 49.8-156.4 0-78.6-30.6-152.4-86-207.8-55.6-55.6-129.4-86-207.8-86s-152.4 30.6-207.8 86c-55.6 55.6-86 129.4-86 207.8 0 19.8 6.4 66.4 49.8 156.4 28.8 60 69.4 130 120.8 208 44.2 67.8 89.2 130.2 123 175.4zM512 960c0 0-365.8-456-365.8-658.2s163.6-365.8 365.8-365.8 365.8 163.8 365.8 365.8-365.8 658.2-365.8 658.2v0z" />
<glyph unicode="&#xe605;" glyph-name="lightning-bolt" d="M576.2 727.6l-0.2-0.4-86.4-237.6h235l-276.4-322 62.8 173.2 23.4 64.4h-234.8l276.6 322.4zM711 958.4l-516-601.2h270.8l-62.8-173.2-90-247.6 516 601.2h-270.8l63 173.2 89.8 247.6z" />
<glyph unicode="&#xe606;" glyph-name="thermometer-mid" d="M622.2 133.6c-1 2.4-2.2 5-3.4 7.4-5.4 10.8-12.4 20.8-20.4 29.8-1.8 2-3.6 4-5.4 5.8-2.8 2.8-5.8 5.6-8.8 8.2-2 1.8-4.2 3.4-6.2 5v686.4c0 7.2-1 14.2-2.6 21-0.6 2.6-1.6 5.4-2.4 7.8-1 2.6-2 5-3.2 7.6-3 6.2-6.6 11.8-10.8 17s-9.2 9.8-14.6 13.8c-1 0.8-2.2 1.6-3.2 2.4-6.6 4.6-14 8-22 10.6-2.6 0.8-5.4 1.6-8 2-5.8 1-11.4 1.6-17.2 1.6h-2c-7.2 0-14.2-1-21-2.6-10.8-2.8-20.6-7.6-29.2-14-3.2-2.4-6.2-5-9.2-7.8-6.6-6.6-12.2-14.4-16.2-23-1.2-2.4-2.2-5-3.2-7.6s-1.8-5.2-2.4-7.8c-1.8-6.6-2.6-13.8-2.6-21v-686.6c-2.2-1.6-4.2-3.2-6.2-5-1-0.8-2-1.8-3-2.6-2.4-2.2-4.8-4.6-7.2-7-0.8-1-1.8-1.8-2.6-2.8-1.4-1.4-2.8-3-4-4.6-2.6-3-5-6.2-7.4-9.6-0.8-1-1.6-2.2-2.2-3.4-1.4-2.2-2.8-4.6-4.2-6.8-1.4-2.4-2.6-4.6-3.8-7-0.8-1.6-1.6-3.2-2.4-4.8-1.6-3.2-3-6.6-4.2-10-1-2.6-1.8-5.2-2.6-7.8-4-13-6.2-27-6.2-41.4 0-77.8 63.2-141 141-141s141 63.2 141 141c-0.2 20.4-4.4 39.4-12 56.8zM493-32c-60.2 0-109 48.8-109 109 0 34.6 15.8 66.2 43.4 87l12.8 9.6v702.6c0 28.6 23.2 51.8 51.8 51.8h2c28.6 0 51.8-23.2 51.8-51.8v-702.6l12.8-9.6c27.6-20.8 43.4-52.6 43.4-87 0-60.2-48.8-109-109-109zM522.8 153.6v338.2c0 16.4-13.2 29.6-29.6 29.6h-0.6c-16.4 0-29.6-13.2-29.6-29.6v-338.2c-30.6-12-52.4-41.8-52.4-76.6 0-45.4 36.8-82.2 82.2-82.2s82.2 36.8 82.2 82.2c0.2 34.8-21.6 64.6-52.2 76.6z" />
<glyph unicode="&#xe607;" glyph-name="thermometer-low" d="M622.2 133.6c-1 2.4-2.2 5-3.4 7.4-5.4 10.8-12.4 20.8-20.4 29.8-1.8 2-3.6 4-5.4 5.8-2.8 2.8-5.8 5.6-8.8 8.2-2 1.8-4.2 3.4-6.2 5v686.4c0 7.2-1 14.2-2.6 21-0.6 2.6-1.6 5.4-2.4 7.8-1 2.6-2 5-3.2 7.6-3 6.2-6.6 11.8-10.8 17s-9.2 9.8-14.6 13.8c-1 0.8-2.2 1.6-3.2 2.4-6.6 4.6-14 8-22 10.6-2.6 0.8-5.4 1.6-8 2-5.8 1-11.4 1.6-17.2 1.6h-2c-7.2 0-14.2-1-21-2.6-10.8-2.8-20.6-7.6-29.2-14-3.2-2.4-6.2-5-9.2-7.8-6.6-6.6-12.2-14.4-16.2-23-1.2-2.4-2.2-5-3.2-7.6s-1.8-5.2-2.4-7.8c-1.8-6.6-2.6-13.8-2.6-21v-686.6c-2.2-1.6-4.2-3.2-6.2-5-1-0.8-2-1.8-3-2.6-2.4-2.2-4.8-4.6-7.2-7-0.8-1-1.8-1.8-2.6-2.8-1.4-1.4-2.8-3-4-4.6-2.6-3-5-6.2-7.4-9.6-0.8-1-1.6-2.2-2.2-3.4-1.4-2.2-2.8-4.6-4.2-6.8-1.4-2.4-2.6-4.6-3.8-7-0.8-1.6-1.6-3.2-2.4-4.8-1.6-3.2-3-6.6-4.2-10-1-2.6-1.8-5.2-2.6-7.8-4-13-6.2-27-6.2-41.4 0-77.8 63.2-141 141-141s141 63.2 141 141c-0.2 20.4-4.4 39.4-12 56.8zM493-32c-60.2 0-109 48.8-109 109 0 34.6 15.8 66.2 43.4 87l12.8 9.6v702.6c0 28.6 23.2 51.8 51.8 51.8h2c28.6 0 51.8-23.2 51.8-51.8v-702.6l12.8-9.6c27.6-20.8 43.4-52.6 43.4-87 0-60.2-48.8-109-109-109zM522.8 153.6v118.2c0 16.4-13.2 29.6-29.6 29.6h-0.6c-16.4 0-29.6-13.2-29.6-29.6v-118.2c-30.6-12-52.4-41.8-52.4-76.6 0-45.4 36.8-82.2 82.2-82.2s82.2 36.8 82.2 82.2c0.2 34.8-21.6 64.6-52.2 76.6z" />
<glyph unicode="&#xe608;" glyph-name="thermometer-high" d="M622.2 133.6c-1 2.4-2.2 5-3.4 7.4-5.4 10.8-12.4 20.8-20.4 29.8-1.8 2-3.6 4-5.4 5.8-2.8 2.8-5.8 5.6-8.8 8.2-2 1.8-4.2 3.4-6.2 5v686.4c0 7.2-1 14.2-2.6 21-0.6 2.6-1.6 5.4-2.4 7.8-1 2.6-2 5-3.2 7.6-3 6.2-6.6 11.8-10.8 17s-9.2 9.8-14.6 13.8c-1 0.8-2.2 1.6-3.2 2.4-6.6 4.6-14 8-22 10.6-2.6 0.8-5.4 1.6-8 2-5.8 1-11.4 1.6-17.2 1.6h-2c-7.2 0-14.2-1-21-2.6-10.8-2.8-20.6-7.6-29.2-14-3.2-2.4-6.2-5-9.2-7.8-6.6-6.6-12.2-14.4-16.2-23-1.2-2.4-2.2-5-3.2-7.6s-1.8-5.2-2.4-7.8c-1.8-6.6-2.6-13.8-2.6-21v-686.6c-2.2-1.6-4.2-3.2-6.2-5-1-0.8-2-1.8-3-2.6-2.4-2.2-4.8-4.6-7.2-7-0.8-1-1.8-1.8-2.6-2.8-1.4-1.4-2.8-3-4-4.6-2.6-3-5-6.2-7.4-9.6-0.8-1-1.6-2.2-2.2-3.4-1.4-2.2-2.8-4.6-4.2-6.8-1.4-2.4-2.6-4.6-3.8-7-0.8-1.6-1.6-3.2-2.4-4.8-1.6-3.2-3-6.6-4.2-10-1-2.6-1.8-5.2-2.6-7.8-4-13-6.2-27-6.2-41.4 0-77.8 63.2-141 141-141s141 63.2 141 141c-0.2 20.4-4.4 39.4-12 56.8zM493-32c-60.2 0-109 48.8-109 109 0 34.6 15.8 66.2 43.4 87l12.8 9.6v702.6c0 28.6 23.2 51.8 51.8 51.8h2c28.6 0 51.8-23.2 51.8-51.8v-702.6l12.8-9.6c27.6-20.8 43.4-52.6 43.4-87 0-60.2-48.8-109-109-109zM522.8 153.6v716.8c0 16.4-13.2 29.6-29.6 29.6h-0.6c-16.4 0-29.6-13.2-29.6-29.6v-716.8c-30.6-12-52.4-41.8-52.4-76.6 0-45.4 36.8-82.2 82.2-82.2s82.2 36.8 82.2 82.2c0.2 34.8-21.6 64.6-52.2 76.6z" />
<glyph unicode="&#xe609;" glyph-name="user-legacy" d="M668 358.8c47.2 42.2 77 103.4 77 171.2 0 127.2-104.4 230.8-232.8 230.8s-232.8-103.6-232.8-230.8c0-67.8 29.8-129 77-171.2-45.4-43.6-85-106.6-114.6-182.4l43.8-41.6c25.6 65.4 59.6 119.4 98.2 156.4 11.2 10.8 22.6 20 34.4 27.6 28.8-12.6 60.8-19.8 94.2-19.8s65.4 7 94.2 19.8c11.6-7.8 23.2-17 34.4-27.6 38.6-37 72.6-91.2 98.2-156.4l43.8 41.6c-30 75.8-69.8 138.8-115 182.4v0zM359.6 530.2c0 83.4 68.4 151 152.4 151s152.4-67.8 152.4-151c0-83.4-68.4-151-152.4-151s-152.4 67.6-152.4 151v0z" />
<glyph unicode="&#xe60a;" glyph-name="bulb" d="M512 839.6c75 0 145.2-28.6 198.2-80.4 52.6-51.6 81.6-120 81.6-192.6 0-53-15.6-104.2-45-148.4-28.8-43.2-69.2-77.6-117.2-99.2l-32.8-15v-136h-169.6v135.8l-32.8 15c-47.8 21.6-88.4 56-117.2 99.2-29.4 44.2-45 95.4-45 148.4 0 72.8 29 141.2 81.6 192.6 52.8 52 123.2 80.6 198.2 80.6zM512 895.6c-185.4 0-335.6-147.4-335.6-329 0-132.4 79.8-246.6 194.8-298.8v-155.8h281.6v155.6c115 52.2 194.6 166.2 194.6 298.6 0.2 182-150 329.4-335.4 329.4v0zM384.4 79.4h254.6v-30.6h-254.6v30.6zM415.8 31.4h193.4v-30.6h-193.4v30.6z" />
<glyph unicode="&#xe60b;" glyph-name="header-maximize" d="M695.8 688.4l-614.2-614v319.4h-81.6v-457.8h454.2v81.6h-315.8l614 614.2zM156 960v-64h804v-806h64v870z" />
<glyph unicode="&#xe60c;" glyph-name="energy-savings" d="M396 217.8h231.6v-27.8h-231.6v27.8zM424.6 174h175.8v-27.8h-175.8v27.8zM512 960c-168.6 0-305.2-134-305.2-299.2 0-120.4 72.6-224.4 177.2-271.6v-141.6h256v141.6c104.6 47.4 177 151.2 177 271.6 0.2 165.2-136.4 299.2-305 299.2zM725.6 525.8c-26.2-39.4-63-70.6-106.6-90.2l-29.8-13.6v-123.6h-154.2v123.6l-29.8 13.6c-43.4 19.6-80.4 51-106.6 90.2-26.8 40.2-41 86.8-41 135 0 66.2 26.4 128.4 74.2 175.2 48 47.2 112 73.2 180.4 73.2 68.2 0 132-26 180.2-73.2 47.8-47 74.2-109 74.2-175.2 0-48.2-14.2-94.8-41-135zM535.8 679.6l6.4 93c25.2-3.6 38.6-18.8 45.8-18.8 3.2 0 6.4 2 8.8 5.8l8.2 12.6c-15.4 14.8-34 26.2-61 29.4l2.6 38h-12.6c-5.6 0-9-4.6-9.6-9.4l-2-27.6c-53-2.2-82.6-37.8-82.6-75.6 0-49.8 36.6-63.2 72.4-74l-7.2-102c-34.8 4-48.4 27-58 27-3.6 0-7.4-2-9-4.8l-10.2-15.8c18.4-19.2 44.4-32.2 75.4-35.2l-2.8-43.4h12.6c5.4 0 9 4.4 9.6 9.2l2.4 33.8c54.8 3 86.2 40.4 86.2 86.2 0 47.6-38.8 60.4-75.4 71.6zM514.6 686.6c-23.8 8-42.4 19.6-42.4 44 0 21 15 39.6 48.2 42.6l-5.8-86.6zM526.8 551l6.6 95.8c25.2-8.2 45.4-18.2 45.4-43.8 0-28.6-18.4-48.8-52-52zM526.6-11v136.2h-27.4v-136.2l-76.2 77.8-19.4-19.2 109.4-111.6 109.4 111.6-19.6 19.2z" />
<glyph unicode="&#xe60d;" glyph-name="header-minimize" d="M298.2 606.8h316l-614.2-614 56.8-56.8 614 614.2v-319.6l81.6-0.8v458.6h-454.2zM156 960v-64h804v-806h64v870z" />
<glyph unicode="&#xe60e;" glyph-name="airOSX-billing" horiz-adv-x="1762" d="M425 603.2c-62.6 0-90.2-44.2-90.2-141.6s27.6-141.6 90.2-141.6c62.6 0 90.2 44.2 90.2 141.6 0 97.2-27.6 141.6-90.2 141.6zM425 352.8c-26 0-46.6 16-46.6 110 0 91.8 20.6 107.8 46.6 107.8s46.6-16.2 46.6-107.8c0-94-20.6-110-46.6-110zM177.8 495l-36.2-170.8h34.4l36 170.8zM223.2 568.4c10.6-7 20-19 20.2-46h17.2c0.4 31.4-12.6 50.8-27.8 60.6s-31.4 10.8-39.2 11h-2.6v-17.4h2.6c6 0 19-1.2 29.6-8.2zM642 474.8l-29.4 10.6c-29 11-40.8 23-40.8 46.2 0 29 17.8 39.4 36.6 39.4 27.2 0 38.2-14.6 38.2-39.4v-5.8h43.6v6.2c0 28.2-7.4 71.8-77.2 71.8-51.2 0-84.8-27.6-84.8-77.2 0-39 17.2-59.6 57-74.8l29.8-10.4c24.4-7.4 39-20 39-48.6 0-20.4-13.8-39.8-41.2-39.8-30 0-44.6 16.8-44.6 50v7.2h-43.8v-6.6c0-38.2 15.2-83.2 82.8-83.2 55 0 90.2 24.2 90.2 82.2 0 37.4-16.8 58.4-55.4 72.2zM268 468.4h-0.6l5.8 26.6h-34.2l-36.2-170.6h34.2l21.6 102c7 31.8 27 38.6 42.4 38.6 5.8 0 11.8-1.2 14-1.8l7.2 34.8c-2 0.8-4.2 1.4-8 1.4-19.2 0-34.6-12-46.2-31zM141.4 457.6c6.4 30.2-15.2 41.8-45.4 41.8-45 0-64-20-71.6-56.2h32.4c3.4 16.4 10.2 32.6 33 32.6 18 0 21.2-9.8 18-25.4-3.2-15-11.8-18.4-24.8-21.8l-28.2-7.2c-24.8-7.6-42.8-15.6-51-53.6-7-32.6 7-47.8 34.2-47.8 20 0 35.2 8.2 47.8 25h0.6c-2.6-16.4 8.8-22.6 24-22.6 6.6 0 13 2.2 17.4 4.2l4.8 22.2c-1.2-0.6-3.4-1-5.8-1-5 0-7.6 5.8-6.4 12l21 97.8zM93.8 385.8c-5.4-25-18.8-40.6-39.4-40.6-14.2 0-18.8 11.4-15.8 25.6 2.8 12.6 9.2 22.8 20 27.6 11.2 4.8 31 8.8 41.2 15.8l-6-28.4zM964 603.2l-62.4-91.8-15.6 91.8h-98c0 0-3-2 2.8-2.8 13.2-1.8 44-10 46.6-27.4v-0.4l21.2-99-113.4-148.8h64.4l69 99.2 17.6-99.2h54.4l-29 137.8 104.8 140.6h-62.4zM242 594c16.8-11 31.6-30.6 31.8-71.4h17.2c0.2 45.2-18.2 72.2-39.6 86s-44.6 15.4-55.6 15.4h-4.6v-17.4c0.8 0 2.2 0.2 4.6 0.2 9.2 0 29.4-1.8 46.2-12.8zM204.8 542.6c4.2-2.8 8-7 8.2-19.4v-0.6h17.2v0.8c0.2 16.6-7.2 28.2-16 33.8s-17.6 6-22 6.2h-1.2v-17.2c0.2-0.2 0.4-0.2 1.2-0.2 2.6 0 8.4-0.6 12.6-3.4zM738 585c0 5.2-3.2 7.4-9.4 7.4h-9.8v-25.8h4.2v11h4l6.6-11h4.8l-7.2 11.4c3.8 0.4 6.8 2.4 6.8 7zM723 581.6v7.4h5.2c2.6 0 5.6-0.4 5.6-3.4 0-3.8-2.8-4-6-4h-4.8zM727.6 603.4c-12.4 0-23-9.4-23-23.4 0-13.4 9.6-23.4 23-23.4 12.2 0 22.8 9.4 22.8 23.4s-10.6 23.4-22.8 23.4zM727.6 560.8c-11.2 0-18 8.6-18 19.4 0 11.4 7.8 19.4 18 19.4 10 0 17.8-8 17.8-19.4 0-11.6-7.8-19.4-17.8-19.4zM1154 470.6v0.8c30.8 3.8 51.4 25 51.4 62.4 0 41.4-18.4 69.4-73 69.4h-74.8v-278.4h77.2c49.2 0 79.6 28.8 79.6 75.6 0.2 38.2-20.2 67.6-60.4 70.2zM1074.2 590h60.4c35.8 0 54.6-18.4 54.6-56.2 0-39.4-25.8-56.6-61.6-56.6h-53.4v112.8zM1129.2 338h-55v126h54.2c39.8 0 69.8-13.6 69.8-63.2 0-46-23.8-62.8-69-62.8zM1250.4 528.8h14.8v-204h-14.8v204zM1250.4 603.2h14.8v-39.8h-14.8v39.8zM1308.2 603.2h14.8v-278.4h-14.8v278.4zM1365.8 603.2h14.8v-278.4h-14.8v278.4zM1423.6 603.2h14.8v-39.8h-14.8v39.8zM1423.6 528.8h14.8v-204h-14.8v204zM1547.2 533.4c-27.6 0-44.8-17.6-51.8-35.4h-0.8v30.8h-14.8v-204h14.8v130.6c0 35.4 17.6 64.8 48.8 64.8 25.4 0 40.6-12.4 40.6-48.8v-146.6h14.8v153.6c-0.2 38.6-22.8 55-51.6 55zM1749.2 528.8v-34h-0.8c-7.8 23.8-24.2 38.6-50.6 38.6-53.8 0-64.4-50-64.4-105.6 0-55.8 13.2-103 61.2-103 35.8 0 47.6 23.4 53.4 41.4h1.2v-37.4c0-42.6-14.4-62.4-49.2-62.4-28.8 0-42.2 16.4-42.2 37.4h-14.8c0-10.6 3.6-50.6 55.4-50.6 50.6 0 65.6 32.8 65.6 83v192.6h-14.8zM1699.2 338c-38.6 0-49.6 37.4-49.6 89.6 0 69.4 18.8 92.4 51.4 92.4 32 0 48-30 48-89.4 0.2-55-12.6-92.6-49.8-92.6z" />
<glyph unicode="&#xe60f;" glyph-name="airOSX-market" horiz-adv-x="1926" d="M424.8 603.2c-62.6 0-90.2-44.2-90.2-141.6s27.6-141.6 90.2-141.6c62.6 0 90.2 44.2 90.2 141.6 0 97.2-27.6 141.6-90.2 141.6zM424.8 352.8c-26 0-46.6 16-46.6 110 0 91.8 20.6 107.8 46.6 107.8s46.6-16.2 46.6-107.8c0-94-20.6-110-46.6-110zM177.8 495l-36.2-170.8h34.4l36 170.8zM223.2 568.4c10.6-7 20-19 20.2-46h17.2c0.4 31.4-12.6 50.8-27.8 60.6s-31.4 10.8-39.2 11h-2.6v-17.4h2.6c6 0 19-1.2 29.6-8.2zM641.8 474.8l-29.4 10.6c-29 11-40.8 23-40.8 46.2 0 29 17.8 39.4 36.6 39.4 27.2 0 38.2-14.6 38.2-39.4v-5.8h43.6v6.2c0 28.2-7.4 71.8-77.2 71.8-51.2 0-84.8-27.6-84.8-77.2 0-39 17.2-59.6 57-74.8l29.8-10.4c24.4-7.4 39-20 39-48.6 0-20.4-13.8-39.8-41.2-39.8-30 0-44.6 16.8-44.6 50v7.2h-43.8v-6.6c0-38.2 15.2-83.2 82.8-83.2 55 0 90.2 24.2 90.2 82.2 0 37.4-16.8 58.4-55.4 72.2zM268 468.4h-0.6l5.8 26.6h-34.2l-36.2-170.6h34.2l21.6 102c7 31.8 27 38.6 42.4 38.6 5.8 0 11.8-1.2 14-1.8l7 34.8c-2 0.8-4.2 1.4-8 1.4-19.2 0-34.6-12-46-31zM141.4 457.6c6.4 30.2-15.2 41.8-45.4 41.8-45 0-64-20-71.6-56.2h32.4c3.4 16.4 10.2 32.6 33 32.6 18 0 21.2-9.8 18-25.4-3.2-15-11.8-18.4-24.8-21.8l-28.2-7.2c-24.8-7.6-42.8-15.6-51-53.6-7-32.6 7-47.8 34.2-47.8 20 0 35.2 8.2 47.8 25h0.6c-2.6-16.4 8.8-22.6 24-22.6 6.6 0 13 2.2 17.4 4.2l4.8 22.2c-1.2-0.6-3.4-1-5.8-1-5 0-7.6 5.8-6.4 12l21 97.8zM93.8 385.8c-5.4-25-18.8-40.6-39.4-40.6-14.2 0-18.8 11.4-15.8 25.6 2.8 12.6 9.2 22.8 20 27.6 11.2 4.8 31 8.8 41.2 15.8l-6-28.4zM963.6 603.2l-62.4-91.8-15.6 91.8h-98c0 0-3-2 2.8-2.8 13.2-1.8 44-10 46.6-27.4v-0.4l21.2-99-113.4-148.8h64.4l69 99.2 17.6-99.2h54.4l-29 137.8 104.8 140.6h-62.4zM242 594c16.8-11 31.6-30.6 31.8-71.4h17.2c0.2 45.2-18.2 72.2-39.6 86s-44.6 15.4-55.6 15.4h-4.6v-17.4c0.8 0 2.2 0.2 4.6 0.2 9.2 0 29.4-1.8 46.2-12.8zM204.8 542.6c4.2-2.8 8-7 8.2-19.4v-0.6h17.2v0.8c0.2 16.6-7.2 28.2-16 33.8s-17.6 6-22 6.2h-1.2v-17.2c0.2-0.2 0.4-0.2 1.2-0.2 2.6 0 8.4-0.6 12.6-3.4zM737.8 585c0 5.2-3.2 7.4-9.4 7.4h-9.8v-25.8h4.2v11h4l6.6-11h4.8l-7.2 11.4c3.8 0.4 6.8 2.4 6.8 7zM722.8 581.6v7.4h5.2c2.6 0 5.6-0.4 5.6-3.4 0-3.8-2.8-4-6-4h-4.8zM727.4 603.4c-12.4 0-23-9.4-23-23.4 0-13.4 9.6-23.4 23-23.4 12.2 0 22.8 9.4 22.8 23.4s-10.6 23.4-22.8 23.4zM727.4 560.8c-11.2 0-18 8.6-18 19.4 0 11.4 7.8 19.4 18 19.4 10 0 17.8-8 17.8-19.4 0-11.6-7.8-19.4-17.8-19.4zM1161.2 352.8h-0.8l-79.2 250.4h-26.4v-278.4h16.4v257.2h0.6l80-257.2h16.4l80 257.2h0.6v-257.2h16.4v278.4h-26.8zM1415.8 349.4v130.2c0 29.2-11 53.8-55.8 53.8-47.6 0-57.6-35-57.6-62.8h14.8c0 28 10.2 49.6 44.4 49.6 22.2 0 39.4-7.8 39.4-44.8 0-17.2-2.4-25.4-19.8-30l-44-12c-28.8-7.8-41.4-25.4-41.4-56.2 0-31.6 15.6-57 51-57 27.2 0 47.6 16.4 53.4 37.4h0.8v-12.8c0-16 11.4-22.2 17.6-22.2 6.6 0 12.4 1.2 15.6 3.6v11.6c-2.8-1.6-5.8-2-9.4-2-5.2-0.2-9 3.8-9 13.6zM1401 401.6c0-41-16.8-68.2-51.4-68.2-25.8 0-37.4 17.2-37.4 43.6 0 24.2 8.6 38.2 32.4 44.8l30 8.2c15.2 4.2 20.6 5.4 25.8 13.6h0.8v-42zM1473.4 493.2h-0.8v35.4h-14.8v-203.8h14.8v129.4c0 33.6 17.2 65.8 51.8 65.8h8.6v13.2h-8.6c-26.8 0.2-43.6-16.6-51-40zM1678.2 528.6h-18.8l-88.2-108.4h-0.6v183h-14.8v-278.4h14.8v74.8l33.8 40.2 66.4-115h18.6l-74.4 128.2zM1770.6 533.4c-46 0-68.2-38.6-68.2-101 0-69.4 13.2-112.2 65.8-112.2 46 0 63.2 40.2 63.2 71.4h-14.8c0-15.2-7-58-50-58-47.6 0-48 61.6-48 94.4h115.4c0 65.6-15.6 105.4-63.4 105.4zM1769.8 520c42.2 0 48-42.2 48-79.2h-99c-0.2 26.6 5.8 79.2 51 79.2zM1909.6 335.6c-8.6 0-18 3.2-18 22.6v157.2h34v13.2h-34v60.4h-14.8v-60.4h-27.6v-13.2h27.6v-158.6c0-22.2 9-34.4 30-34.4 5.8 0 13.6 0.8 21 2.4v13.2c-6.4-2-11.8-2.4-18.2-2.4z" />
<glyph unicode="&#xe610;" glyph-name="airOSX-control" horiz-adv-x="1938" d="M424.6 603c-62.6 0-90.2-44.2-90.2-141.4s27.6-141.4 90.2-141.4 90.2 44.2 90.2 141.4c0 97.2-27.6 141.4-90.2 141.4zM424.6 352.8c-26 0-46.6 16-46.6 110 0 91.8 20.6 107.8 46.6 107.8s46.6-16.2 46.6-107.8c0-94-20.6-110-46.6-110zM177.6 495l-36.2-170.6h34.4l36 170.6zM223 568.4c10.6-7 20-19 20.2-46h17.2c0.4 31.4-12.6 50.8-27.8 60.6s-31.4 10.8-39.2 11h-2.6v-17.4h2.6c6 0 19-1.2 29.6-8.2zM641.6 474.8l-29.4 10.6c-29 11-40.8 23-40.8 46.2 0 29 17.8 39.4 36.6 39.4 27.2 0 38.2-14.6 38.2-39.4v-5.8h43.6v6.2c0 28.2-7.4 71.8-77.2 71.8-51.2 0-84.8-27.6-84.8-77.2 0-39 17.2-59.6 57-74.8l29.8-10.4c24.4-7.4 39-20 39-48.6 0-20.4-13.8-39.8-41.2-39.8-30 0-44.6 16.8-44.6 50v7.2h-43.8v-6.6c0-38.2 15.2-83.2 82.8-83.2 55 0 90.2 24.2 90.2 82.2-0.2 37.4-17 58.4-55.4 72.2zM267.8 468.4h-0.6l5.8 26.6h-34.2l-36.2-170.4h34.2l21.6 102c7 31.8 27 38.6 42.4 38.6 5.8 0 11.8-1.2 14-1.8l7.2 34.6c-2 0.8-4.2 1.4-8 1.4-19.2 0-34.6-12-46.2-31zM141.2 457.6c6.4 30.2-15.2 41.8-45.4 41.8-45 0-64-20-71.6-56.2h32.4c3.4 16.4 10.2 32.6 33 32.6 18 0 21.2-9.8 18-25.4-3.2-15-11.8-18.4-24.8-21.8l-28.2-7.2c-24.6-7.6-42.6-15.6-50.8-53.6-7-32.6 7-47.8 34.2-47.8 20 0 35.2 8.2 47.8 25h0.6c-2.6-16.4 8.8-22.6 24-22.6 6.6 0 13 2.2 17.4 4.2l4.8 22.2c-1.2-0.6-3.4-1-5.8-1-5 0-7.6 5.8-6.4 12l20.8 97.8zM93.8 385.8c-5.4-25-18.8-40.6-39.4-40.6-14.2 0-18.8 11.4-15.8 25.6 2.8 12.6 9.2 22.8 20 27.6 11.2 4.8 31 8.8 41.2 15.8l-6-28.4zM963.2 603l-62.4-91.8-15.6 91.8h-98c0 0-3-2 2.8-2.8 13.2-1.8 44-10 46.6-27.4v-0.4l21.2-99-113.4-148.6h64.4l69.2 99.2 17.6-99.2h54.4l-29 137.6 104.8 140.4h-62.6zM241.8 593.8c16.8-11 31.6-30.6 31.8-71.4h17.2c0.2 45.2-18.2 72.2-39.6 86s-44.6 15.4-55.6 15.4h-4.6v-17.4c0.8 0 2.2 0.2 4.6 0.2 9.2 0 29.4-1.8 46.2-12.8zM204.6 542.6c4.2-2.8 8-7 8.2-19.4v-0.6h17.2v0.8c0.2 16.6-7.2 28.2-16 33.8s-17.6 6-22 6.2h-1.2v-17.2c0.2-0.2 0.4-0.2 1.2-0.2 2.6 0 8.4-0.6 12.6-3.4zM737.4 585c0 5.2-3.2 7.4-9.4 7.4h-9.8v-25.8h4.2v11h4l6.6-11h4.8l-7.2 11.4c3.8 0.4 6.8 2.4 6.8 7zM722.4 581.6v7.4h5.2c2.6 0 5.6-0.4 5.6-3.4 0-3.8-2.8-4-6-4h-4.8zM727 603.2c-12.4 0-23-9.4-23-23.4 0-13.4 9.6-23.4 23-23.4 12.2 0 22.8 9.4 22.8 23.4s-10.6 23.4-22.8 23.4zM727 560.8c-11.2 0-18 8.6-18 19.4 0 11.4 7.8 19.4 18 19.4 10 0 17.8-8 17.8-19.4 0-11.6-7.8-19.4-17.8-19.4zM1135.6 333.4c-56.2 0-71.4 56.2-71.4 131 0 78.4 18.4 130.2 73.6 130.2 41 0 60.8-34 60.8-71.4h16.4c0 27.2-12.8 84.6-78 84.6-64.6 0-89.2-56.8-89.2-144.2 0-90 24.6-143.4 85-143.4 69.4 0 85.8 65.4 85.8 98.2h-16.4c0.2-21.8-12.8-85-66.6-85zM1312.2 533.4c-56.2 0-69.4-48-69.4-106.4 0-58.8 13.2-106.8 67-106.8 56.2 0 69.4 48 69.4 106.8 0 58.4-13.2 106.4-67 106.4zM1311 333.4c-39 0-51.8 34.6-51.8 93.2 0 58.8 12.8 93.6 51.8 93.6s51.8-34.6 51.8-93.6c0-58.4-12.8-93.2-51.8-93.2zM1481.4 533.4c-27.6 0-44.8-17.6-51.8-35.4h-0.8v30.8h-14.8v-203.8h14.8v130.6c0 35.4 17.6 64.6 48.8 64.6 25.4 0 40.6-12.4 40.6-48.8v-146.6h14.8v153.6c-0.2 38.6-22.8 55-51.6 55zM1598.2 358.4v157h34v13.2h-34v60.4h-14.8v-60.4h-27.6v-13.2h27.6v-158.6c0-22.2 9-34.2 30-34.2 5.8 0 13.6 0.8 21 2.4v13.2c-6.6-2-12-2.4-18.4-2.4-8.4 0-17.8 3.2-17.8 22.6zM1679.4 493.2h-0.8v35.4h-14.8v-203.8h14.8v129.4c0 33.6 17.2 65.8 51.8 65.8h8.6v13.2h-8.6c-27 0.2-43.6-16.6-51-40zM1822 533.4c-56.2 0-69.4-48-69.4-106.4 0-58.8 13.2-106.8 67-106.8 56.2 0 69.4 48 69.4 106.8 0 58.4-13.2 106.4-67 106.4zM1820.8 333.4c-39 0-51.8 34.6-51.8 93.2 0 58.8 12.8 93.6 51.8 93.6s51.8-34.6 51.8-93.6c0-58.4-12.8-93.2-51.8-93.2zM1925.2 603.2h14.8v-278.2h-14.8v278.2z" />
<glyph unicode="&#xe611;" glyph-name="mfi" horiz-adv-x="494" d="M68.6 435.2h0.6c12.2 18 28.2 20.8 40.4 21.2 13.8 0.2 31.4-5.8 30.4-21.2h0.6c5.2 7.2 11 12.6 18 16 7 3.6 14.8 5.2 24 5.2 28 0 36.4-17.4 32.8-34.8l-28.6-133.4h-37.6l23.6 110.8c3.2 14.8 4.6 29.4-12 28.6-16.6-1-21.8-12.2-25.8-31.4l-22.8-107.8h-37.6l23.8 112.8c3.2 14.4 4.6 26.8-12.8 26.4-17.8-0.4-21.4-13.2-25.2-31.4l-22.8-107.8h-37.6l34.8 164h37.8l-4-17.2zM216 288.2l46 217.8h115.2l-6.6-32h-74.6l-11.6-55.4h70l-7-32h-70l-21-98.8h-40.4v0.4zM350 288.2l34.8 164h37.8l-34.8-164h-37.8zM388.8 471.8l7.2 34.2h37.8l-7.2-34.2h-37.8zM283 666.2l-83.2-182-20.8 80.4-46.2-70.2-112-20.8h123.6l26.4 43 8.4-42.8c0 0 17.8 1.4 28.2-3.2 6.2-2.8 9.6-6.4 9.6-6.4l52.6 116-3.8-53.8h189l-161 22.4-10.8 117.4zM471.6 460.4c-13 0-22.4 9.8-22.4 22.8 0 13.6 10.4 22.8 22.4 22.8s22.4-9.2 22.4-22.8c0-13.8-10.4-22.8-22.4-22.8zM471.6 502.4c-10 0-17.6-7.8-17.6-19 0-10.4 6.6-19 17.6-19 9.8 0 17.6 7.6 17.6 19 0 11-7.8 19-17.6 19zM467 470.2h-4.2v25.4h9.6c6 0 9.2-2.2 9.2-7.2 0-4.4-2.8-6.4-6.6-6.8l7-11.2h-4.6l-6.6 10.8h-4l0.2-11zM471.8 484.8c3.2 0 5.8 0.4 5.8 4 0 3.2-3 3.6-5.4 3.6h-5v-7.4h4.6v-0.2z" />
<glyph unicode="&#xe612;" glyph-name="magnifying-glass" d="M901.4 114.4l-276.8 276.8c40 50.8 64 114.8 64 184.2 0 164.4-133.6 298-298 298s-298-133.6-298-298c0-164.4 133.6-298 298-298 69 0 132.4 23.6 183 63l277-277 50.8 51zM156.6 575.4c0 129 105 234 234 234s234-105 234-234c0-129-105-234-234-234s-234 105-234 234z" />
<glyph unicode="&#xe613;" glyph-name="check-2" d="M327.752 48.994l-327.694 327.694 67.884 67.882 259.81-259.81 628.306 628.306 67.884-67.884z" />
<glyph unicode="&#xe614;" glyph-name="news" d="M542.4 414.2h337v-47.6h-337v47.6zM144.2 251.2h735v-47.6h-735v47.6zM481.6 704.2h-336.8v-333.6h337l-0.2 333.6zM192.2 418.4v238h242v-238.2l-242 0.2zM542.4 559.2h337v-47.6h-337v47.6zM0 885.2v-879.2h1024v879.2h-1024zM47.4 53.6v784.2h928.8v-784.2h-928.8zM542.4 704.2h337v-47.6h-337v47.6z" />
<glyph unicode="&#xe615;" glyph-name="phone" d="M205.4 904v0c14.8 0 33.8-12.4 47.6-21.4l0.8-0.4 2.6-1.6c1-0.6 2-1.2 3-2 5.4-10 16.6-38.6 29.4-95 9.8-43.4 15.6-80.8 17-94-1.4-2.6-5.6-8.8-17-20.6-14.6-15.2-36.2-34.6-65.2-60.4l-27.2-24.2 11-34.6c25.4-80 91.4-178.2 142-235.2 44.6-50.4 145.8-144 227.6-181.6l33.2-15.2 27.4 24.2c29.6 26.2 52 45.8 68.2 58.2 12.8 9.6 19.2 12.6 21.8 13.6 13-3 49.6-13.4 91.4-28.2 54.4-19.4 81.6-33.8 90.8-40.4 1-2.4 2.2-4.6 3.2-6.8l0.2-0.2c5.6-11.6 12.6-26 14.8-39.4 1.8-11.4-0.6-17.2-4.6-22.4-12.4-15.2-55.6-65-101.6-82.6-1.8-0.2-6.8-0.8-16-0.8-22 0-101.8 3.2-207.4 44.4-111.8 43.8-211 113.8-294.8 208-115 129.8-165.6 268.4-187.6 361.8-25 105.4-21.4 184.2-17.2 202.8 15.8 29.4 50.4 62.8 93.4 90 2.8 1.6 5.4 2.8 8.2 3.4 1.8 0.6 3.4 0.6 5 0.6zM205.4 960c-5.2 0-10.6-0.6-16-1.6-9.2-2-18-5.4-26.4-10.6-25.4-16-87.2-59-115.4-115.2-17.4-35-25.4-354.2 214-624 206.6-233 455.4-271.4 544-271.4 12.8 0 22.2 0.8 27.8 2l1.2 0.2 3.8 1c59 21.2 109.2 77.4 128 100.8 35 43.2 10 94.2-3.4 121.6-2 4.4-4 8-5.4 11.6-16 37.4-211 94.6-227 95.6-0.8 0-1.8 0-2.6 0-3.4 0-7-0.4-10.6-1-26.6-5.4-56-30.6-117.4-85-69.4 32-164.4 117.4-209 168-48.4 54.4-108.8 146.4-130.4 214.8 70.2 62.2 99.4 89.2 101.2 119.2 1 16.2-32.6 216.6-67.6 237-3.2 1.8-6.8 4.2-10.6 6.6-19.4 12.6-47 30.4-78.2 30.4v0z" />
<glyph unicode="&#xe616;" glyph-name="info" d="M514.2 960c-284 0-514.2-230.2-514.2-514.2s230.2-514.2 514.2-514.2 514 230.4 514 514.2-230.2 514.2-514 514.2zM826.6 133.4c-40.6-40.6-87.8-72.4-140.4-94.8-54.6-22.8-112.4-34.6-172.2-34.6s-117.4 11.6-172 34.8c-52.6 22.2-99.8 54-140.4 94.8s-72.4 87.8-94.8 140.4c-23 54.4-34.8 112.2-34.8 172s11.6 117.4 34.8 172c22.2 52.6 54 99.8 94.8 140.4s87.8 72.4 140.4 94.8c54.4 23 112.2 34.8 172 34.8s117.4-11.6 172-34.8c52.6-22.2 99.8-54 140.4-94.8s72.4-87.8 94.8-140.4c23-54.4 34.8-112.2 34.8-172s-11.6-117.4-34.8-172c-22.4-52.6-54-99.8-94.6-140.6zM573.4 657.6c0-7.8-1.6-15.2-4.8-22s-7.4-12.8-12.6-18c-5.2-5.2-11.4-9.2-18.4-12.2s-14.6-4.6-22.6-4.6c-7.8 0-15.2 1.6-22.2 4.6s-13 7.2-18.2 12.2c-5.2 5.2-9.2 11-12.2 18-3 6.8-4.6 14.2-4.6 22 0 8 1.6 15.6 4.6 22.6s7.2 13.2 12.2 18.2c5.2 5.2 11.2 9.2 18.2 12.2s14.4 4.6 22.2 4.6c8 0 15.6-1.6 22.6-4.6s13.2-7.2 18.4-12.2c5.2-5.2 9.4-11.2 12.6-18.2s4.8-14.6 4.8-22.6zM559.6 547.8v-377h-90.8v377h90.8z" />
<glyph unicode="&#xe617;" glyph-name="dish-angled" d="M628 750.6l-10.6-48c127-28.4 207.2-154.8 179-281.8l48-10.6c34 153.4-63 306.2-216.4 340.4zM658.4 926l-14.4-63.8c105.8-23.8 196.4-87.2 254.4-178.8s77-200.2 53.4-306.4l63.8-14.4c27.4 123 5.6 249.4-62 355.6-67.4 106.6-172.2 180.4-295.2 207.8zM550 535.4c-21.2-13.6-31.6-38-27.8-61.6l-152.8-97-202 318.2c-200.4-127.6-205.6-363.6-96-536.4s325.8-268.6 526.2-141.2l-202 318.2 152.8 97c19.6-13.4 46.2-14.6 67.6-1 28.6 18.2 37.2 56.4 19 85-18 28.4-56 37-85 18.8zM503.8 42.6c-59.8-22.8-122.2-24.6-183.2-5.2-37.8 12-74.2 32-107.6 59-33.4 26.8-62.2 59.6-86.2 97s-41 77.6-51.2 119.2c-10.2 41.8-12.6 83-7.6 122.4 8.4 63.6 36.6 119.4 82.8 163.8l353-556.2z" />
<glyph unicode="&#xe618;" glyph-name="TOUGHSwitch" horiz-adv-x="1360" d="M1346.4 494.4l-6.6 17.2h-6.8v-24.2h4.6v19.2h0.2l7-19.2h3.4l7 19.2h0.2v-19.2h4.6v24.2h-7l-6.6-17.2zM1308.6 507.6h7.4v-20.2h5v20.2h7.2v4h-19.6v-4zM0 470.4h36.4v-144.6h48.4v144.6h36.4v41.2h-121.2v-41.2zM187.8 515.2c-49.6 0-66.4-27-66.4-96.6s17-96.6 66.4-96.6 66.4 27 66.4 96.6c0 69.4-16.8 96.6-66.4 96.6v0zM187.8 354.8c-14.8 0-16.4 13.4-16.4 63.8 0 50.2 1.6 63.8 16.4 63.8s16.4-13.4 16.4-63.8c0-50.2-1.6-63.8-16.4-63.8zM341.6 377.6c0-18-5.6-22.6-14.6-22.6-9.2 0-14.4 4.6-14.4 22.6v134h-48.4v-121.8c0-52 22.4-67.6 63-67.6s63 15.6 63 67.6v121.8h-48.4l-0.2-134zM470 482.4c5.6 0 9.4-3 11.2-8.2 1.8-5 2.6-12.2 2.6-21.6h47c0 45-24.4 62.4-58.8 62.4-57.2 0-69.2-34.4-69.2-96.6 0-61.4 4.4-96.6 53.6-96.6 16.4 0 33.6 4.2 40 20h0.6l1-16.4h32.8v100.8h-62.4v-32.8h17.2c-0.4-32.4-6.2-39-16.4-39-14.8 0-16.4 13.4-16.4 63.8-0.2 50.6 1.2 64.2 17.2 64.2v0zM623.2 443.2h-29.6v68.4h-48.4v-185.8h48.4v76.4h29.6v-76.4h48.4v185.8h-48.4v-68.4zM727.8 466.2c0 19.8 11.4 30.2 30.8 30.2 22 0 28.8-13.6 28.8-33.2h23c-0.6 34.2-16.8 51.8-52 51.8-47 0-54.4-34.2-54.4-51.2 0-68.2 87.6-37.8 87.6-90.2 0-19.8-14-32.8-32.2-32.8-33.6 0-34.8 22.4-34.8 43.2h-23c0-39.4 12.8-62 56.2-62 26.2 0 57.8 12.2 57.8 55.2-0.2 68-87.8 36.8-87.8 89v0zM940 351.2h-0.8l-23 114h-25.8l-23.6-114h-0.4l-22.6 114h-22.8l32.6-139.4h25.2l23.6 113.8h0.4l24.6-113.8h24l32.8 139.4h-22.6l-21.6-114zM997.4 511.6h22v-25h-22v25zM997.4 465.2h22v-139.4h-22v139.4zM1072 505.6h-22v-40.6h-20.4v-17.2h20.4v-96.2c0-18.2 5.6-27.6 28.2-27.6 9.2 0 14.8 1 17.8 1.6v18c-2.4-0.4-5-0.8-9.6-0.8-11.4 0-14.4 4.4-14.4 15.6v89.6h24.2v17.2h-24.2v40.4zM1155.4 451.8c16.8 0 22-15.4 22-28.8h22c0 16-6.6 46-44.4 46-43 0-49.6-40.4-49.6-75.2 0-48 14.4-71.6 48.4-71.6 34.8 0 45.8 30 45.8 52h-22c0-15-4.2-34.8-23-34.8-26.2 0-26.6 36.4-26.6 54.6 0 50.8 13.8 57.8 27.4 57.8v0zM1272.6 468.8c-12.4 0-27.8-8.2-33.6-19.4h-0.6v62h-22v-185.6h22v96.2c0 20.4 15.8 28.2 27.6 28.2 19.8 0 20.6-17.4 20.6-28.2v-96.2h22v98.8c0 16.4 0 44.2-36 44.2v0z" />
<glyph unicode="&#xe619;" glyph-name="UniFi-Appliance2" horiz-adv-x="914" d="M220.4 469.8c-15.8 0-30.6-7.4-40-20.2h-0.4l3.4 16.6h-26.8l-29.6-140.4h28l20.2 94.2c4 18.2 16.8 27.2 28.2 27.2 14.2 0 17.8-7 14.2-25.2l-20.6-96.4h28.2l22.6 106c5.6 28.8-5.8 38.2-27.4 38.2zM232.4 537.4v0c16.2 21.8 42.8 41 95.6 40.8l5.4 24.6c-62 2-100.4-21.8-120.8-51.2-16.2-22.6-22.2-47.2-24.6-64.6h25c2.4 14.8 7.8 34 19.4 50.4zM349.4 435.4l11 52h65.4l5.8 24.8h-95.4l-39.8-186.4h29.8l18 84.8h65.8l5 24.8zM276 466.2l-29.8-140.4h28.4l29.6 140.4zM278.6 487.4h29.6l5.4 25c-15.4-1.4-24.2-8-30.4-16.8-1.8-3.2-3.2-5.2-4.6-8.2zM413.6 325.8h28l30 140.4h-28.2zM114.8 512v0l-28.6-133.4c-5-23.6-16.8-34-34.4-34-18.2 0-25 10.4-20.2 34l28.6 133.6h-30l-28-131.4c-9-43 9-58.8 45-58.8 35.4 0 60.2 15.8 69.4 58.6l28 131.4h-29.8zM220.4 469.8v0 0zM324 559.6c-38-1-63-16.8-76.4-36-8.8-12.4-13.4-25.2-15.8-36.4h25.6c2 7 5.4 15.2 10.2 21.8 9 12.4 23.2 23.2 50.8 25.6l5.6 25zM531.8 492.6c0 12-8.6 19.6-19.2 19.6-10.4 0-19.2-7.8-19.2-19.6 0-11.2 8-19.6 19.2-19.6 10.2 0 19.2 7.8 19.2 19.6zM512.6 476.6c-9.4 0-15.2 7.4-15.2 16.2 0 9.4 6.8 16.2 15.2 16.2s14.8-6.8 14.8-16.2c0.4-9.4-6.4-16.2-14.8-16.2zM453 512.2l-5.8-25h26.6c-0.2 20.6-20.8 25-20.8 25zM521.4 497.2c0 4.4-2.6 6-7.8 6h-8v-21.6h3.8v9h3.4l5.8-9h4l-6 9.4c2.4 0.4 4.8 2 4.8 6.2zM509 493.8v6.4h4.4c2 0 4.8-0.4 4.8-3 0-3-2.4-3.4-5-3.4h-4.2zM900.2 435.4h-363.8c-5.8 0-10.6-25-10.6-55.6 0-30.8 4.8-55.6 10.6-55.6h363.8c5.8 0 13.8 24.8 13.8 55.6 0 30.6-8 55.6-13.8 55.6zM576.2 349.6l-3.8 14.8h-17.6l-3.8-14.8h-10l17 60.4h12.4l16-60.4h-10.2zM608.4 374.6h-8.4v-25h-9.6v60.4h19.2c11.6 0 16.6-7.2 16.6-17.6-0.2-10.8-6.4-17.8-17.8-17.8zM648.6 374.6h-8.4v-25h-9.6v60.4h19.2c11.6 0 16.6-7.2 16.6-17.6-0.2-10.8-6.4-17.8-17.8-17.8zM704.6 349.6h-33v60.4h9.6v-52.2h23.4v-8.2zM717.4 349.6h-8.4v60.4h9.6l-1.2-60.4zM757.6 349.6l-3.8 14.8h-17.6l-3.8-14.8h-10l17.2 60.4h12.4l16-60.4h-10.4zM810.4 349.6h-11.8l-17.6 46.2h-0.2v-46.2h-9.2v60.4h11.8l17.6-45h0.2v45h9.2v-60.4zM855.4 370c0-11-4.4-21.6-18.6-21.6-15.2 0-20 9.8-20 31.4s4.8 31.4 20 31.4c17.2 0 18.2-12.6 18.2-19v-1.2h-9.6v1c0 5.6-1.6 12-8.6 11.8-7.2 0-10.4-4.4-10.4-23.8s3.2-24.4 10.4-24.4c8 0 9 9 9 14.6v1h9.6v-1.2zM895.4 349.6h-33.4v60.4h32.6v-8.2h-23v-16.8h21.6v-8.2h-21.6v-19.2h23.6v-8zM646.4 402.8h-6.2v-20.8h6.8c5.2 0 9.6 2.8 9.6 10.4 0 6.4-2.6 10.4-10.2 10.4zM606.2 402.8h-6.2v-20.8h6.8c5.2 0 9.6 2.8 9.6 10.4 0 6.4-2.6 10.4-10.2 10.4zM745.2 401.8l-7.2-29.8h14.2l-6.8 29.8zM563.6 401.8l-7.2-29.8h14.4l-7 29.8z" />
<glyph unicode="&#xe61a;" glyph-name="play-22" d="M512.2-62.4c-136.8 0-265.4 53.2-362.2 150s-150 225.4-150 362.2 53.2 265.4 150 362.2 225.4 150 362.2 150 265.4-53.2 362.2-150 150-225.4 150-362.2-53.2-265.4-150-362.2-225.4-150-362.2-150zM512.2 927c-127.4 0-247.2-49.6-337.4-139.8s-139.8-210-139.8-337.4 49.6-247.2 139.8-337.4 210-139.8 337.4-139.8 247.2 49.6 337.4 139.8 139.8 210 139.8 337.4-49.6 247.2-139.8 337.4-210 139.8-337.4 139.8zM337.2 170.8v572.6l495.8-286.2-495.8-286.4zM372.4 682.4v-450.6l390.2 225.4-390.2 225.2z" />
<glyph unicode="&#xe61b;" glyph-name="unifi-video-nvr" horiz-adv-x="904" d="M255.4 653.8c17.4 23.8 46.4 44.4 103.2 44.2l5.6 26.6c-67 2.2-108.4-23.8-130.6-55.2-17.4-24.4-24-51-26.4-69.8h27c2.4 15.6 8.2 36.4 21.2 54.2zM354.4 678c-41-1-68-18.2-82.6-39-9.6-13.4-14.4-27.4-17-39.2h27.6c2.2 7.8 5.6 16.2 11 23.8 9.8 13.4 25.2 25.2 55 27.6l6 26.8zM343.4 626.6c-16.6-1.2-26.2-8.8-32.8-18.2-2.4-3.2-3.8-5.6-5.2-8.8h32l6 27zM493.8 626.6l-6.2-27h28.8c-0.4 22.2-22.6 27-22.6 27zM54.8 421c38.4 0 65.2 17 75 63.4l30.2 142h-32.2l-30.8-144.4c-5.4-25.4-18-36.6-37.2-36.6-19.4 0-27.2 11.2-21.8 36.6l30.8 144.6h-32.2l-30.2-142c-9.8-46.6 9.6-63.6 48.4-63.6zM216.6 425h30.4l24.2 114.6c6.4 30.8-6 41.2-29 41.2-17 0-33-8.2-43.4-21.8h-0.8l3.6 17.8h-28.6l-32.2-151.8h30.4l21.8 102c4.2 19.8 18 29.6 30.4 29.6 15.2 0 19.4-7.6 15.2-27.4l-22-104.2zM270.2 425h30.6l32 151.8h-30.4zM381.8 543.6l11.8 55.8h70.8l6 27.2h-103l-42.8-201.6h32.2l19.4 91.4h70.8l5.6 27.2zM481.4 425l32.2 151.8h-30.4l-32.2-151.8zM558.2 626.6c-11.2 0-20.8-8.4-20.8-21 0-12 8.6-21 20.8-21 11 0 20.6 8.4 20.6 21 0.2 12.6-9.4 21-20.6 21zM558.2 588c-10 0-16.2 7.8-16.2 17.4 0 10.2 7.2 17.4 16.2 17.4s16.2-7.2 16.2-17.4-7.2-17.4-16.2-17.4zM567.6 610c0 4.8-2.8 6.8-8.6 6.8h-8.8v-23.4h3.8v10h3.6l6-10h4.4l-6.6 10.2c3.6 0.4 6.2 2.2 6.2 6.4zM554 606.6v6.8h4.6c2.4 0 5-0.4 5-3.2 0-3.4-2.6-3.6-5.4-3.6h-4.2zM853.2 627h-200.8c-28 0-50.8-22.8-50.8-50.8v-1.2h302.4v1.2c0 28-22.8 50.8-50.8 50.8zM844.6 554.4h59.4v-109.2h-59.4zM672.8 554.4h166.4v-109.2h-166.4zM601.6 554.4h64.8v-109.2h-64.8zM613 568.4h8.6v-11.2h-8.6zM634.4 568.4h8.6v-11.2h-8.6zM655.6 568.4h8.6v-11.2h-8.6zM613 442.4h8.6v-11.2h-8.6zM634.4 442.4h8.6v-11.2h-8.6zM655.6 442.4h8.6v-11.2h-8.6zM677 568.4h8.6v-11.2h-8.6zM698.4 568.4h8.6v-11.2h-8.6zM719.6 568.4h8.6v-11.2h-8.6zM741 568.4h8.6v-11.2h-8.6zM762.4 568.4h8.6v-11.2h-8.6zM783.8 568.4h8.6v-11.2h-8.6zM805 568.4h8.6v-11.2h-8.6zM826.4 568.4h8.6v-11.2h-8.6zM848.4 568.6h8.6v-11.2h-8.6zM869.6 568.6h8.6v-11.2h-8.6zM891 568.6h8.6v-11.2h-8.6zM677 442.4h8.6v-11.2h-8.6zM698.4 442.4h8.6v-11.2h-8.6zM719.6 442.4h8.6v-11.2h-8.6zM741 442.4h8.6v-11.2h-8.6zM762.4 442.4h8.6v-11.2h-8.6zM783.8 442.4h8.6v-11.2h-8.6zM805 442.4h8.6v-11.2h-8.6zM826.4 442.4h8.6v-11.2h-8.6zM851.2 442.4h8.6v-11.2h-8.6zM872.4 442.4h8.6v-11.2h-8.6zM893.8 442.4h8.6v-11.2h-8.6zM23.754 338.822h-0.196l-11.778 55.488h-11.78l16.354-69.508h14.116l17.524 69.508h-11.78zM52.954 395.090h10.514v-10.514h-10.514zM52.954 377.178h10.514v-52.376h-10.514zM100.264 371.044h-0.196c-1.946 4.672-6.23 7.496-11.876 7.496-7.982 0-16.16-3.602-16.16-26.87 0-18.010 4.868-28.232 17.134-28.232 7.496 0 10.124 4.38 11.488 7.79h0.196v-6.426h9.93v69.508h-10.514v-23.266zM91.988 331.812c-7.3 0-8.858 7.496-8.858 19.374 0 14.116 2.142 18.982 8.176 18.982 8.080 0 9.542-7.204 9.542-19.762 0-11.196-1.656-18.594-8.86-18.594zM138.81 378.542c-16.452 0-19.374-14.604-19.374-28.33 0-24.24 10.612-26.772 19.178-26.772 11.39 0 18.4 7.3 18.4 18.886h-9.93c0-3.116-0.876-11.682-8.372-11.682-7.886 0-8.762 8.956-8.762 15.964v3.018h27.356v5.548c0 14.606-3.894 23.368-18.496 23.368zM146.792 356.832h-16.842v1.070c0 6.814 2.044 13.434 8.762 13.434 5.938 0 8.080-5.062 8.080-11.682v-2.822zM183.392 378.542c-15.186 0-19.47-11.292-19.47-27.55s4.964-27.55 19.47-27.55c14.602 0 19.568 11.292 19.568 27.55s-4.284 27.55-19.568 27.55zM183.392 331.228c-7.594 0-8.956 6.424-8.956 19.762 0 11.584 1.362 19.762 8.956 19.762 7.69 0 9.054-8.178 9.054-19.762 0-13.338-1.362-19.762-9.054-19.762zM266.718 348.556c0-6.426-1.072-16.744-10.32-16.744-8.178 0-11.876 5.646-11.876 28.038s3.7 27.454 11.876 27.454c7.984 0.292 9.93-7.108 9.93-13.534v-1.168h11.098v1.266c0 7.206-1.168 21.806-20.93 21.806-17.622 0-23.072-11.292-23.072-36.118s5.452-36.118 22.974-36.118c16.356 0 21.416 12.266 21.416 24.824v1.46h-11.098v-1.166zM319.284 335.706v29.984c0 9.25-7.398 12.852-16.646 12.852-13.824 0-18.4-6.132-18.4-17.232h9.93c0 5.062 0.974 10.028 7.982 10.028 5.55 0 7.204-3.018 7.204-7.788 0-4.576-2.336-5.646-6.132-6.716l-8.178-2.24c-7.106-2.336-12.168-4.77-12.168-16.452 0-10.028 5.256-14.702 13.63-14.702 6.132 0 10.222 2.532 13.044 7.692h0.194c0.292-5.062 4.186-6.912 8.86-6.912 2.044 0 3.894 0.682 5.16 1.266v6.814c-0.39-0.196-1.070-0.292-1.752-0.292-1.56-0.002-2.728 1.752-2.728 3.698zM309.354 343.69c0-7.692-3.116-12.46-9.442-12.46-4.38 0-6.522 3.504-6.522 7.884 0 3.894 1.266 7.010 4.284 8.468 3.116 1.46 8.956 2.726 11.682 4.87v-8.762zM378.664 378.542c-6.328 0-10.222-2.922-13.24-7.982-1.558 4.38-4.672 7.982-12.168 7.982-4.964 0-9.93-2.824-12.558-7.496h-0.292v6.132h-9.93v-52.376h10.514v35.144c0 6.814 4.088 10.22 8.276 10.22 4.38 0 6.424-2.628 6.424-9.444v-35.922h10.514v35.144c0 6.814 4.088 10.22 8.372 10.22s6.328-2.628 6.328-9.444v-35.922h10.514v39.822c-0.002 10.124-5.356 13.922-12.754 13.922zM419.934 378.542c-16.452 0-19.374-14.604-19.374-28.33 0-24.24 10.612-26.772 19.178-26.772 11.39 0 18.4 7.3 18.4 18.886h-9.93c0-3.116-0.876-11.682-8.372-11.682-7.886 0-8.762 8.956-8.762 15.964v3.018h27.356v5.548c0 14.606-3.894 23.368-18.496 23.368zM427.916 356.832h-16.842v1.070c0 6.814 2.044 13.434 8.762 13.434 5.938 0 8.080-5.062 8.080-11.682v-2.822zM457.8 369h-0.196v8.178h-10.514v-52.376h10.514v31.348c0 9.734 5.744 11.876 10.514 11.876 1.752 0 3.602-0.39 4.38-0.584v10.708c-0.682 0.196-1.364 0.39-2.532 0.39-5.934 0.002-9.83-3.698-12.166-9.54zM511.536 335.706v29.984c0 9.25-7.398 12.852-16.648 12.852-13.822 0-18.398-6.132-18.398-17.232h9.93c0 5.062 0.972 10.028 7.982 10.028 5.548 0 7.206-3.018 7.206-7.788 0-4.576-2.338-5.646-6.132-6.716l-8.178-2.24c-7.108-2.336-12.17-4.77-12.17-16.452 0-10.028 5.258-14.702 13.628-14.702 6.132 0 10.222 2.532 13.044 7.692h0.196c0.292-5.062 4.186-6.912 8.86-6.912 2.044 0 3.894 0.682 5.16 1.266v6.814c-0.39-0.196-1.072-0.292-1.754-0.292-1.558-0.002-2.726 1.752-2.726 3.698zM501.606 343.69c0-7.692-3.116-12.46-9.444-12.46-4.38 0-6.524 3.504-6.524 7.884 0 3.894 1.266 7.010 4.284 8.468 3.116 1.46 8.958 2.726 11.684 4.87v-8.762zM724.58 386.644c0 5.018-2.178 7.656-7.128 7.656h-6.402v-15.312h6.006c4.82 0 7.524 2.904 7.524 7.656zM601.6 375.4c0-28 22.8-50.8 50.8-50.8h200.6c28 0 50.8 22.8 50.8 50.8v49.8h-302.2v-49.8zM703.524 399.978h16.634c6.602 0 11.948-3.3 11.948-12.146 0-6.072-2.708-10.76-7.856-11.55v-0.132c4.688-0.46 7.128-3.036 7.392-9.636 0.066-3.038 0.132-6.732 0.266-9.572 0.13-2.308 1.254-3.432 2.244-4.092h-8.516c-0.726 0.858-1.056 2.31-1.254 4.158-0.264 2.838-0.2 5.478-0.33 8.912-0.132 5.148-1.716 7.392-6.866 7.392h-6.138v-20.462h-7.526v47.128zM675.474 399.978l7.986-37.624h0.132l8.45 37.624h7.986l-11.88-47.13h-9.572l-11.090 47.13h7.988zM633.894 399.978h9.176l13.664-35.118h0.13v35.118h7.128v-47.13h-9.174l-13.664 36.042h-0.132v-36.042h-7.128v47.13z" />
<glyph unicode="&#xe61c;" glyph-name="unifi-video-camera" horiz-adv-x="904" d="M271 422.8h30.6l32.2 155.4h-30.4zM344.2 626.6v0 0zM344.2 626.6c-16.8-1.2-26.4-8.8-32.8-18.4-2.2-3.4-3.8-3.6-5.2-8.8h32.2l5.8 27.2zM256 653.8c17.4 23.8 46.4 44.4 103.6 44.4l5.6 26.8c-67 2.2-108.8-23.8-131-55.4-17.4-24.6-24-50.6-26.4-70h27c2.6 15.6 8.4 36.2 21.2 54.2zM55 420.2v0c38.4 0 65.4 16.8 75.4 63.4l30.2 142.2h-32.4l-30.8-144.6c-5.2-25.4-18.2-36.6-37.4-36.6-19.6 0-27.2 11.2-21.8 36.6l30.8 144.6h-32.2l-30.4-142.2c-10-46.6 9.6-63.4 48.6-63.4zM217.4 422.8h30.6l24.4 115.6c6.6 30.8-6 42.2-29.2 42.2-17 0-33.2-9.6-43.6-21.8h-0.8l3.8 19.4h-29.2l-32.4-155.4h30.6l21.8 103c4.2 19.8 18.2 30.2 30.6 30.2 15.4 0 19.6-8.2 15.4-28l-22-105.2zM355.4 678c-41.2-1-68.2-18.4-82.8-39.2-9.6-13.4-14.4-27.6-17-39.4h27.6c2.2 7.8 5.6 16.2 11.2 23.8 9.8 13.4 25.2 25.2 55.2 27.6l5.8 27.2zM482.8 422.8l32.2 155.4h-30.6l-32.2-155.4zM495 626.6l-6.2-27.2h28.8c-0.2 22.8-22.6 27.2-22.6 27.2zM377.4 514.6h70.8l5.6 30h-70.8l11.8 54.8h70.8l5.8 26.4h-103l-43-203h32.4zM802.4 400v0c-69.6 0-125.8 55.6-125.8 125.2 0 41.4 20.4 79.2 51.6 100.4h-74.8c-28.2 0-51.2-21.2-51.2-49.2v-201.2c0-28.2 23-51.4 51.2-51.4h201.2c28.2 0 49.4 23.2 49.4 51.4v77.6c-23-32-59.6-52.8-101.6-52.8zM814.2 526c0-6.186-5.014-11.2-11.2-11.2s-11.2 5.014-11.2 11.2c0 6.186 5.014 11.2 11.2 11.2s11.2-5.014 11.2-11.2zM266.8 348.6v0c0-6.4-1-16.8-10.4-16.8-8.2 0-11.8 5.6-11.8 28s3.8 27.4 11.8 27.4c8 0.2 10-7.2 10-13.6v-1.2h11v1.2c0 7.2-1.2 21.8-21 21.8-17.6 0-23-11.2-23-36.2 0-24.8 5.4-36.2 23-36.2 16.4 0 21.4 12.2 21.4 24.8v1.4h-11v-0.6zM803 425.8c55.4 0 100.2 45 100.2 100.2s-45 100.2-100.2 100.2c-55.2 0-100.2-45-100.2-100.2s44.8-100.2 100.2-100.2zM803 591.6c36.2 0 65.6-29.4 65.6-65.6s-29.4-65.6-65.6-65.6-65.6 29.4-65.6 65.6c0 36.2 29.4 65.6 65.6 65.6zM457.8 369v0 0l-0.2 8.2h-10.6v-52.4h10.6v31.4c0 9.8 5.8 11.8 10.6 11.8 1.8 0 3.6-0.4 4.4-0.6v10.8c-0.6 0.2-1.4 0.4-2.6 0.4-6 0-9.8-3.8-12.2-9.6zM511.6 335.8v0 30c0 9.2-7.4 12.8-16.6 12.8-13.8 0-18.4-6.2-18.4-17.2h10c0 5 1 10 8 10 5.6 0 7.2-3 7.2-7.8 0-4.6-2.4-5.6-6.2-6.8l-8.2-2.2c-7.2-2.4-12.2-4.8-12.2-16.4 0-10 5.2-14.8 13.6-14.8 6.2 0 10.2 2.6 13 7.6h0.2c0.2-5 4.2-7 8.8-7 2 0 3.8 0.6 5.2 1.2v6.8c-0.4-0.2-1-0.2-1.8-0.2-1.4 0.2-2.6 2-2.6 4zM501.6 343.6c0-7.6-3.2-12.4-9.4-12.4-4.4 0-6.6 3.6-6.6 7.8 0 3.8 1.2 7 4.2 8.4 3.2 1.4 9 2.8 11.6 4.8v-8.6zM183.4 378.6c-15.2 0-19.4-11.2-19.4-27.6 0-16.2 5-27.6 19.4-27.6 14.6 0 19.6 11.2 19.6 27.6 0 16.2-4.4 27.6-19.6 27.6zM183.4 331.2c-7.6 0-9 6.4-9 19.8 0 11.6 1.4 19.8 9 19.8s9-8.2 9-19.8c0-13.4-1.4-19.8-9-19.8zM803 470.8c30.6 0 55.2 24.8 55.2 55.2s-24.8 55.2-55.2 55.2-55.2-24.8-55.2-55.2 24.6-55.2 55.2-55.2zM803 549.8c13 0 23.6-10.6 23.6-23.6s-10.6-23.6-23.6-23.6-23.6 10.6-23.6 23.6 10.6 23.6 23.6 23.6zM378.6 378.6c-6.4 0-10.2-3-13.2-8-1.6 4.4-4.6 8-12.2 8-5 0-10-2.8-12.6-7.4h-0.2v6.2h-10v-52.4h10.6v35c0 6.8 4 10.2 8.2 10.2 4.4 0 6.4-2.6 6.4-9.4v-36h10.6v35.2c0 6.8 4 10.2 8.4 10.2 4.2 0 6.4-2.6 6.4-9.4v-36h10.6v39.8c-0.2 10.2-5.6 14-13 14zM53 395h10.6v-10.6h-10.6v10.6zM138.8 378.6c-16.4 0-19.4-14.6-19.4-28.4 0-24.2 10.6-26.8 19.2-26.8 11.4 0 18.4 7.2 18.4 18.8h-10c0-3.2-0.8-11.6-8.4-11.6-7.8 0-8.8 9-8.8 16v3h27.4v5.6c0.2 14.6-3.8 23.4-18.4 23.4zM146.8 356.8h-16.8v1.2c0 6.8 2 13.4 8.8 13.4 6 0 8-5 8-11.6v-3zM100.2 371v0 0c-2.2 4.6-6.4 7.4-12 7.4-8 0-16.2-3.6-16.2-26.8 0-18 4.8-28.2 17.2-28.2 7.4 0 10.2 4.4 11.4 7.8h0.2v-6.4h10v69.6h-10.6v-23.4zM92 331.8c-7.4 0-8.8 7.4-8.8 19.4 0 14.2 2.2 19 8.2 19 8 0 9.6-7.2 9.6-19.8-0.2-11.2-1.8-18.6-9-18.6zM53 377.2h10.6v-52.4h-10.6v52.4zM319.2 335.8v30c0 9.2-7.4 12.8-16.6 12.8-13.8 0-18.4-6.2-18.4-17.2h10c0 5 1 10 8 10 5.6 0 7.2-3 7.2-7.8 0-4.6-2.4-5.6-6.2-6.8l-8.2-2.2c-7.2-2.4-12.2-4.8-12.2-16.4 0-10 5.2-14.8 13.6-14.8 6.2 0 10.2 2.6 13 7.6h0.2c0.2-5 4.2-7 8.8-7 2 0 3.8 0.6 5.2 1.2v6.8c-0.4-0.2-1-0.2-1.8-0.2-1.4 0.2-2.6 2-2.6 4zM309.4 343.6v0c0-7.6-3.2-12.4-9.4-12.4-4.4 0-6.6 3.6-6.6 7.8 0 3.8 1.2 7 4.2 8.4 3.2 1.4 9 2.8 11.6 4.8v-8.6zM23.8 338.8h-0.2l-11.8 55.6h-11.8l16.4-69.6h14l17.6 69.6h-11.8zM420 378.6c-16.4 0-19.4-14.6-19.4-28.4 0-24.2 10.6-26.8 19.2-26.8 11.4 0 18.4 7.2 18.4 18.8h-10c0-3.2-0.8-11.6-8.4-11.6-7.8 0-8.8 9-8.8 16v3h27.4v5.6c0 14.6-3.8 23.4-18.4 23.4zM428 356.8h-16.8v1.2c0 6.8 2 13.4 8.8 13.4 6 0 8-5 8-11.6v-3zM555.4 627.4c-11.4 0-21-9-21-20.8 0-12 9.6-21 21-21s21 9 21 21c0 11.8-9.6 20.8-21 20.8zM555.4 588.6c-9.8 0-17.2 7.8-17.2 18 0 10 7.4 17.8 17.2 17.8 9.6 0 17.2-7.8 17.2-17.8 0-10.2-7.6-18-17.2-18zM565.2 611.8c0 4.6-2.8 7-8.6 7h-9.4v-24.4h3.8v10.6h4l6.6-10.6h4l-7 10.8c3.8 0.2 6.6 2 6.6 6.6zM555 607.8h-4v7.8h5c2.6 0 5.4-0.6 5.4-3.8 0-3.8-3.2-4-6.4-4z" />
<glyph unicode="&#xe61d;" glyph-name="unifi-video-camera-pro" horiz-adv-x="904" d="M55 420.4c38.4 0 65.4 17 75.4 63.8l30.2 142.4h-32.4l-30.8-144.8c-5.2-25.4-18.2-36.8-37.4-36.8-19.6 0-27.2 11.2-21.8 36.8l30.8 144.8h-32.2l-30.4-142.4c-10-46.8 9.6-63.8 48.6-63.8zM355.4 678.2c-41.2-1-68.2-18.4-82.8-39.2-9.6-13.4-14.4-27.6-17-39.4h27.6c2.2 7.8 5.6 16.2 11.2 23.8 9.8 13.4 25.2 25.2 55.2 27.6l5.8 27.2zM217.4 423.4v0h30.6l24.4 115.4c6.6 30.8-6 42.2-29.2 42.2-17 0-33.2-9.4-43.6-21.8h-0.8l3.8 19.4h-29.2l-32.4-155.4h30.6l21.8 102.8c4.2 19.8 18.2 30 30.6 30 15.4 0 19.6-8.2 15.4-27.8l-22-104.8zM256 654.2c17.4 23.8 46.4 44.4 103.6 44.2l5.6 26.6c-67 2.2-108.8-23.6-131-55.2-17.4-24.6-24-50.4-26.4-70h27c2.4 16 8.4 36.6 21.2 54.4zM271 423.4h30.6l32.2 155.4h-30.4zM344.2 627c-16.8-1.2-26.4-8.6-32.8-18.2-2.2-3.4-3.8-3.6-5.2-8.8h32.2l5.8 27zM377.4 515.2h70.8l5.6 30h-70.8l11.8 54.8h70.8l5.8 26.4h-103l-43-203h32.4zM495 627.2l-6.2-27.2h28.8c-0.2 23-22.6 27.2-22.6 27.2zM482.8 423.4l32.2 155.4h-30.6l-32.2-155.4zM814.2 526.2c0-6.186-5.014-11.2-11.2-11.2s-11.2 5.014-11.2 11.2c0 6.186 5.014 11.2 11.2 11.2s11.2-5.014 11.2-11.2zM457.8 369v0l-0.2 8.2h-10.6v-52.4h10.6v31.4c0 9.8 5.8 11.8 10.6 11.8 1.8 0 3.6-0.4 4.4-0.6v10.8c-0.6 0.2-1.4 0.4-2.6 0.4-6 0-9.8-3.8-12.2-9.6zM648 392h-4.6v-15.8h5.2c4 0 7.2 2.2 7.2 7.8 0 5-2 8-7.8 8zM511.6 335.8v0 30c0 9.2-7.4 12.8-16.6 12.8-13.8 0-18.4-6.2-18.4-17.2h10c0 5 1 10 8 10 5.6 0 7.2-3 7.2-7.8 0-4.6-2.4-5.6-6.2-6.8l-8.2-2.2c-7.2-2.4-12.2-4.8-12.2-16.4 0-10 5.2-14.8 13.6-14.8 6.2 0 10.2 2.6 13 7.6h0.2c0.2-5 4.2-7 8.8-7 2 0 3.8 0.6 5.2 1.2v6.8c-0.4-0.2-1-0.2-1.8-0.2-1.4 0.2-2.6 2-2.6 4zM501.6 343.6c0-7.6-3.2-12.4-9.4-12.4-4.4 0-6.6 3.6-6.6 7.8 0 3.8 1.2 7 4.2 8.4 3.2 1.4 9 2.8 11.6 4.8v-8.6zM420 378.6v0c-16.4 0-19.4-14.6-19.4-28.4 0-24.2 10.6-26.8 19.2-26.8 11.4 0 18.4 7.4 18.4 18.8h-10c0-3.2-0.8-11.6-8.4-11.6-7.8 0-8.8 9-8.8 16v3h27.4v5.6c0 14.6-3.8 23.4-18.4 23.4zM428 356.8h-16.8v1.2c0 6.8 2 13.4 8.8 13.4 6 0 8-5 8-11.6v-3zM803 470.8c30.6 0 55.2 24.8 55.2 55.2s-24.8 55.2-55.2 55.2-55.2-24.8-55.2-55.2 24.6-55.2 55.2-55.2zM803 549.8c13 0 23.6-10.6 23.6-23.6s-10.6-23.6-23.6-23.6-23.6 10.6-23.6 23.6 10.6 23.6 23.6 23.6zM803 425.8c55.4 0 100.2 45 100.2 100.2s-44.8 100.2-100.2 100.2-100.2-45-100.2-100.2c0-55.2 44.8-100.2 100.2-100.2zM803 591.6c36.2 0 65.6-29.4 65.6-65.6s-29.4-65.6-65.6-65.6-65.6 29.4-65.6 65.6c0 36.2 29.4 65.6 65.6 65.6zM23.8 338.8h-0.2l-11.8 55.6h-11.8l16.4-69.6h14l17.6 69.6h-11.8zM802.2 400c-69.6 0-125.8 56-125.8 125.6 0 41.4 20.4 79.6 51.6 100.8h-74.8c-28.2 0-51.2-21.8-51.2-49.8v-201.2c0-28.2 23-50.8 51.2-50.8h201.2c28.2 0 49.4 22.6 49.4 50.8v77.6c-22.8-32-59.4-53-101.6-53zM649.6 370.8h-6.4v-18.8h-7.2v45.6h14.4c8.8 0 12.6-5.6 12.6-13.4 0-8.2-4.8-13.4-13.4-13.4zM689.4 351.8c-0.8 0.8-1 2.2-1.2 4-0.2 2.8-0.2 5.4-0.4 8.6-0.2 5-1.6 7.2-6.6 7.2h-6v-19.8h-7.2v45.6h16.2c6.4 0 11.6-3.2 11.6-11.8 0-5.8-2.6-10.4-7.6-11.2v-0.2c4.6-0.4 7-3 7.2-9.4 0-3 0.2-6.6 0.2-9.2 0.2-2.2 1.2-3.4 2.2-4h-8.4zM716.4 351c-10.4 0-15.2 7.4-15.2 23.8s4.6 23.8 15.2 23.8c10.4 0 15.2-7.4 15.2-23.8-0.2-16.4-4.8-23.8-15.2-23.8zM266.8 348.6v0c0-6.4-1-16.8-10.4-16.8-8.2 0-11.8 5.6-11.8 28s3.6 27.4 11.8 27.4c8 0.2 10-7.2 10-13.6v-1.2h11v1.2c0 7.2-1.2 21.8-21 21.8-17.6 0-23-11.2-23-36.2 0-24.8 5.4-36.2 23-36.2 16.4 0 21.4 12.2 21.4 24.8v1.4h-11v-0.6zM183.4 378.6c-15.2 0-19.4-11.2-19.4-27.6 0-16.2 5-27.6 19.4-27.6 14.6 0 19.6 11.2 19.6 27.6 0 16.2-4.4 27.6-19.6 27.6zM183.4 331.2c-7.6 0-9 6.4-9 19.8 0 11.6 1.4 19.8 9 19.8s9-8.2 9-19.8c0-13.4-1.4-19.8-9-19.8zM716.4 393c-4.4 0-7.8-2.6-7.8-18 0-15.8 3.4-18.4 7.8-18.4s7.8 2.6 7.8 18.4c0 15.2-3.4 18-7.8 18zM53 377.2h10.6v-52.4h-10.6v52.4zM681.4 392h-6.2v-14.8h5.8c4.6 0 7.2 2.8 7.2 7.4 0.2 5-2 7.4-6.8 7.4zM319.2 335.8v30c0 9.2-7.4 12.8-16.6 12.8-13.8 0-18.4-6.2-18.4-17.2h10c0 5 1 10 8 10 5.6 0 7.2-3 7.2-7.8 0-4.6-2.4-5.6-6.2-6.8l-8.2-2.2c-7.2-2.4-12.2-4.8-12.2-16.4 0-10 5.2-14.8 13.6-14.8 6.2 0 10.2 2.6 13 7.6h0.2c0.2-5 4.2-7 8.8-7 2 0 3.8 0.6 5.2 1.2v6.8c-0.4-0.2-1-0.2-1.8-0.2-1.4 0.2-2.6 2-2.6 4zM309.4 343.6v0c0-7.6-3.2-12.4-9.4-12.4-4.4 0-6.6 3.6-6.6 7.8 0 3.8 1.2 7 4.2 8.4 3.2 1.4 9 2.8 11.6 4.8v-8.6zM138.8 378.6v0c-16.4 0-19.4-14.6-19.4-28.4 0-24.2 10.6-26.8 19.2-26.8 11.4 0 18.4 7.4 18.4 18.8h-10c0-3.2-0.8-11.6-8.4-11.6-7.8 0-8.8 9-8.8 16v3h27.4v5.6c0.2 14.6-3.8 23.4-18.4 23.4zM146.8 356.8h-16.8v1.2c0 6.8 2 13.4 8.8 13.4 6 0 8-5 8-11.6v-3zM53 395h10.6v-10.6h-10.6v10.6zM378.6 378.6v0c-6.4 0-10.2-3-13.2-8-1.6 4.4-4.6 8-12.2 8-5 0-10-2.8-12.6-7.4h-0.2v6.2h-10v-52.4h10.6v35c0 6.8 4 10.2 8.2 10.2 4.4 0 6.4-2.6 6.4-9.4v-36h10.6v35.2c0 6.8 4 10.2 8.4 10.2 4.2 0 6.4-2.6 6.4-9.4v-36h10.6v39.8c-0.2 10.2-5.6 14-13 14zM100.2 371v0c-2.2 4.6-6.4 7.4-12 7.4-8 0-16.2-3.6-16.2-26.8 0-18 4.8-28.2 17.2-28.2 7.4 0 10.2 4.4 11.4 7.8h0.2v-6.4h10v69.6h-10.6v-23.4zM92 331.8c-7.4 0-8.8 7.4-8.8 19.4 0 14.2 2.2 19 8.2 19 8 0 9.6-7.2 9.6-19.8-0.2-11.2-1.8-18.6-9-18.6zM555.4 627.4c-11.4 0-21-9-21-20.8 0-12 9.6-21 21-21s21 9 21 21c0 11.8-9.6 20.8-21 20.8zM555.4 588.6c-9.8 0-17.2 7.8-17.2 18 0 10 7.4 17.8 17.2 17.8 9.6 0 17.2-7.8 17.2-17.8 0-10.2-7.6-18-17.2-18zM565.2 611.8c0 4.6-2.8 7-8.6 7h-9.4v-24.4h3.8v10.6h4l6.6-10.6h4l-7 10.8c3.8 0.2 6.6 2 6.6 6.6zM555 607.8h-4v7.8h5c2.6 0 5.4-0.6 5.4-3.8 0-3.8-3.2-4-6.4-4z" />
<glyph unicode="&#xe61e;" glyph-name="unifi-video-camera-dome2" horiz-adv-x="912" d="M821.2 534.6c0-6.186-5.014-11.2-11.2-11.2s-11.2 5.014-11.2 11.2c0 6.186 5.014 11.2 11.2 11.2s11.2-5.014 11.2-11.2zM809.8 603.2c-37.6 0-68.2-30.6-68.2-68.2s30.6-68.2 68.2-68.2 68.2 30.6 68.2 68.2c0.2 37.6-30.4 68.2-68.2 68.2zM809.8 517.8c-9.4 0-17 7.6-17 17s7.6 17 17 17 17-7.6 17-17-7.6-17-17-17zM679.944 382.004c-5.148 0-6.072-5.544-6.072-13.4 0-9.042 0.924-13.398 6.072-13.398 5.214 0 6.138 4.356 6.138 13.398 0 7.854-0.924 13.4-6.138 13.4zM645.624 392.3h-6.206v-35.776h6.206c6.206 0 8.78 4.092 8.78 17.886 0 13.272-2.244 17.89-8.78 17.89zM893.4 524.8c-1.2 91.6-83.6 90.2-83.6 90.2-83-1.2-84.2-87.8-84.2-87.8-16-11-19.6-30.8-19.6-30.8s-10.4 31.2-15.2 54.8c-5 24-12 76.8-54.2 76.8h-0.6c-18.8-0.4-34-15.6-34-34.6v-218.2c0-28 22.8-50.8 50.8-50.8h208.2c28 0 50.8 22.8 50.8 50.8v124.2c-3 13.6-18.4 25.4-18.4 25.4zM645.294 350.848h-13.4v47.13h13.4c14.786 0 16.634-9.636 16.634-23.566 0.002-13.928-1.848-23.564-16.634-23.564zM679.944 349.924c-9.836 0-13.202 7.656-13.202 18.68s2.904 18.682 13.202 18.682c10.364 0 13.268-7.658 13.268-18.682s-3.366-18.68-13.268-18.68zM740.338 350.848h-7.128v24.358c0 4.622-1.386 6.402-4.292 6.402s-5.676-2.31-5.676-6.93v-23.83h-7.128v24.358c0 4.622-1.386 6.402-4.358 6.402-2.838 0-5.612-2.31-5.612-6.93v-23.83h-7.128v35.514h6.734v-4.158h0.198c1.784 3.168 5.148 5.082 8.516 5.082 5.082 0 7.196-2.444 8.25-5.412 2.046 3.432 4.688 5.412 8.978 5.412 5.016 0 8.646-2.574 8.646-9.44v-26.998zM772.212 367.68h-18.546v-2.046c0-4.752 0.594-10.824 5.94-10.824 5.084 0 5.678 5.808 5.678 7.92h6.732c0-7.854-4.752-12.804-12.476-12.804-5.808 0-13.004 1.716-13.004 18.152 0 9.306 1.98 19.208 13.136 19.208 9.902 0 12.542-5.942 12.542-15.842v-3.764zM876.8 451.2c-1-1-2.2-2-3.4-3l-1-0.8c-1.4-1.2-2.8-2.4-4.4-3.4-0.6-0.4-1.2-1-2-1.4-16-11.2-35.4-18-56.4-18-20.8 0-41.4 6.8-58.2 19l-1.2 0.8 1.2-0.6c-3.2 2.4-6.4 5-9.2 7.8-0.6 0.4-1.2 0.6-1.6 1-10.4 10.2-18.6 22.8-23.4 37.6 0.8 9.8 6.4 19 15.6 26.8 0.4 0.2 3 2.2 3.2 2.4-0.2 4.2-0.6 14.2-0.6 16.8 0 39.2 33.4 70.8 74.4 70.8s74.4-31.8 74.4-70.8v-0.4c0-2.6 0-5.2-0.2-7.6 0-2.8-0.4-6.2-0.6-8.8 0.8-0.6 1.6-1.2 2.2-1.8 9.4-7.6 15.4-16.8 16.6-26.8-5-15-13.8-28.6-25.4-39.6zM759.606 382.4c-4.554 0-5.94-4.488-5.94-9.11v-0.726h11.418v1.914c0 4.488-1.452 7.922-5.478 7.922zM23.754 338.822h-0.196l-11.778 55.488h-11.78l16.354-69.508h14.116l17.524 69.508h-11.78zM52.954 377.178h10.514v-52.376h-10.514zM52.954 395.090h10.514v-10.514h-10.514zM100.264 371.044h-0.196c-1.946 4.672-6.23 7.496-11.876 7.496-7.982 0-16.16-3.602-16.16-26.87 0-18.010 4.868-28.232 17.134-28.232 7.496 0 10.124 4.38 11.488 7.79h0.196v-6.426h9.93v69.508h-10.514v-23.266zM91.988 331.812c-7.3 0-8.858 7.496-8.858 19.374 0 14.116 2.142 18.982 8.176 18.982 8.080 0 9.542-7.204 9.542-19.762 0-11.196-1.656-18.594-8.86-18.594zM138.81 378.542c-16.452 0-19.374-14.604-19.374-28.33 0-24.24 10.612-26.772 19.178-26.772 11.39 0 18.4 7.3 18.4 18.886h-9.93c0-3.116-0.876-11.682-8.372-11.682-7.886 0-8.762 8.956-8.762 15.964v3.018h27.356v5.548c0 14.606-3.894 23.368-18.496 23.368zM146.792 356.832h-16.842v1.070c0 6.814 2.044 13.434 8.762 13.434 5.938 0 8.080-5.062 8.080-11.682v-2.822zM183.392 378.542c-15.186 0-19.47-11.292-19.47-27.55s4.964-27.55 19.47-27.55c14.602 0 19.568 11.292 19.568 27.55s-4.284 27.55-19.568 27.55zM183.392 331.228c-7.594 0-8.956 6.424-8.956 19.762 0 11.584 1.362 19.762 8.956 19.762 7.69 0 9.054-8.178 9.054-19.762 0-13.338-1.362-19.762-9.054-19.762zM266.718 348.556c0-6.426-1.072-16.744-10.32-16.744-8.178 0-11.876 5.646-11.876 28.038s3.7 27.454 11.876 27.454c7.984 0.292 9.93-7.108 9.93-13.534v-1.168h11.098v1.266c0 7.206-1.168 21.806-20.93 21.806-17.622 0-23.072-11.292-23.072-36.118s5.452-36.118 22.974-36.118c16.356 0 21.416 12.266 21.416 24.824v1.46h-11.098v-1.166zM319.284 335.706v29.984c0 9.25-7.398 12.852-16.646 12.852-13.824 0-18.4-6.132-18.4-17.232h9.93c0 5.062 0.974 10.028 7.982 10.028 5.55 0 7.204-3.018 7.204-7.788 0-4.576-2.336-5.646-6.132-6.716l-8.178-2.24c-7.106-2.336-12.168-4.77-12.168-16.452 0-10.028 5.256-14.702 13.63-14.702 6.132 0 10.222 2.532 13.044 7.692h0.194c0.292-5.062 4.186-6.912 8.86-6.912 2.044 0 3.894 0.682 5.16 1.266v6.814c-0.39-0.196-1.070-0.292-1.752-0.292-1.56-0.002-2.728 1.752-2.728 3.698zM309.354 343.69c0-7.692-3.116-12.46-9.442-12.46-4.38 0-6.522 3.504-6.522 7.884 0 3.894 1.266 7.010 4.284 8.468 3.116 1.46 8.956 2.726 11.682 4.87v-8.762zM378.664 378.542c-6.328 0-10.222-2.922-13.24-7.982-1.558 4.38-4.672 7.982-12.168 7.982-4.964 0-9.93-2.824-12.558-7.496h-0.292v6.132h-9.93v-52.376h10.514v35.144c0 6.814 4.088 10.22 8.276 10.22 4.38 0 6.424-2.628 6.424-9.444v-35.922h10.514v35.144c0 6.814 4.088 10.22 8.372 10.22s6.328-2.628 6.328-9.444v-35.922h10.514v39.822c-0.002 10.124-5.356 13.922-12.754 13.922zM419.934 378.542c-16.452 0-19.374-14.604-19.374-28.33 0-24.24 10.612-26.772 19.178-26.772 11.39 0 18.4 7.3 18.4 18.886h-9.93c0-3.116-0.876-11.682-8.372-11.682-7.886 0-8.762 8.956-8.762 15.964v3.018h27.356v5.548c0 14.606-3.894 23.368-18.496 23.368zM427.916 356.832h-16.842v1.070c0 6.814 2.044 13.434 8.762 13.434 5.938 0 8.080-5.062 8.080-11.682v-2.822zM457.8 369h-0.196v8.178h-10.514v-52.376h10.514v31.348c0 9.734 5.744 11.876 10.514 11.876 1.752 0 3.602-0.39 4.38-0.584v10.708c-0.682 0.196-1.364 0.39-2.532 0.39-5.934 0.002-9.83-3.698-12.166-9.54zM511.536 335.706v29.984c0 9.25-7.398 12.852-16.648 12.852-13.822 0-18.398-6.132-18.398-17.232h9.93c0 5.062 0.972 10.028 7.982 10.028 5.548 0 7.206-3.018 7.206-7.788 0-4.576-2.338-5.646-6.132-6.716l-8.178-2.24c-7.108-2.336-12.17-4.77-12.17-16.452 0-10.028 5.258-14.702 13.628-14.702 6.132 0 10.222 2.532 13.044 7.692h0.196c0.292-5.062 4.186-6.912 8.86-6.912 2.044 0 3.894 0.682 5.16 1.266v6.814c-0.39-0.196-1.072-0.292-1.754-0.292-1.558-0.002-2.726 1.752-2.726 3.698zM501.606 343.69c0-7.692-3.116-12.46-9.444-12.46-4.38 0-6.524 3.504-6.524 7.884 0 3.894 1.266 7.010 4.284 8.468 3.116 1.46 8.958 2.726 11.684 4.87v-8.762zM256 654.2c17.4 23.8 46.4 44.4 103.6 44.2l5.8 26.8c-67.2 2.2-108.8-23.8-131-55.4-17.4-24.6-24-51.2-26.6-70h27c2.6 15.8 8.4 36.6 21.2 54.4zM355.4 678.4c-41.2-1-68.2-18.2-82.8-39.2-9.6-13.4-14.4-27.6-17-39.4h27.6c2.2 7.8 5.6 16.2 11.2 23.8 10 13.4 25.2 25.2 55.2 27.6l5.8 27.2zM344.4 627c-16.6-1.2-26.4-8.8-33-18.4-2.4-3.2-3.8-5.6-5.2-8.8h32.2l6 27.2zM495.4 627l-6.2-27.2h28.8c-0.6 22.2-22.8 27.2-22.6 27.2zM55 420.8c38.4 0 65.2 17 75.2 63.6l30.2 142.4h-32.2l-30.8-145c-5.4-25.4-18.2-36.8-37.4-36.8-19.6 0-27.2 11.4-21.8 36.8l30.8 145h-32.2l-30.2-142.4c-10-46.6 9.6-63.6 48.4-63.6zM217 424.6h30.6l24.4 115c6.4 31-6 41.4-29.2 41.4-17 0-33.2-8.2-43.6-21.8h-0.8l3.8 17.8h-28.8l-32.2-152.6h30.2l21.8 102.2c4.2 20 18.2 29.8 30.6 29.8 15.2 0 19.4-7.6 15.2-27.4l-22-104.4zM271 424.8h30.6l32.2 152.2h-30.6zM377.4 516.4h71l5.6 27.2h-71.2l11.8 56h71l6 27.2h-103.2l-42.8-202.2h32.2zM483 424.8l32.2 152.2h-30.6l-32.2-152.2zM569.2 610.2c0 4.8-3 6.8-8.6 6.8h-8.8v-23.4h3.8v10h3.6l6-10h4.4l-6.6 10.2c3.6 0.4 6.2 2.2 6.2 6.4zM555.8 606.8v6.8h4.6c2.2 0 5-0.4 5-3.2 0-3.4-2.6-3.6-5.4-3.6h-4.2zM559.8 627c-11.2 0-20.8-8.4-20.8-21.2 0-12 8.6-21.2 20.8-21.2 11.2 0 20.8 8.4 20.6 21.2 0 12.8-9.6 21.2-20.6 21.2zM559.8 588.4c-10 0-16.2 7.8-16.2 17.4 0 10.2 7 17.4 16.2 17.4 9 0 16.2-7.2 16.2-17.4s-7.2-17.4-16.2-17.4z" />
<glyph unicode="&#xe61f;" glyph-name="PowerBridge-M10" horiz-adv-x="1666" d="M0 512.6h60c36.4 0 52.4-22.8 52.4-55.2 0-34-20-56-55.6-56h-26.6v-78.4h-30.2v189.6zM30.2 424h21.6c16.2 0 30.2 8.8 30.2 32.6 0 20.4-8.2 33-32.4 33h-19.4v-65.6zM171.8 469.4c41.8 0 53.4-30.8 53.4-75.2s-13.6-75.2-53.4-75.2c-39.6 0-53.2 30.8-53.2 75.2 0.2 44.4 11.8 75.2 53.2 75.2zM171.8 340.4c21 0 24.8 17.6 24.8 54 0 31.6-3.8 54-24.8 54-20.8 0-24.4-22.4-24.4-54 0-36.4 3.8-54 24.4-54zM229.2 465.8h29.8l20-112.6h0.6l21.2 112.6h32.4l21.2-112.6h0.6l19.6 112.6h28.6l-32.6-142.8h-32.2l-22.4 111h-0.6l-20.4-111h-33.4l-32.4 142.8zM439.2 390.6v-8.2c0-19.2 2.4-43.6 24-43.6 20.4 0 22.8 23.4 22.8 31.8h27c0-31.6-19.2-51.6-50.2-51.6-23.4 0-52.4 7-52.4 73 0 37.4 8 77.2 52.8 77.2 39.8 0 50.4-24 50.4-63.8v-15.2h-74.4zM485 410.2v7.8c0 18-5.8 31.8-22 31.8-18.4 0-24-18-24-36.6v-3h46zM530.8 465.8h28.6v-22.4h0.6c6.4 16 17 26 33.2 26 3.2 0 5-0.6 7-1v-29.2c-2.2 0.6-7.2 1.6-12 1.6-13 0-28.6-5.8-28.6-32.4v-85.6h-28.6v143zM609.6 512.6h61.4c28.2 0 51-12.4 51-46 0-23.2-9-37.2-27.8-43v-0.6c20.8-3.8 34-16.2 34-48.4 0-31.6-22.8-51.8-58.4-51.8h-60v189.8zM663.8 432.6c18.4 0 27.8 12.2 27.8 30 0 22.6-13.6 27-30.6 27h-21v-57.2h23.8zM670 345.8c18 0 27.8 11.6 27.8 33.4 0 20.4-12.2 32.2-29.8 32.2h-28v-65.6h30zM743.8 465.8h28.6v-22.4h0.6c6.4 16 17 26 33.2 26 3.2 0 5-0.6 7-1v-29.2c-2.2 0.6-7.2 1.6-12 1.6-13 0-28.6-5.8-28.6-32.4v-85.6h-28.6v143zM822.2 514.6h28.6v-28.6h-28.6v28.6zM822.2 465.8h28.6v-142.8h-28.6v142.8zM946.2 340.4h-0.6c-3.8-9.2-10.8-21.2-31.4-21.2-33.4 0-46.8 27.8-46.8 77 0 63.4 22.4 73.4 44 73.4 15.4 0 27-7.8 32.4-20.4h0.6v63.4h28.6v-189.6h-27v17.4zM920.2 446.6c-16.4 0-22.4-13.2-22.4-51.8 0-32.4 4.2-52.8 24.2-52.8 19.6 0 24.2 20.2 24.2 50.8 0 34.2-4 53.8-26 53.8zM1023 310.6c0-8.8 8-17 20.8-17 14.8 0 24.2 10.4 24.2 26.8v23.2h-0.6c-5.4-12.4-18.6-19.6-32.4-19.6-33.4 0-42.8 33-42.8 72 0 31.4 4.8 73.6 45.4 73.6 16.8 0 28.6-10.8 31.4-21.2h0.6v17.6h27v-136c0-34.8-14.8-55.8-53.4-55.8-42.4 0-47.2 25-47.2 36.6h27zM1043.2 346.8c22.4 0 24.8 28.2 24.8 50.8 0 23.4-3 49.2-22.8 49.2-20.8 0-24.2-21.2-24.2-47.8-0.2-24.6 1-52.2 22.2-52.2zM1140.2 390.6v-8.2c0-19.2 2.4-43.6 24-43.6 20.4 0 22.8 23.4 22.8 31.8h27c0-31.6-19.2-51.6-50.2-51.6-23.4 0-52.4 7-52.4 73 0 37.4 8 77.2 52.8 77.2 39.8 0 50.4-24 50.4-63.8v-15.2h-74.4zM1186 410.2v7.8c0 18-5.8 31.8-22 31.8-18.4 0-24-18-24-36.6v-3h46zM1234.4 473c-11.4 0-19.6 8.6-19.6 19.8 0 12 9 19.8 19.6 19.8 10.4 0 19.4-8 19.4-19.8 0-12-9-19.8-19.4-19.8zM1234.4 509.2c-8.6 0-15.2-6.8-15.2-16.4 0-9 5.8-16.4 15.2-16.4 8.4 0 15.2 6.6 15.2 16.4 0 9.6-6.8 16.4-15.2 16.4zM1230.4 481.4h-3.6v22h8.4c5.4 0 8-1.8 8-6.4 0-4-2.4-5.6-5.8-6l6.2-9.6h-4l-5.6 9.4h-3.4v-9.4zM1234.4 493.8c2.8 0 5 0.2 5 3.4 0 2.6-2.6 3-4.8 3h-4.4v-6.4h4.2zM1282 324c-19 4.2-14 20.2-14 20.2l44 142.8 0.2 0.6c4.4 15.2-21.2 22.2-31.2 23.6-4 0.6-2 2-2 2h98.2l-17.6-139.6h-0.2l66.2 139.6h58.2l-55-189.2h-35.6l49.2 159.6-77-159.6h-40l19.2 163.2-47.2-163.2h-15.4zM1493.4 365.4l31.2 104h-29.8l4.6 15h2.2c13.8 0 30.8 3.2 40.4 21.4l0.6 2.8h16.8l-43-143.2h-23zM1517.4 364.4h-25.4l31.2 104h-29.8l5.2 17.2h3c19 0 32 6.8 39.4 20.8l0.8 3.6h19.2l-0.4-1.4-43.2-144.2zM1494.8 366.6h20.8l42.4 141h-14.6l-0.6-2.2c-8-14.8-21.4-22-41.4-22h-1.4l-4-12.8h29.8l-31-104zM1635.6 511c27.6 0 37.8-17.4 21.2-73-16.8-55.6-37.4-73-65-73s-37.8 17.4-21 73c16.6 55.6 37.2 73 64.8 73zM1596.6 381.2c15.8 0 24.4 15.2 37 56.8s12.8 56.8-3 56.8c-15.8 0-24.2-15.2-36.8-56.8-12.4-41.8-13-56.8 2.8-56.8zM1591.8 363.8c-11.8 0-20 3.2-24.8 9.8-8.2 11-7.4 31.6 2.8 64.6 15.4 51.8 35.2 73.8 65.8 73.8 11.8 0 19.8-3.2 24.8-9.8 8.2-11 7.4-31.6-2.4-64.6-15.8-51.6-35.6-73.8-66.2-73.8zM1635.6 509.8c-20.8 0-44.8-8.6-63.8-72.2-9.6-32-10.6-52.4-3-62.8 4.4-6 12-8.8 23-8.8 20.8 0 44.8 8.6 64 72.2 9.6 32 10.4 52.4 2.8 62.8-4.4 6-11.8 8.8-23 8.8zM1596.6 380c-4.8 0-8.4 1.4-10.4 4.2-5 6.8-3.2 21.4 6.6 54 13.4 44.2 22.2 57.6 37.8 57.6 5 0 8.4-1.4 10.6-4.4 5-6.8 3.2-21.4-6.6-54-11.6-38.8-20.4-57.4-38-57.4zM1630.8 493.6c-14.4 0-22.8-13-35.8-56-8-26.2-12.2-45-7-52 1.8-2.4 4.4-3.4 8.6-3.4 14.6 0 23 13 36 56 9.4 31.4 11.4 45.8 6.8 52-1.6 2.4-4.4 3.4-8.6 3.4z" />
<glyph unicode="&#xe620;" glyph-name="EdgeSwitch" horiz-adv-x="1181" d="M40 511h101.6l-5.6-25.2h-71.6l-11-52h67.4l-5.2-25.2h-67.4l-12.8-60h73.6l-5.2-25.2h-103.8l40 187.6zM194.2 340.6h-0.6c-5.6-9.2-15.2-21-35.6-21-33.2 0-40.6 27.6-30 76.2 13.2 62.8 37.4 72.6 59 72.6 15.2 0 25.2-7.6 27.8-20.2h0.6l13.4 62.8h28.4l-40-187.8h-26.8l3.8 17.4zM190.8 445.8c-16.4 0-25-13.2-32.8-51.2-6.8-32-7.2-52.4 12.6-52.4 19.4 0 28.2 20 34.8 50.2 6.8 34 7.2 53.4-14.6 53.4zM263.8 311c-1.8-8.6 4.4-16.8 17-16.8 14.8 0 26 10.2 29.4 26.6l5 22.8h-0.6c-7.8-12.4-22.6-19.4-36.2-19.4-33.2 0-35.6 32.6-27.4 71.2 6.8 31 20.2 72.8 60.4 72.8 16.6 0 26.4-10.8 26.6-21h0.6l3.6 17.4h26.8l-28-134.6c-7.4-34.4-26.6-55.2-64.8-55.2-42 0-41.6 24.8-39.2 36.2h26.8zM291.4 346.8c22 0 30.6 27.8 35.2 50.2 4.8 23.2 7.4 48.6-12.4 48.6-20.6 0-28.4-21-34-47.4-5-24-9.8-51.4 11.2-51.4zM396.6 390.2l-1.6-8.2c-4.2-19-6.8-43.2 14.4-43.2 20.2 0 27.4 23.2 29.2 31.6h26.8c-6.6-31.4-29.8-51-60.4-51-23.2 0-50.2 6.8-36.6 72.4 7.8 37 24.2 76.6 68.6 76.6 39.4 0 45-23.6 36.6-63.2l-3.2-15h-73.8zM446.4 409.8l1.6 7.6c4 17.8 1 31.6-15 31.6-18.2 0-27.6-17.8-31.6-36.2l-0.6-2.8h45.6zM1145 508h-6v3.2h16v-3.2h-6v-16.6h-4.2v16.6zM1177.6 507v0l-6-15.8h-2.8l-5.8 15.8v-15.8h-3.8v20h5.8l5.4-14.2 5.4 14.2h5.8v-20h-3.8v15.8zM522.2 381.6v-4.8c0-22.8 10-34.4 30.8-34.4 19 0 28.4 13.4 28.4 27.4 0 19.8-10 28.4-26.8 33.4l-20.6 7c-27.4 10.6-39.2 24.8-39.2 51.6 0 34.2 23.2 53.2 58.4 53.2 48.2 0 53.2-30 53.2-49.4v-4.2h-30v4c0 17-7.6 27-26.2 27-12.8 0-25.2-7-25.2-27 0-16 8.2-24.2 28.2-31.8l20.2-7.4c26.6-9.4 38.2-24 38.2-49.6 0-40-24.2-56.6-62-56.6-46.6 0-57 31-57 57.4v4.4h29.6zM619.4 464.8h29.4l19.8-111.4h0.6l21 111.4h32l21-111.4h0.6l19.4 111.4h28.4l-32.4-141.4h-31.8l-22 109.8h-0.6l-20.2-109.8h-33.2l-32 141.4zM803.2 513.2h28.4v-28.4h-28.4v28.4zM803.2 464.8h28.4v-141.4h-28.4v141.4zM842.8 464.8h19.4v40.2h28.4v-40.2h23.2v-21h-23.2v-84.4c0-11 3.2-15 12.8-15 4.2 0 7.6 0.2 10.2 0.8v-21c-6-1.6-14-2.4-22.8-2.4-19.2 0-28.6 5.2-28.6 34.2v87.8h-19.4v21zM1024 375c-1.8-34-13.4-55.2-48.4-55.2-41 0-52.6 30.4-52.6 74.4s11.6 74.4 52.6 74.4c42.4 0.6 48.6-33.2 48.6-50.8h-28.4c0 13.2-3.6 30.2-20.2 29.8-20.6 0-24.2-22-24.2-53.4 0-31.2 3.6-53.4 24.2-53.4 15.8-0.2 21.6 12.8 21.6 34.2h26.8zM1040 511.2h28.4v-61.6l0.8-0.6c7.8 12 20.2 19.4 34.8 19.4 21.6 0 35.2-9.8 35.2-38.4v-106.8h-28.4v97c0 18.4-5.6 25.6-19.8 25.6-11.6 0-22.6-9.2-22.6-27.6v-95h-28.4v188z" />
<glyph unicode="&#xe621;" glyph-name="arrow-down-4" d="M775.856 319.678l-223.744-228.184v868.506h-80.224v-868.506l-223.744 228.184-57.282-56.17 321.138-327.508 321.138 327.508z" />
<glyph unicode="&#xe622;" glyph-name="UniFi-AP-Outdoor-Plus" horiz-adv-x="1368" d="M250.6 554.2c17.4 23.6 46 44.2 103 43.8l5.8 26.4c-66.8 2.2-108.2-23.6-130.2-55.2-17.4-24.4-24-50.8-26.4-69.6h26.8c2.6 16.2 8.4 36.8 21 54.6zM349.4 578.2c-41-1-67.8-18.2-82.4-38.8-9.4-13.4-14.6-27.2-17-39.2h27.6c2.2 7.6 5.8 16.4 10.8 23.6 9.8 13.4 25 25 54.8 27.6l6.2 26.8zM300.4 500.2h32l5.8 26.8c-16.6-1.4-26.2-8.8-32.6-18.2-2.4-3.2-3.8-5.4-5.2-8.6zM488.2 527l-6.2-26.8h28.6c-0.2 22-22.4 26.8-22.4 26.8zM123.6 526.6v0.4l-30.8-144c-5.4-25.4-18.2-36.6-37-36.6-19.6 0-26.8 11.2-21.8 36.6l30.8 144h-32.2l-30-141.6c-9.8-46.4 9.4-63.4 48.2-63.4 38 0 65 17 74.8 63.2l30.2 141.4h-32.2zM237.6 481.2c-17 0-33-8-43.2-21.8h-0.8l3.6 17.8h-28.6l-32-151.2h30.2l21.8 101.6c4.4 19.6 18.2 29.4 30.4 29.4 15.2 0 19.2-7.6 15.2-27.2l-22-103.8h30.4l24.4 114.2c6.2 30.8-6.2 41-29.4 41zM297.4 477.2l-31.8-151.2h30.4l32 151.2zM376.6 444.2l12 56h70.2l6.2 26.8h-102.6l-42.8-201h32l19.6 91.4h70.6l5.4 26.8zM445.8 326h30.2l32.2 151.2h-30.4zM562 510.6c0 4.8-3 6.6-8.4 6.6h-8.8v-23.2h4v9.8h3.6l6.2-9.8h4.4l-6.6 10.2c3 0.2 5.6 2 5.6 6.4zM548.4 507v7h4.8c2.2 0 5-0.4 5-3.2 0-3.2-2.6-3.6-5.4-3.6h-4.4zM552.4 527c-11.2 0-20.6-8.4-20.6-21 0-12 8.8-21 20.6-21 10.8 0 20.6 8.4 20.6 21s-9.2 21-20.6 21zM552.4 488.6c-10.2 0-16.4 8-16.4 17.4 0 10.2 7.2 17.4 16.4 17.4 9 0 16-7.2 16-17.4 0.4-10.2-6.8-17.4-16-17.4zM672.2 425l-25.4-65.2h14.8l5.4 14.6h25l5-14.6h15.2l-25 65.2h-15zM670.8 385.2l8.8 24 8.4-24h-17.2zM755.2 425h-30.4v-65.2h14.8v23.6h15.6c16.6 0 23.2 10.2 23.2 21 0 10.4-6.4 20.6-23.2 20.6zM751.2 394.6h-11.6v19.2h11.6c6.8 0 13-1.4 13-9.8 0.2-8-6-9.4-13-9.4zM579 448.6h6.8v-112h-6.8zM839.4 426.8c-20.6 0-31.2-16.4-31.2-34.4 0-18.2 10.2-34.4 31.2-34.4 20.6 0 30.8 16.4 30.8 34.4 0.4 18.2-10 34.4-30.8 34.4zM839.4 363.4c-17.4 0-24.6 14.6-24.6 29s7.2 29 24.6 29c17.4 0 24.6-14.6 24.6-29 0.2-14.2-7.2-29-24.6-29zM932 384.8h-0.4c0-15.2-7.2-21-19.2-21s-19.2 5.8-19.2 21v40.6h-6.2v-42c0-13.4 7.2-25 25.4-25 18.6 0 25.8 11.6 25.8 25v42h-6.2v-40.6zM950 420h23.4v-60.6h6v60.6h23v5.4h-52.4zM1038.2 425.4h-22.4v-66h22.8c20 0.4 30.2 11.2 30.2 33s-10.6 32.6-30.6 33zM1035.4 364.8h-13.4v55.2h13.4c18.8 0 27.2-8 27.2-27.6s-8.4-27.6-27.2-27.6zM1113.4 426.8c-20.6 0-31.2-16.4-31.2-34.4 0-18.2 10.2-34.4 31.2-34.4 20.6 0 30.8 16.4 30.8 34.4 0.4 18.2-10.2 34.4-30.8 34.4zM1113.4 363.4c-17.4 0-24.6 14.6-24.6 29s7.2 29 24.6 29 24.6-14.6 24.6-29c0-14.2-7.2-29-24.6-29zM1188.8 426.8c-20.6 0-31.2-16.4-31.2-34.4 0-18.2 10.6-34.4 31.2-34.4s31.2 16.4 31.2 34.4c-0.4 18.2-10.6 34.4-31.2 34.4zM1188.8 363.4c-17.4 0-24.6 14.6-24.6 29s7.2 29 24.6 29c17.4 0 24.6-14.6 24.6-29 0-14.2-7.6-29-24.6-29zM1273.6 391.2c8.4 1.8 12.6 8.8 12.6 17 0 12-9 17-20 17h-30.2v-66h6.2v29.4h24c12 0.4 12.6-9.8 13-18.8 0.4-3 0.4-7.6 1.8-10.2h6.8c-3 3.2-3 12.4-3 17 0.2 7.8-2.4 13.6-11.2 14.6zM1266 394.2h-23.6v26.2h23.6c9.4 0 14.2-5 14.2-13 0-8.4-6.6-13.2-14.2-13.2zM1342.2 399.2v25.8h-13.8v-25.8h-25.6v-14h25.6v-25.8h13.8v25.8h25.8v14z" />
<glyph unicode="&#xe623;" glyph-name="arrow-up" d="M322.358 291.486h380.616l-190.308-249.86-190.308 249.86zM193.162 355.486l319.504-419.486 319.504 419.484-639.008 0.002zM832.172 540.514l-319.506 419.486-319.504-419.486z" />
<glyph unicode="&#xe624;" glyph-name="arrow-down" d="M193.162 355.486l319.504-419.486 319.506 419.486zM512.668 854.376l190.308-249.86h-380.616l190.308 249.86zM512.668 960l-319.506-419.486h639.008l-319.502 419.486z" />
<glyph unicode="&#xe625;" glyph-name="arrows-sort" d="M322.358 291.486h380.616l-190.308-249.86-190.308 249.86zM193.162 355.486l319.504-419.486 319.504 419.484-639.008 0.002zM512.668 854.376l190.308-249.86h-380.616l190.308 249.86zM512.668 960l-319.506-419.486h639.008l-319.502 419.486z" />
<glyph unicode="&#xe626;" glyph-name="UniFi-AP-Outdoor" horiz-adv-x="1340" d="M235 500.6c2.6 16 8.4 37.2 21.6 55.4 17.8 24.2 47.2 45.2 105.4 45l5.8 27.2c-68.4 2.2-110.6-24.2-133.4-56.4-17.8-25-24.4-52-27-71.2h27.6zM284.2 500.6c2.2 8 5.8 16.6 11.4 24.2 10 13.6 25.8 25.8 56.2 28.2l6 27.6c-41.8-1-69.4-18.6-84.2-39.8-9.8-13.6-14.6-28-17.2-40zM340.4 500.8l6.2 27.6c-17-1.4-26.8-8.8-33.4-18.6-2.4-3.4-3.8-5.8-5.4-9h32.6zM523.2 500.8h-29.4l6.2 27.6c0 0 22.6-5 23.2-27.6zM66.2 528.2l-31.4-147.6c-5.4-26 2.2-37.4 22.2-37.4 19.6 0 32.6 11.6 38 37.4l31.4 147.6h32.8l-30.8-145c-10-47.6-37.4-64.8-76.6-64.8-39.4 0-59.4 17.2-49.2 64.8l30.8 145h32.8zM172.6 477.6h29.4l-3.8-18.2h0.8c10.6 13.8 27.2 22.2 44.4 22.2 23.6 0 36.2-10.6 29.6-42l-24.8-117h-31.2l22.4 106.4c4.4 20.2 0 28-15.6 28-12.6 0-26.8-10-31.2-30.2l-22.2-104h-30.8l33 154.8zM304.6 477.6h31l-32.8-155h-31.2l33 155zM371 528.2h105l-6-27.6h-72.2l-12-57h72.2l-5.8-27.6h-72.2l-19.8-93.4h-32.8l43.6 205.6zM489.2 477.6h31.2l-32.8-155h-31l32.6 155zM565.8 485.2c-12.4 0-21.2 9.2-21.2 21.6 0 13 9.8 21.6 21.2 21.6 11.2 0 21-8.6 21-21.6s-9.8-21.6-21-21.6zM565.8 524.6c-9.4 0-16.6-7.4-16.6-17.8 0-9.8 6.4-17.8 16.6-17.8 9.2 0 16.4 7.2 16.4 17.8 0 10.4-7.2 17.8-16.4 17.8zM561.6 494.4h-4v23.8h9c5.8 0 8.6-2 8.6-6.8 0-4.4-2.6-6-6.2-6.6l6.6-10.4h-4.4l-6.2 10.2h-3.6v-10.2zM565.8 508c3 0 5.6 0.2 5.6 3.8 0 2.8-2.8 3.2-5.2 3.2h-4.8v-7h4.4zM688.2 424h15.6l25.8-66.8h-15.8l-5.2 14.8h-25.8l-5.4-14.8h-15.4l26.2 66.8zM686.8 383h17.8l-8.6 24.6h-0.2l-9-24.6zM742.2 424h31c17.2 0 23.8-10.6 23.8-21.4s-6.6-21.4-23.8-21.4h-16v-24h-15.2v66.8zM757.2 392.6h11.8c7 0 13.4 1.4 13.4 10s-6.2 10-13.4 10h-11.8v-20zM872.2 425.8c17.6 0 33.4-11.6 33.4-35.2s-16-35.2-33.4-35.2c-17.6 0-33.4 11.6-33.4 35.2s16 35.2 33.4 35.2zM872.2 361.8c13.6 0 26.6 8.6 26.6 28.8s-13 28.8-26.6 28.8-26.6-8.6-26.6-28.8 13.2-28.8 26.6-28.8zM976.2 383c0-12.2-3.2-27.6-27.6-27.6s-27.6 15.4-27.6 27.6v41h6.4v-41c0-17.6 10.4-21.2 21.2-21.2s21.2 3.6 21.2 21.2v41h6.4v-41zM1012.2 417.6h-24.2v6.4h54.8v-6.4h-24.2v-60.6h-6.4v60.6zM1054.2 424h30c18 0 27.2-12.4 27.2-33.4 0-18.8-9-33.4-26.4-33.4h-30.8v66.8zM1060.6 363.4h23.4c11 0 20.6 6.6 20.6 27.2 0 17.8-6.4 27.2-20.6 27.2h-23.4v-54.4zM1158.4 425.8c17.6 0 33.4-11.6 33.4-35.2s-16-35.2-33.4-35.2c-17.6 0-33.4 11.6-33.4 35.2s16 35.2 33.4 35.2zM1158.4 361.8c13.6 0 26.6 8.6 26.6 28.8s-13 28.8-26.6 28.8c-13.6 0-26.6-8.6-26.6-28.8s13.2-28.8 26.6-28.8zM1238 425.8c17.6 0 33.4-11.6 33.4-35.2s-16-35.2-33.4-35.2-33.4 11.6-33.4 35.2c0 23.6 16 35.2 33.4 35.2zM1238 361.8c13.6 0 26.6 8.6 26.6 28.8s-13 28.8-26.6 28.8-26.6-8.6-26.6-28.8 13-28.8 26.6-28.8zM1287.6 424h33.6c10.4 0 20-4 20-18 0-7.2-4-14.2-12-16.2v-0.2c8.8-1.6 10.6-7.6 11-18.6 0.2-4.2 0.6-12.4 2.2-13.8h-7c-1.2 1.4-1.6 6.4-1.6 13.6-0.2 11.8-4.4 15.8-15 15.8h-24.8v-29.4h-6.4v66.8zM1294 393h27c7 0 13.2 2.8 13.2 13 0 9.8-6.8 11.8-12.6 11.8h-27.6v-24.8zM595.4 448h2v-114.8h-2v114.8z" />
<glyph unicode="&#xe627;" glyph-name="lightning-bolt2" d="M551.552 765.824l-14.976-41.216-62.976-173.184-19.584-53.632h241.024l-11.392-13.184-305.024-355.456 14.976 41.216 62.976 173.184 19.584 53.632h-241.024l11.392 13.184 305.024 355.456zM664.192 958.464l-515.968-601.344h270.848l-62.848-173.184-89.984-247.552 171.52 200.064 344.448 401.152h-270.848l62.976 173.184 89.856 247.68z" />
<glyph unicode="&#xe628;" glyph-name="arrow-right-4" d="M640.4 711.8l228.2-223.8h-868.6v-80.2h868.6l-228.2-223.6 56.2-57.2 327.4 321-327.6 321.2-56-57.4z" />
<glyph unicode="&#xe629;" glyph-name="arrow-left-4" d="M383.6 184.2l-228.2 223.6h868.6v80.2h-868.6l228.2 223.8-56.2 57.2-327.4-321 327.6-321.2 56 57.4z" />
<glyph unicode="&#xe62a;" glyph-name="arrow-up-4" d="M248.2 576.4l223.6 228.2v-868.6h80.2v868.6l223.8-228.2 57.2 56.2-321 327.4-321.2-327.6 57.4-56z" />
<glyph unicode="&#xe62b;" glyph-name="mSensor" horiz-adv-x="824" d="M121.4 465.8c-16 0-25.8-7.4-33.4-20.2-4 11-11.8 20.2-30.6 20.2-12.6 0-25-7.2-31.6-18.8h-0.8v15.4h-25v-132h26.4v88.6c0 17.2 10.4 25.8 20.8 25.8 11 0 16.2-6.6 16.2-23.8v-90.6h26.6v88.6c0 17.2 10.4 25.8 21 25.8 10.8 0 16-6.6 16-23.8v-90.6h26.4v100.4c0.2 25.4-13.4 35-32 35zM245 426l-18.8 6.8c-18.6 7.2-26.2 14.8-26.2 29.6 0 18.6 11.6 25.2 23.6 25.2 17.4 0 24.6-9.4 24.6-25.2v-3.6h28v4c0 18.2-4.6 46.2-49.6 46.2-32.8 0-54.4-17.6-54.4-49.6 0-25 11-38.2 36.6-48l19.2-6.6c15.6-4.6 25-12.8 25-31.2 0-13-8.8-25.6-26.4-25.6-19.4 0-28.6 10.8-28.6 32.2v4.4h-28v-4.2c0-24.6 9.8-53.4 53.2-53.4 35.4 0 57.8 15.4 57.8 52.8-0.4 24-11.2 37.4-36 46.2zM340.4 465.8c-41.4 0-48.8-36.8-48.8-71.4 0-61 26.8-67.4 48.4-67.4 28.6 0 46.4 18.4 46.4 47.6h-25c0-7.8-2.2-29.4-21-29.4-19.8 0-22 22.6-22 40.2v7.6h69v14c-0.4 36.8-10.2 58.8-47 58.8zM360.6 411.2h-42.4v2.6c0 17.2 5.2 33.8 22 33.8 15 0 20.4-12.8 20.4-29.4v-7zM462.4 465.8c-14.8 0-27.2-7.2-33.8-18.8h-0.8v15.4h-25v-132h26.4v88.6c0 17.2 10.4 25.8 21 25.8 13.2 0 18.4-6.6 18.4-23.8v-90.6h26.4v99.6c0.2 26.8-12.6 35.8-32.6 35.8zM570.8 405.2l-17 5.8c-14 5-18.6 9-18.6 19.4 0 12.2 8.4 17.2 18.8 17.2 13.8 0 17.4-9.8 17.4-20.4v-3.4h25v5.8c0 16.4-7.6 36-41.2 36-27.2 0-45.2-11.6-45.2-36.4 0-21 8.4-31.2 28.2-38l21.8-7.2c9.4-3.2 14.4-9.6 14.4-19.4 0-12-7.2-19.4-21.6-19.4-15.2 0-20.6 8.4-20.6 23.6v4.2h-23.6v-5c0-25.6 10-41 43.4-41 26.8 0 47.4 12 47.4 40.2 0.2 20.8-9 31.4-28.6 38zM657 465.8c-38.2 0-49-28.4-49-69.4s12.6-69.4 49-69.4c36.8 0 49.4 28.4 49.4 69.4-0.2 41-11 69.4-49.4 69.4zM657 346.6c-19.2 0-22.6 16.2-22.6 49.8 0 29.2 3.4 49.8 22.6 49.8 19.4 0 22.8-20.6 22.8-49.8 0-33.6-3.6-49.8-22.8-49.8zM747.4 441.8h-0.4v20.6h-26.4v-132h26.4v79c0 24.6 14.4 30 26.4 30 4.4 0 9-1 11-1.4v27c-1.8 0.4-3.4 1-6.4 1-14.8-0.2-24.6-9.4-30.6-24.2zM818.6 505.8l-5-13.2-5 13.2h-5.4v-18.6h3.6v14.6l5.6-14.6h2.4l5.4 14.6h0.2v-14.6h3.6v18.6zM784.6 502.6h5.4v-15.4h4v15.4h5.4v3.2h-14.8z" />
<glyph unicode="&#xe62c;" glyph-name="rain" d="M173.8 506.2c0 0-173.8-216.6-173.8-312.6s77.8-173.8 173.8-173.8 173.8 77.8 173.8 173.8-173.8 312.6-173.8 312.6v0zM207.2 350.6c74.2-113 76.4-153 76.4-157.2 0-60.6-49.2-109.8-109.8-109.8s-109.8 49.4-109.8 110c0 4.2 2.2 44 75.8 156.4 11.6 17.6 23.2 34.4 34 49.4 10.6-14.8 22-31.4 33.4-48.8zM850.2 506.2v0c0 0-173.8-216.6-173.8-312.6s77.8-173.8 173.8-173.8 173.8 77.8 173.8 173.8-173.8 312.6-173.8 312.6zM850.2 83.6c-60.6 0-109.8 49.2-109.8 109.8 0 4.2 2.2 44 75.8 156.4 11.6 17.8 23.2 34.6 34 49.6 10.6-14.8 22-31.4 33.4-48.8 74.2-113 76.4-153 76.4-157.2 0-60.6-49.2-109.8-109.8-109.8zM510.2 870.2v0c0 0-173.8-216.6-173.8-312.6s77.8-173.8 173.8-173.8 173.8 77.8 173.8 173.8-173.8 312.6-173.8 312.6zM510.2 447.6c-60.6 0-109.8 49.2-109.8 109.8 0 4.2 2.2 44 75.8 156.4 11.6 17.8 23.2 34.6 34 49.6 10.6-14.8 22-31.4 33.4-48.8 74.2-113 76.4-153 76.4-157.2 0-60.6-49.2-109.8-109.8-109.8z" />
<glyph unicode="&#xe62d;" glyph-name="day-night" d="M154.802 663.61c0-3.43 0.13-6.828 0.386-10.192 0.17-2.242 0.398-4.468 0.678-6.678 0.282-2.21 0.616-4.402 1.004-6.576s0.83-4.33 1.322-6.466c0.494-2.136 1.038-4.252 1.634-6.348s1.24-4.17 1.934-6.22c0.956-2.828 2.014-5.61 3.152-8.348l-78.83-45.512 17.152-29.708 78.856 45.528c1.774-2.314 3.622-4.568 5.54-6.76s3.908-4.318 5.966-6.376c3.746-3.746 7.714-7.268 11.884-10.544 0.834-0.656 1.676-1.302 2.526-1.936 1.7-1.272 3.432-2.502 5.192-3.692s3.554-2.338 5.374-3.446c1.82-1.108 3.67-2.17 5.546-3.19 0.692-0.376 1.392-0.74 2.090-1.102l-31.132-85.544 32.236-11.734 31.136 85.542 2.116-0.46c2.156-0.442 4.33-0.83 6.522-1.164s4.402-0.616 6.628-0.842c4.452-0.452 8.97-0.684 13.542-0.684 9.896 0 19.534 1.094 28.808 3.152l31.134-85.542 32.236 11.734-31.134 85.542c2.596 1.35 5.146 2.778 7.638 4.292 1.82 1.106 3.612 2.256 5.374 3.446 2.642 1.786 5.218 3.664 7.718 5.63 4.17 3.276 8.138 6.8 11.884 10.544 4.116 4.116 7.956 8.51 11.506 13.136l78.856-45.528 17.152 29.708-78.83 45.512c1.966 4.726 3.672 9.586 5.086 14.568 0.596 2.096 1.14 4.212 1.634 6.348s0.934 4.292 1.322 6.466c0.388 2.174 0.724 4.368 1.004 6.576 0.28 2.21 0.508 4.436 0.678 6.678 0.256 3.364 0.386 6.762 0.386 10.192 0 1.982-0.052 3.952-0.138 5.914l89.676 15.812-5.958 33.784-89.638-15.806c-2.814 8.97-6.556 17.53-11.114 25.566-0.652 1.148-1.32 2.286-2.004 3.412-0.554 0.91-1.116 1.814-1.692 2.71-2.872 4.478-6.006 8.774-9.38 12.862-0.674 0.818-1.36 1.628-2.054 2.428-0.85 0.98-1.718 1.944-2.596 2.9l58.532 69.754-26.278 22.050-58.518-69.738c-0.864 0.552-1.734 1.098-2.612 1.63-8.192 4.978-16.968 9.092-26.2 12.216-2.052 0.694-4.126 1.34-6.22 1.934-6.196 1.76-12.578 3.076-19.108 3.922v91.038h-34.304v-91.040c-1.010-0.13-2.016-0.27-3.020-0.422-2.192-0.334-4.368-0.724-6.522-1.164-2.156-0.442-4.292-0.934-6.408-1.48-1.058-0.272-2.11-0.558-3.158-0.854-1.572-0.446-3.13-0.92-4.678-1.424-4.642-1.506-9.17-3.262-13.57-5.252-2.934-1.326-5.81-2.756-8.626-4.286-1.876-1.020-3.726-2.084-5.546-3.19-0.878-0.534-1.748-1.078-2.612-1.63l-58.518 69.738-26.278-22.050 58.53-69.754c-2.948-3.208-5.74-6.562-8.364-10.048s-5.080-7.108-7.356-10.85c-1.368-2.252-2.672-4.55-3.906-6.888-3.706-7.014-6.798-14.402-9.212-22.090l-89.636 15.806-5.958-33.784 89.676-15.812c-0.086-1.962-0.138-3.932-0.138-5.916zM195.058 697.284c3.946 10.77 9.74 20.654 16.978 29.286 7.378 8.8 16.272 16.278 26.272 22.058 9.684 5.596 20.4 9.582 31.796 11.6 5.574 0.986 11.298 1.532 17.152 1.532s11.578-0.544 17.152-1.532c11.396-2.018 22.112-6.004 31.796-11.6 9.998-5.78 18.894-13.256 26.272-22.058 7.238-8.632 13.030-18.516 16.976-29.286 3.85-10.508 5.952-21.85 5.952-33.674l-0.002-0.112c-0.014-11.706-2.090-22.938-5.878-33.354-3.976-10.928-9.848-20.946-17.206-29.676-7.296-8.66-16.062-16.034-25.908-21.758-9.8-5.696-20.666-9.74-32.226-11.758-5.504-0.962-11.154-1.492-16.928-1.492s-11.424 0.53-16.928 1.492c-11.56 2.020-22.426 6.062-32.226 11.758-9.846 5.722-18.612 13.096-25.908 21.756-7.356 8.732-13.23 18.75-17.206 29.676-3.79 10.416-5.866 21.648-5.88 33.354l-0.002 0.112c0 11.828 2.102 23.17 5.952 33.676zM0-64h1024v1024l-1024-1024zM741.868 80c-99.344 0-179.868 80.524-179.868 179.886 0 82.030 55.214 150.458 130.282 172.114-13.838-23.958-22.344-51.37-22.342-81.020 0-90.018 72.96-163.042 163.022-163.042 29.646 0 57.060 8.508 81.038 22.344-21.656-75.026-90.104-130.282-172.132-130.282zM636.15 350.98c0 3.090 0.074 6.172 0.222 9.242-3.764-3.888-7.312-7.984-10.62-12.274-19.598-25.414-29.958-55.866-29.958-88.062 0-39.030 15.194-75.72 42.784-103.31 27.588-27.59 64.272-42.784 103.294-42.784 32.188 0 62.642 10.364 88.068 29.974 4.282 3.302 8.374 6.846 12.256 10.602-3.068-0.148-6.144-0.222-9.23-0.222-52.584 0-102.014 20.48-139.186 57.666-37.164 37.178-57.63 86.602-57.63 139.168z" />
<glyph unicode="&#xe62e;" glyph-name="microphone" d="M512.006 276.938c94.098 0 170.408 76.278 170.408 170.398v342.266c-0.010 94.088-76.32 170.398-170.408 170.398-94.12 0-170.398-76.31-170.398-170.398v-342.266c-0.012-94.122 76.266-170.398 170.398-170.398zM405.608 789.602c0 58.668 47.73 106.398 106.398 106.398s106.402-47.734 106.408-106.398v-342.266c0-58.668-47.734-106.398-106.408-106.398-28.432 0-55.154 11.066-75.248 31.158-20.090 20.090-31.154 46.808-31.15 75.24v342.266zM761.84 516.608v-69.502c0-137.782-112.062-249.844-249.846-249.844s-249.846 112.062-249.846 249.844v69.502h-68.302v-69.502c0-163.894 124.568-299.194 283.996-316.296v-126.496h-187.902v-68.314h444.132v68.314h-187.914v126.496c159.428 17.092 283.996 152.39 283.996 316.296v69.502h-68.314z" />
<glyph unicode="&#xe62f;" glyph-name="snowflake" d="M1024 480h-163.2l104.2 104.2-45.2 45.2-149.4-149.4h-203l101.4 175.8 204.2 54.6-16.6 61.8-142.2-38 81.6 141.2-55.6 32-81.4-141.2-38.2 142.2-61.8-16.6 54.6-204-101.4-175.8-97 168 54.6 204-61.8 16.6-38-142.2-86 149-55.6-32 86.2-149-142.4 38.2-16.6-62 204.2-54.6 97-168h-194l-149.4 149.4-45.2-45.2 104-104.2h-172v-64h172l-104-104.2 45.2-45.2 149.4 149.4h194l-97-168-204.2-54.6 16.6-62 142.4 38.2-86.2-149 55.6-32 86 149 38-142.2 61.8 16.6-54.6 204 97 168 101.4-175.8-54.6-204 61.8-16.6 38.2 142.2 81.4-141.2 55.6 32-81.6 141.2 142.2-38 16.6 61.8-204.2 54.6-101.4 175.8h203l149.4-149.4 45.2 45.2-104.2 104.2h163.2z" />
<glyph unicode="&#xe630;" glyph-name="hard-drive" d="M814 896.758v-0.758h-599.804l-83.802-716h-0.394v-180h768v180h0.134l-84.134 716.758zM264.176 840h500.676l73.974-634h-649.1l74.45 634zM842 56h-656v94h656v-94zM768 128h40v-44h-40zM708 128h40v-44h-40z" />
<glyph unicode="&#xe631;" glyph-name="camera-add" d="M111.6 310.8l61-177 58 19.6-61 177zM778.4 88.6l-79.4 78.6c17 21.6 23.8 50.2 17 78.4l207 70.4-36.78 106.026c-2.928-1.824-5.88-3.616-8.876-5.34-4.076-2.344-8.214-4.592-12.412-6.742-10.992-5.63-22.394-10.57-34.14-14.792l14.408-41.552-504-171.4-79.6 229.6 238.292 81.038c-4.888 6.394-9.534 12.982-13.89 19.776-2.532 3.95-4.972 7.964-7.316 12.040-3.516 6.114-6.816 12.368-9.892 18.75l-1.174 2.516-467.62-159.12 19.8-57.4 183.8 62.6 99.4-287 237.8 81c18-40 62.2-61.8 105.2-52l107-106h271v60.6h-245.6zM564.868 514.936c1.932-2.078 3.894-4.138 5.912-6.156 43.064-43.064 100.32-66.78 161.22-66.78 26.97 0 53.22 4.66 77.844 13.582 19.404 7.032 37.792 16.718 54.722 28.87 10.1 7.248 19.69 15.362 28.654 24.328 43.064 43.064 66.78 100.32 66.78 161.22 0 60.902-23.716 118.156-66.78 161.22s-100.318 66.78-161.22 66.78c-60.9 0-118.156-23.716-161.22-66.78s-66.78-100.318-66.78-161.22c0-36.51 8.534-71.706 24.64-103.324 9.5-18.65 21.644-36.050 36.228-51.74zM571.854 696.616h135.424v136.356h53.116v-136.356h135.424v-52.182h-135.424v-136.046h-53.116v136.046h-135.424v52.182z" />
<glyph unicode="&#xe632;" glyph-name="camera-hd" d="M111.6 414.8l61-177 58 19.6-61 177zM778.4 192.6l-79.4 78.6c17 21.6 23.8 50.2 17 78.4l207 70.4-119.4 344.2-803.6-273.4 19.8-57.4 183.8 62.6 99.4-287 237.8 81c18-40 62.2-61.8 105.2-52l107-106h271v60.6h-245.6zM341.2 286.2l-79.6 229.6 504 171.4 79.6-229.6-504-171.4zM477.118 556.56l24.012-70.408-76.746-26.178-24.012 70.408-30.678-10.462 55.83-163.68 30.676 10.464-24.404 71.538 76.746 26.176 24.404-71.54 30.676 10.464-55.83 163.68zM603.342 599.612l-62.484-21.312 55.828-163.68 62.484 21.31c49.466 16.874 71.354 61.996 54.946 110.102-16.372 47.996-61.308 70.452-110.774 53.58zM650.908 460.156l-31.808-10.848-39.304 115.234 31.808 10.848c31.922 10.888 59.142-4.090 71.382-39.972 12.238-35.884-0.158-64.376-32.078-75.262z" />
<glyph unicode="&#xe633;" glyph-name="wide-angle" d="M1005.562 655.26l-495.34-349.166-491.696 349.104-37.052-52.186 528.614-375.312 532.35 375.25zM510.224 560.072c68.852 0 133.738-33.614 173.566-89.916l39.188 27.72c-48.81 69-128.346 110.196-212.752 110.196-84.096 0-163.46-40.952-212.296-109.542l39.102-27.84c39.846 55.968 104.592 89.382 173.192 89.382z" />
<glyph unicode="&#xe634;" glyph-name="asterisk-light" d="M466.468-64v365.958c0 39.52 3.436 63.574 22.336 103.088-25.772-34.362-46.39-48.108-80.752-68.722l-323.008-187.276-42.95 75.598 323.008 188.99c32.644 18.9 58.416 25.772 99.648 32.648-42.95 6.872-67.004 17.178-99.648 36.080l-326.444 188.994 44.668 77.316 324.726-188.994c36.080-22.336 51.544-39.52 84.188-79.034-18.896 42.95-25.772 72.158-25.772 111.678v367.676h89.342v-365.958c0-41.238-3.436-70.444-22.332-111.678 27.49 39.514 46.386 56.698 82.47 77.316l323.008 187.276 44.672-77.316-323.012-187.276c-34.362-20.618-60.134-30.926-99.648-36.080 41.232-6.876 65.288-13.748 99.648-32.648l324.726-188.99-42.95-77.316-326.444 188.994c-34.366 20.614-53.262 32.644-82.47 72.158 13.742-41.232 22.332-65.288 22.332-104.806v-367.676h-89.342z" />
<glyph unicode="&#xe635;" glyph-name="document" d="M672.6 960h-545.6v-1024h770.2v799.6l-224.6 224.4zM670.6 894l164.8-164.8h-164.8v164.8zM175-16v928h463.8v-214.6h210.4v-713.4h-674.2zM281 617.8h277.4v-32h-277.4zM281 503.8h462v-32h-462zM281 389.8h462v-32h-462zM281 275.8h462v-32h-462z" />
<glyph unicode="&#xe636;" glyph-name="bridge" d="M974.2 359.8c-35.4 20.2-75.4 58.2-110.6 106.8-41.2 56.8-70.6 120.4-86 183.6v95.8h-56v-84.2c-29.2-68.8-108.2-118.4-200.8-118.4s-171.6 49.6-200.8 118.4v84.2h-56v-93.2c-16-64-47.4-128.4-91.4-185.8-37.4-49-80.6-87-119-107.2h-54v-64h264.4v-139.8h56v139.8h401.6v-139.8h56v139.8h246v64h-49.4zM112.4 359.8c29.2 22.4 58.4 52.2 85.6 87.6 26.4 34.4 48.6 71.4 66 109.4v-197h-151.6zM320 359.8v241c44.2-54.2 117.8-89.6 200.8-89.6s156.6 35.4 200.8 89.6v-241.2h-401.6zM777.6 359.8v192.2c16-36.2 36.2-71.4 60-104.2 25.6-35.4 53.6-65.2 81.4-88h-141.4z" />
<glyph unicode="&#xe637;" glyph-name="UniFi-AP-Outdoor-5" horiz-adv-x="1362" d="M250.6 554.2c17.4 23.6 46 44.2 103 43.8l5.8 26.4c-66.8 2.2-108.2-23.6-130.2-55.2-17.4-24.4-24-50.8-26.4-69.6h26.8c2.6 16.2 8.4 36.8 21 54.6v0zM349.4 578.2c-41-1-67.8-18.2-82.4-38.8-9.4-13.4-14.6-27.2-17-39.2h27.6c2.2 7.6 5.8 16.4 10.8 23.6 9.8 13.4 25 25 54.8 27.6l6.2 26.8zM300.4 500.2h32l5.8 26.8c-16.6-1.4-26.2-8.8-32.6-18.2-2.4-3.2-3.8-5.4-5.2-8.6v0zM488.2 527l-6.2-26.8h28.6c-0.2 22-22.4 26.8-22.4 26.8zM123.6 526.6v0.4l-30.8-144c-5.4-25.4-18.2-36.6-37-36.6-19.6 0-26.8 11.2-21.8 36.6l30.8 144h-32.2l-30-141.6c-9.8-46.4 9.4-63.4 48.2-63.4 38 0 65 17 74.8 63.2l30.2 141.4h-32.2zM237.6 481.2c-17 0-33-8-43.2-21.8h-0.8l3.6 17.8h-28.6l-32-151.2h30.2l21.8 101.6c4.4 19.6 18.2 29.4 30.4 29.4 15.2 0 19.2-7.6 15.2-27.2l-22-103.8h30.4l24.4 114.2c6.2 30.8-6.2 41-29.4 41zM297.4 477.2l-31.8-151.2h30.4l32 151.2h-30.6zM376.6 444.2l12 56h70.2l6.2 26.8h-102.6l-42.8-201h32l19.6 91.4h70.6l5.4 26.8h-70.6zM445.8 326h30.2l32.2 151.2h-30.4l-32-151.2zM672.2 425l-25.4-65.2h14.8l5.4 14.6h25l5-14.6h15.2l-25 65.2h-15zM670.8 385.2l8.8 24 8.4-24h-17.2zM755.2 425h-30.4v-65.2h14.8v23.6h15.6c16.6 0 23.2 10.2 23.2 21 0 10.4-6.4 20.6-23.2 20.6v0zM751.2 394.6h-11.6v19.2h11.6c6.8 0 13-1.4 13-9.8 0.2-8-6-9.4-13-9.4zM579 448.6h6.8v-112h-6.8v112zM839.4 426.8c-20.6 0-31.2-16.4-31.2-34.4 0-18.2 10.2-34.4 31.2-34.4 20.6 0 30.8 16.4 30.8 34.4 0.4 18.2-10 34.4-30.8 34.4zM839.4 363.4c-17.4 0-24.6 14.6-24.6 29s7.2 29 24.6 29 24.6-14.6 24.6-29c0.2-14.2-7.2-29-24.6-29zM932 384.8h-0.4c0-15.2-7.2-21-19.2-21s-19.2 5.8-19.2 21v40.6h-6.2v-42c0-13.4 7.2-25 25.4-25 18.6 0 25.8 11.6 25.8 25v42h-6.2v-40.6zM950 420h23.4v-60.6h6v60.6h23v5.4h-52.4v-5.4zM1038.2 425.4h-22.4v-66h22.8c20 0.4 30.2 11.2 30.2 33s-10.6 32.6-30.6 33zM1035.4 364.8h-13.4v55.2h13.4c18.8 0 27.2-8 27.2-27.6s-8.4-27.6-27.2-27.6v0zM1113.4 426.8c-20.6 0-31.2-16.4-31.2-34.4 0-18.2 10.2-34.4 31.2-34.4 20.6 0 30.8 16.4 30.8 34.4 0.4 18.2-10.2 34.4-30.8 34.4zM1113.4 363.4c-17.4 0-24.6 14.6-24.6 29s7.2 29 24.6 29 24.6-14.6 24.6-29c0-14.2-7.2-29-24.6-29zM1188.8 426.8c-20.6 0-31.2-16.4-31.2-34.4 0-18.2 10.6-34.4 31.2-34.4s31.2 16.4 31.2 34.4c-0.4 18.2-10.6 34.4-31.2 34.4zM1188.8 363.4c-17.4 0-24.6 14.6-24.6 29s7.2 29 24.6 29 24.6-14.6 24.6-29c0-14.2-7.6-29-24.6-29zM1273.6 391.2c8.4 1.8 12.6 8.8 12.6 17 0 12-9 17-20 17h-30.2v-66h6.2v29.4h24c12 0.4 12.6-9.8 13-18.8 0.4-3 0.4-7.6 1.8-10.2h6.8c-3 3.2-3 12.4-3 17 0.2 7.8-2.4 13.6-11.2 14.6v0zM1266 394.2h-23.6v26.2h23.6c9.4 0 14.2-5 14.2-13 0-8.4-6.6-13.2-14.2-13.2zM1341.8 404.2c-5.2 0-9.4-1.4-12.8-5l-0.2 0.2 2.6 15h27.2v11h-36.8l-6.4-36.4h12c2.6 3.6 5.2 5.2 10 5.2 7.2 0 11.4-5.4 11.4-12.4 0-6.6-4.4-12.8-11.4-12.8-5.8 0-10.2 4-10.8 9.8h-13.4c0.2-13.8 11.6-20.8 24.4-20.8 13.2-0.2 24.4 10.2 24.4 23.8 0.2 12.2-7.2 22.4-20.2 22.4v0zM552.6 526.6c-11.4 0-21-9-21-20.8 0-12 9.6-21 21-21s21 9 21 21c-0.2 11.8-9.6 20.8-21 20.8zM552.6 488c-9.8 0-17.2 7.8-17.2 18 0 10 7.4 17.8 17.2 17.8 9.6 0 17.2-7.8 17.2-17.8-0.2-10.4-7.6-18-17.2-18zM562.4 511c0 4.6-2.8 7-8.6 7h-9.4v-24.4h3.8v10.4h4l6.6-10.6h4l-7 10.8c3.8 0.6 6.6 2.4 6.6 6.8zM552.2 507.2h-4v7.8h5c2.6 0 5.4-0.6 5.4-3.8 0-3.8-3.2-4-6.4-4z" />
<glyph unicode="&#xe638;" glyph-name="airOSX-market2" horiz-adv-x="1478" d="M424.8 603.2c-62.6 0-90.2-44.2-90.2-141.6s27.6-141.6 90.2-141.6 90.2 44.2 90.2 141.6c0 97.2-27.6 141.6-90.2 141.6zM424.8 352.8c-26 0-46.6 16-46.6 110 0 91.8 20.6 107.8 46.6 107.8s46.6-16.2 46.6-107.8c0-94-20.6-110-46.6-110zM177.8 495l-36.2-170.6h34.4l36 170.6zM223.2 568.4c10.6-7 20-19 20.2-46h17.2c0.4 31.4-12.6 50.8-27.8 60.6s-31.4 10.8-39.2 11h-2.6v-17.4h2.6c6 0 19-1.2 29.6-8.2zM641.8 474.8l-29.4 10.6c-29 11-40.8 23-40.8 46.2 0 29 17.8 39.4 36.6 39.4 27.2 0 38.2-14.6 38.2-39.4v-5.8h43.6v6.2c0 28.2-7.4 71.8-77.2 71.8-51.2 0-84.8-27.6-84.8-77.2 0-39 17.2-59.6 57-74.8l29.8-10.4c24.4-7.4 39-20 39-48.6 0-20.4-13.8-39.8-41.2-39.8-30 0-44.6 16.8-44.6 50v7.2h-43.8v-6.6c0-38.2 15.2-83.2 82.8-83.2 55 0 90.2 24.2 90.2 82.2 0 37.4-16.8 58.4-55.4 72.2zM268 468.4h-0.6l5.8 26.6h-34.2l-36.2-170.6h34.2l21.6 102c7 31.8 27 38.6 42.4 38.6 5.8 0 11.8-1.2 14-1.8l7.2 34.8c-2 0.8-4.2 1.4-8 1.4-19.4 0-34.6-12-46.2-31zM96 499.4c-45 0-64-20-71.6-56.2h32.4c3.4 16.4 10.2 32.6 33 32.6 18 0 21.2-9.8 18-25.4-3.2-15-11.8-18.4-24.8-21.8l-28.2-7.2c-24.8-7.6-42.8-15.6-51-53.6-7-32.6 7-47.8 34.2-47.8 20 0 35.2 8.2 47.8 25h0.6c-2.6-16.4 8.8-22.6 24-22.6 6.6 0 13 2.2 17.4 4.2l4.8 22.2c-1.2-0.6-3.4-1-5.8-1-5 0-7.6 5.8-6.4 12l21 97.8c6.4 30.2-15.2 41.8-45.4 41.8zM93.8 385.8v0c-5.4-25-18.8-40.6-39.4-40.6-14.2 0-18.8 11.4-15.8 25.6 2.8 12.6 9.2 22.8 20 27.6 11.2 4.8 31 8.8 41.2 15.8l-6-28.4zM963.6 603.2l-62.4-91.8-15.6 91.8h-98c0 0-3-2 2.8-2.8 13.2-1.8 44-10 46.6-27.4v-0.4l21.2-99-113.4-148.8h64.4l69 99.2 17.6-99.2h54.4l-29 137.8 104.8 140.6h-62.4zM242 594c16.8-11 31.6-30.6 31.8-71.4h17.2c0.2 45.2-18.2 72.2-39.6 86s-44.6 15.4-55.6 15.4h-4.6v-17.4c0.8 0 2.2 0.2 4.6 0.2 9.2 0 29.4-1.8 46.2-12.8zM204.8 542.6c4.2-2.8 8-7 8.2-19.4v-0.6h17.2v0.8c0.2 16.6-7.2 28.2-16 33.8s-17.6 6-22 6.2h-1.2v-17.2c0.2-0.2 0.4-0.2 1.2-0.2 2.6 0 8.4-0.6 12.6-3.4zM737.6 585c0 5.2-3.2 7.4-9.4 7.4h-9.8v-25.8h4.2v11h4l6.6-11h4.8l-7.2 11.4c4 0.4 6.8 2.4 6.8 7zM722.6 581.4v7.6h5.2c2.6 0 5.6-0.4 5.6-3.4 0-3.8-2.8-4-6-4h-4.8v-0.2zM727.2 603.4c-12.4 0-23-9.4-23-23.4 0-13.4 9.6-23.4 23-23.4 12.2 0 22.8 9.4 22.8 23.4s-10.6 23.4-22.8 23.4zM727.2 560.8c-11.2 0-18 8.6-18 19.4 0 11.4 7.8 19.4 18 19.4 10 0 17.8-8 17.8-19.4 0-11.6-7.8-19.4-17.8-19.4zM1243.8 418.2h-7.6v-22.8h6.6c7.6 0 12 3.4 12 11.8 0 7.4-3.8 11-11 11zM1183.8 416.2l-7.6-35.4h15.6l-7.8 35.4zM1461.4 458h-413.2c-6.8 0-12.6-29.6-12.6-66s5.6-66 12.6-66h413.2c6.8 0 18.6 29.6 18.6 66 0 36.6-11.8 66-18.6 66zM1147.4 351h-14.6v63h-0.2l-14-63h-12.6l-14 63h-0.2v-63h-14.6v79h23.6l11.2-55.8h0.2l11.4 55.8h23.6v-79h0.2zM1198.2 351l-3.6 16.6h-21l-3.6-16.6h-16.6l21 79h19.6l21-79h-16.8zM1273.8 351h-17.2c-1.6 2.2-1.8 5.2-2 8.2l-0.4 15.2c-0.2 6.2-3 10-9.4 10h-8.6v-33.4h-16v79h29.4c13 0 21-6.8 21-20.4 0-10.6-4.2-17.6-13.2-19.4v-0.2c10.8-1.4 12.4-7.4 12.8-24.2 0.2-8.2 0.6-12.6 3.6-14.2v-0.6zM1319.8 351l-16.2 32.4-5.8-9v-23.4h-16v79h16v-31.6h0.2l20 31.6h17.2l-21.4-33.8 23.8-45.2h-17.8zM1386.4 351h-45.2v79h44.2v-13h-28.2v-18.6h26.6v-13h-26.6v-21.4h29.4v-13h-0.2zM1440.6 417h-17.2v-66h-16v66h-17.2v13h50.4v-13z" />
<glyph unicode="&#xe639;" glyph-name="airOSX-control2" horiz-adv-x="1510" d="M424.8 603.2c-62.6 0-90.2-44.2-90.2-141.6s27.6-141.6 90.2-141.6 90.2 44.2 90.2 141.6c0 97.2-27.6 141.6-90.2 141.6zM424.8 352.8c-26 0-46.6 16-46.6 110 0 91.8 20.6 107.8 46.6 107.8s46.6-16.2 46.6-107.8c0-94-20.6-110-46.6-110zM177.8 495l-36.2-170.6h34.4l36 170.6zM223.2 568.4c10.6-7 20-19 20.2-46h17.2c0.4 31.4-12.6 50.8-27.8 60.6s-31.4 10.8-39.2 11h-2.6v-17.4h2.6c6 0 19-1.2 29.6-8.2zM641.8 474.8l-29.4 10.6c-29 11-40.8 23-40.8 46.2 0 29 17.8 39.4 36.6 39.4 27.2 0 38.2-14.6 38.2-39.4v-5.8h43.6v6.2c0 28.2-7.4 71.8-77.2 71.8-51.2 0-84.8-27.6-84.8-77.2 0-39 17.2-59.6 57-74.8l29.8-10.4c24.4-7.4 39-20 39-48.6 0-20.4-13.8-39.8-41.2-39.8-30 0-44.6 16.8-44.6 50v7.2h-43.8v-6.6c0-38.2 15.2-83.2 82.8-83.2 55 0 90.2 24.2 90.2 82.2 0 37.4-16.8 58.4-55.4 72.2zM268 468.4h-0.6l5.8 26.6h-34.2l-36.2-170.6h34.2l21.6 102c7 31.8 27 38.6 42.4 38.6 5.8 0 11.8-1.2 14-1.8l7.2 34.8c-2 0.8-4.2 1.4-8 1.4-19.4 0-34.6-12-46.2-31zM96 499.4c-45 0-64-20-71.6-56.2h32.4c3.4 16.4 10.2 32.6 33 32.6 18 0 21.2-9.8 18-25.4-3.2-15-11.8-18.4-24.8-21.8l-28.2-7.2c-24.8-7.6-42.8-15.6-51-53.6-7-32.6 7-47.8 34.2-47.8 20 0 35.2 8.2 47.8 25h0.6c-2.6-16.4 8.8-22.6 24-22.6 6.6 0 13 2.2 17.4 4.2l4.8 22.2c-1.2-0.6-3.4-1-5.8-1-5 0-7.6 5.8-6.4 12l21 97.8c6.4 30.2-15.2 41.8-45.4 41.8zM93.8 385.8v0c-5.4-25-18.8-40.6-39.4-40.6-14.2 0-18.8 11.4-15.8 25.6 2.8 12.6 9.2 22.8 20 27.6 11.2 4.8 31 8.8 41.2 15.8l-6-28.4zM963.6 603.2l-62.4-91.8-15.6 91.8h-98c0 0-3-2 2.8-2.8 13.2-1.8 44-10 46.6-27.4v-0.4l21.2-99-113.4-148.8h64.4l69 99.2 17.6-99.2h54.4l-29 137.8 104.8 140.6h-62.4zM242 594c16.8-11 31.6-30.6 31.8-71.4h17.2c0.2 45.2-18.2 72.2-39.6 86s-44.6 15.4-55.6 15.4h-4.6v-17.4c0.8 0 2.2 0.2 4.6 0.2 9.2 0 29.4-1.8 46.2-12.8zM204.8 542.6c4.2-2.8 8-7 8.2-19.4v-0.6h17.2v0.8c0.2 16.6-7.2 28.2-16 33.8s-17.6 6-22 6.2h-1.2v-17.2c0.2-0.2 0.4-0.2 1.2-0.2 2.6 0 8.4-0.6 12.6-3.4zM737.6 585c0 5.2-3.2 7.4-9.4 7.4h-9.8v-25.8h4.2v11h4l6.6-11h4.8l-7.2 11.4c4 0.4 6.8 2.4 6.8 7zM722.6 581.4v7.6h5.2c2.6 0 5.6-0.4 5.6-3.4 0-3.8-2.8-4-6-4h-4.8v-0.2zM727.2 603.4c-12.4 0-23-9.4-23-23.4 0-13.4 9.6-23.4 23-23.4 12.2 0 22.8 9.4 22.8 23.4s-10.4 23.4-22.8 23.4zM727.2 560.8c-11.2 0-18 8.6-18 19.4 0 11.4 7.8 19.4 18 19.4 10 0 17.8-8 17.8-19.4 0.2-11.6-7.8-19.4-17.8-19.4zM1404.6 413.6c-0.8 2.4-1.8 4-3.4 5.2-1.4 1.2-3.4 1.6-5.6 1.6-2.4 0-4.2-0.4-5.6-1.6s-2.6-2.8-3.4-5.2-1.2-5.4-1.6-9c-0.2-3.8-0.4-8.2-0.4-13.4s0.2-10 0.4-13.4c0.2-3.8 0.8-6.8 1.6-9 0.8-2.4 1.8-4 3.4-5 1.4-1.2 3.4-1.6 5.6-1.6 2.4 0 4.2 0.4 5.6 1.6s2.6 2.8 3.4 5c0.8 2.4 1.2 5.4 1.6 9 0.2 3.8 0.4 8.2 0.4 13.4s-0.2 9.6-0.4 13.4c-0.4 3.6-0.8 6.6-1.6 9zM1165.6 413.6c-0.8 2.4-1.8 4-3.4 5.2-1.4 1.2-3.4 1.6-5.6 1.6-2.4 0-4.2-0.4-5.6-1.6s-2.6-2.8-3.4-5.2-1.2-5.4-1.6-9c-0.2-3.8-0.4-8.2-0.4-13.4s0.2-10 0.4-13.4c0.2-3.8 0.8-6.8 1.6-9 0.8-2.4 1.8-4 3.4-5 1.4-1.2 3.4-1.6 5.6-1.6 2.4 0 4.2 0.4 5.6 1.6s2.6 2.8 3.4 5c0.8 2.4 1.2 5.4 1.6 9 0.2 3.8 0.4 8.2 0.4 13.4s-0.2 9.6-0.4 13.4c-0.2 3.6-0.6 6.6-1.6 9zM1332.4 418.8h-7.6v-22.8h6.6c3.8 0 6.8 1 8.8 2.6 2.2 1.8 3 4.8 3 9.2 0.4 7.2-3.4 11-10.8 11zM1493.4 457.6h-444.4c-6.8 0-12.6-29.4-12.6-65.8s5.6-65.8 12.6-65.8h444.4c6.8 0 18.6 29.4 18.6 65.8s-11.8 65.8-18.6 65.8zM1121.4 369.6c-0.8-3.8-1.8-7-3.8-10.2-1.8-2.8-4.2-5.2-7.6-6.8s-7.6-2.4-12.8-2.4c-5.8 0-10.6 1-14.2 2.8s-6.2 4.8-8 8.2c-1.8 3.6-3 7.8-3.6 13-0.4 5-1 10.6-1 16.6s0.2 11.6 1 16.6c0.4 5 1.6 9.4 3.6 13 1.8 3.6 4.4 6.4 8 8.4 3.6 2.2 8.2 3 14.2 3 5.6 0 10.2-1 13.4-2.8 3.4-1.8 5.6-4.2 7.4-7 1.6-2.8 2.6-5.8 3-9.2s0.8-6.4 0.8-9.2h-15.8c0 5.6-0.8 10-2.2 12.6s-3.8 4-7.6 4c-1.8 0-3.6-0.4-5-1.6-1.2-1.2-2.4-2.8-3-5.2-0.8-2.4-1.2-5.4-1.6-9.4-0.2-3.8-0.4-8.4-0.4-14.2s0.2-10.8 0.8-14.4c0.4-3.8 1-6.6 1.8-8.4 1-2.2 1.8-3.4 3.4-4 1.2-0.8 2.8-1 4.4-1 1.4 0 2.6 0.2 4 0.8 1.2 0.4 2.4 1.4 3 2.8 1 1.4 1.6 3.6 2.2 6.2 0.4 2.6 0.8 6.2 0.8 10.4h15.8c0-4.8-0.2-8.8-1-12.6zM1182.6 374.4c-0.4-5-1.6-9.2-3.6-13-1.8-3.6-4.4-6.4-8-8.2s-8.2-2.8-14.2-2.8c-5.8 0-10.6 1-14.2 2.8s-6.2 4.8-8 8.2c-1.8 3.6-3 7.8-3.6 13-0.4 5-1 10.6-1 16.6s0.2 11.6 1 16.6c0.4 5 1.6 9.4 3.6 13 1.8 3.6 4.4 6.4 8 8.4 3.6 2.2 8.2 3 14.2 3s10.6-1 14.2-3c3.6-2.2 6.2-4.8 8-8.4s3-8 3.6-13 1-10.6 1-16.6-0.4-11.4-1-16.6zM1245.2 351.8h-18.2l-19.4 55.2h-0.2v-55.2h-14.6v78.8h18.4l19.2-54h0.2v54h14.6v-78.8zM1302.2 417.4h-17.2v-65.8h-15.8v65.8h-17.2v13h50.2v-13zM1361.6 351.8h-16.6c-0.8 1.2-1.4 2.4-1.6 3.8s-0.4 2.8-0.4 4.4l-0.4 15.2c-0.2 3-1 5.4-2.4 7.4-1.4 1.6-3.8 2.6-7 2.6h-8.4v-33.2h-15.8v78.8h29c6.6 0 11.8-1.6 15.4-5 3.8-3.4 5.4-8.4 5.4-15.4 0-5.2-1.2-9.6-3.4-13s-5.4-5.4-10-6.4v-0.2c4-0.4 6.8-1.8 8.8-3.8 1.8-1.8 3-5.2 3.4-9.6 0.2-1.4 0.2-3 0.2-4.8s0.2-3.8 0.2-5.8c0.2-4.2 0.4-7.4 0.8-9.6s1.4-3.8 2.8-4.4v-1zM1421.6 374.4c-0.4-5-1.6-9.2-3.6-13-1.8-3.6-4.4-6.4-8-8.2s-8.2-2.8-14.2-2.8-10.6 1-14.2 2.8-6.2 4.8-8 8.2c-1.8 3.6-3 7.8-3.6 13-0.4 5-1 10.6-1 16.6s0.2 11.6 1 16.6c0.4 5 1.6 9.4 3.6 13 1.8 3.6 4.4 6.4 8 8.4 3.6 2.2 8.2 3 14.2 3 5.8 0 10.6-1 14.2-3 3.6-2.2 6.2-4.8 8-8.4s3-8 3.6-13c0.4-5 1-10.6 1-16.6-0.2-6-0.6-11.4-1-16.6zM1475.6 351.8h-43.8v78.8h15.8v-65.8h28v-13z" />
<glyph unicode="&#xe63a;" glyph-name="airOSX-billing2" horiz-adv-x="1446" d="M425 603.2c-62.6 0-90.2-44.2-90.2-141.6s27.6-141.6 90.2-141.6 90.2 44.2 90.2 141.6c0 97.2-27.6 141.6-90.2 141.6zM425 352.8c-26 0-46.6 16-46.6 110 0 91.8 20.6 107.8 46.6 107.8s46.6-16.2 46.6-107.8c0-94-20.6-110-46.6-110zM177.8 495l-36.2-170.8h34.4l36 170.8zM223.2 568.4c10.6-7 20-19 20.2-46h17.2c0.4 31.4-12.6 50.8-27.8 60.6s-31.4 10.8-39.2 11h-2.6v-17.4h2.6c6 0 19-1.2 29.6-8.2zM642 474.8l-29.4 10.6c-29 11-40.8 23-40.8 46.2 0 29 17.8 39.4 36.6 39.4 27.2 0 38.2-14.6 38.2-39.4v-5.8h43.6v6.2c0 28.2-7.4 71.8-77.2 71.8-51.2 0-84.8-27.6-84.8-77.2 0-39 17.2-59.6 57-74.8l29.8-10.4c24.4-7.4 39-20 39-48.6 0-20.4-13.8-39.8-41.2-39.8-30 0-44.6 16.8-44.6 50v7.2h-43.8v-6.6c0-38.2 15.2-83.2 82.8-83.2 55 0 90.2 24.2 90.2 82.2 0 37.4-16.8 58.4-55.4 72.2zM268 468.4h-0.6l5.8 26.6h-34.2l-36.2-170.6h34.2l21.6 102c7 31.8 27 38.6 42.4 38.6 5.8 0 11.8-1.2 14-1.8l7.2 34.8c-2 0.8-4.2 1.4-8 1.4-19.2 0-34.6-12-46.2-31zM96 499.4c-45 0-64-20-71.6-56.2h32.4c3.4 16.4 10.2 32.6 33 32.6 18 0 21.2-9.8 18-25.4-3.2-15-11.8-18.4-24.8-21.8l-28.2-7.2c-24.8-7.6-42.8-15.6-51-53.6-7-32.6 7-47.8 34.2-47.8 20 0 35.2 8.2 47.8 25h0.6c-2.6-16.4 8.8-22.6 24-22.6 6.6 0 13 2.2 17.4 4.2l4.8 22.2c-1.2-0.6-3.4-1-5.8-1-5 0-7.6 5.8-6.4 12l21 97.8c6.4 30.2-15.2 41.8-45.4 41.8zM93.8 385.8v0c-5.4-25-18.8-40.6-39.4-40.6-14.2 0-18.8 11.4-15.8 25.6 2.8 12.6 9.2 22.8 20 27.6 11.2 4.8 31 8.8 41.2 15.8l-6-28.4zM964 603.2l-62.4-91.8-15.6 91.8h-98c0 0-3-2 2.8-2.8 13.2-1.8 44-10 46.6-27.4v-0.4l21.2-99-113.4-148.8h64.4l69 99.2 17.6-99.2h54.4l-29 137.8 104.8 140.6h-62.4zM242 594c16.8-11 31.6-30.6 31.8-71.4h17.2c0.2 45.2-18.2 72.2-39.6 86s-44.6 15.4-55.6 15.4h-4.6v-17.4c0.8 0 2.2 0.2 4.6 0.2 9.2 0 29.4-1.8 46.2-12.8zM204.8 542.6c4.2-2.8 8-7 8.2-19.4v-0.6h17.2v0.8c0.2 16.6-7.2 28.2-16 33.8s-17.6 6-22 6.2h-1.2v-17.2c0.2-0.2 0.4-0.2 1.2-0.2 2.6 0 8.4-0.6 12.6-3.4zM738 585c0 5.2-3.2 7.4-9.4 7.4h-9.8v-25.8h4.2v11h4l6.6-11h4.8l-7.2 11.4c3.8 0.4 6.8 2.4 6.8 7zM723 581.4v7.6h5.2c2.6 0 5.6-0.4 5.6-3.4 0-3.8-2.8-4-6-4h-4.8v-0.2zM727.6 603.4c-12.4 0-23-9.4-23-23.4 0-13.4 9.6-23.4 23-23.4 12.2 0 22.8 9.4 22.8 23.4s-10.6 23.4-22.8 23.4zM727.6 560.8c-11.2 0-18 8.6-18 19.4 0 11.4 7.8 19.4 18 19.4 10 0 17.8-8 17.8-19.4 0-11.6-7.8-19.4-17.8-19.4zM1101 398.8c2 1.6 3 4.2 3 8s-1 6.2-2.8 7.8-4.8 2.2-8.6 2.2h-5.6v-20.4h4.4c4.4 0 7.4 0.8 9.6 2.4zM1102.2 383c-1.2 1-2.4 1.6-3.8 1.8-1.6 0.4-3.2 0.4-4.8 0.4h-6.6v-23.6h6c3.8 0 7 0.8 9.4 2.6s3.4 4.8 3.4 9.4c0 2.2-0.4 4-1 5.6-0.8 1.8-1.6 2.8-2.6 3.8zM1429.2 458h-380.2c-6.8 0-12.6-29.6-12.6-66s5.6-66 12.6-66h380.4c6.8 0 18.8 29.6 18.8 66-0.2 36.4-12 66-19 66zM1121 364.4c-0.8-2.8-2.2-5.2-4.2-7.2-1.8-2-4.4-3.6-7.6-4.8s-7.2-1.6-11.6-1.6h-26.6v78.6h26.4c3.4 0 6.4-0.6 9-1.2s5.2-2 7.2-3.6c1.8-1.6 3.4-3.6 4.6-6.2s1.6-5.6 1.6-9.4c0-4.2-1.2-8-3.2-11-1.8-3.2-4.4-5.2-9.2-6.2v-0.2c4.8-0.6 8.2-2.6 10.8-5.6 2.6-3.2 4.2-7.2 4.2-12.6-0.2-3.2-0.6-6.2-1.4-9zM1150 350.8h-15.8v78.6h15.8v-78.6zM1206.8 350.8h-44.2v78.6h15.8v-66h28.4v-12.6zM1258.8 350.8h-44.2v78.6h15.8v-66h28.4v-12.6zM1284 350.8h-15.8v78.6h15.8v-78.6zM1331.2 350.8l-19.4 55h-1v-55h-14.2v78.6h18.6l19.2-55v55h14.2v-78.6h-17.4zM1411.8 350.6h-11v6.2h-0.2c-1.8-3.2-4.2-5-7-6.2-2.6-1.2-5.8-1.8-9.6-1.8-4.8 0-8.8 0.8-11.8 2.6s-5.4 4.4-7.2 7.8c-1.8 3.4-2.8 7.8-3.4 13-0.6 5-1 11.2-1 18 0 6.6 0.4 12.4 1.2 17.4 1 5 2.4 9.2 4.4 12.6s4.8 5.8 8.2 7.6c3.4 1.6 7.6 2.6 12.6 2.6 8.6 0 15-2 18.8-6.2s5.6-10.4 5.6-18.2h-15.4c0 1.6-0.2 2.6-0.4 4.2-0.4 1.6-0.8 2.8-1.6 4s-1.8 2.4-2.8 3.2c-1.2 0.8-2.6 1.2-4.2 1.2-3.8 0-6.4-2.2-8.2-6.4s-2.6-11.2-2.6-21c0-4.8 0.2-9 0.4-12.8 0.4-3.8 0.8-7 1.6-9.8 0.8-2.6 1.8-4.8 3.4-6.2 1.4-1.4 3.4-2.2 5.6-2.2 1 0 2 0.4 3.2 0.8 1.2 0.6 2.4 1.2 3.4 2.4s1.8 2.4 2.6 4c0.6 1.6 1.2 3.4 1.2 5.6v7.8h-11v12.4h25.2v-42.6z" />
<glyph unicode="&#xe63b;" glyph-name="pencil-2" d="M1016 777.8l-172.8 174.2c-10.2 10.4-28.4 10.4-38.6 0l-123.4-124.4c0 0 0 0 0 0s0 0 0 0l-61.2-61.8-538-537.8c-3.2-3.2-5.6-7.2-6.8-11.4l-74-244.6c-3-9.6-0.4-20 6.6-27.2 5.2-5.4 12.4-8.4 19.6-8.4 2.4 0 4.8 0.4 7.2 1l242.6 66.2c4.6 1.2 8.8 3.6 12.2 7l726.6 728.2c10.6 10.8 10.6 28.2 0 39zM812 611.2l-134 135 22.6 22.8 134-135-22.6-22.8zM750.8 549.6l-134 135.2 22.6 22.8 134-135.2-22.6-22.8zM689.6 487.8l-134 135.2 22.6 22.6 134-135-22.6-22.8zM274.2 73.4l-134 135 376.6 375.6 134-135.2-376.6-375.4zM114.2 156.6l109.6-110.4-155.8-42.6 46.2 153zM873.2 673l-134 135 84.8 85.4 134-135-84.8-85.4z" />
</font>
</defs>
</svg>
